<svg width="85" height="24" viewBox="0 0 85 24" fill="none" xmlns="http://www.w3.org/2000/svg">
<path d="M13.752 0.439999C14.2853 0.525332 14.6053 0.717332 14.712 1.016C14.7973 1.272 14.7333 1.53867 14.52 1.816C14.392 1.96533 14.168 2.12533 13.848 2.296C14.0613 2.168 14.2533 2.296 14.424 2.68C14.616 3.192 14.5093 3.53333 14.104 3.704C13.9547 3.768 13.784 3.78933 13.592 3.768C13.9973 3.98133 14.2853 4.248 14.456 4.568C14.6693 4.99467 14.6267 5.368 14.328 5.688C14.136 5.90133 13.7627 6.01867 13.208 6.04C10.7547 6.14667 8.344 6.24267 5.976 6.328C5.976 6.54133 5.96533 6.91467 5.944 7.448C5.92267 7.96 5.92267 8.32267 5.944 8.536C5.96533 8.64267 5.99733 8.856 6.04 9.176C6.104 9.47467 6.14667 9.72 6.168 9.912C6.50933 9.912 7.02133 9.912 7.704 9.912C8.408 9.89067 8.94133 9.88 9.304 9.88C10.3707 9.85867 11.3307 9.93333 12.184 10.104C12.5467 10.168 12.76 10.328 12.824 10.584C12.888 10.8613 12.7707 11.0853 12.472 11.256C12.3227 11.3627 12.0667 11.4373 11.704 11.48C11.8107 11.544 12.024 11.608 12.344 11.672C12.6853 11.7147 12.8987 11.8107 12.984 11.96C13.0693 12.1093 13.08 12.2693 13.016 12.44C12.952 12.6107 12.8347 12.7387 12.664 12.824C12.472 12.9307 12.152 12.9733 11.704 12.952C12.0667 13.1653 12.312 13.336 12.44 13.464C12.696 13.7413 12.76 14.0187 12.632 14.296C12.504 14.5947 12.1307 14.7653 11.512 14.808C11.4907 14.808 11.3307 14.8187 11.032 14.84C10.7547 14.84 10.4773 14.8507 10.2 14.872C9.944 14.872 9.60267 14.8827 9.176 14.904C8.74933 14.9253 8.376 14.9467 8.056 14.968C7.75733 14.968 7.42667 14.9787 7.064 15C6.72267 15 6.488 15 6.36 15C6.25333 15 6.168 15 6.104 15C5.99733 17.2613 5.92267 18.9253 5.88 19.992C5.88 20.056 5.89067 20.2587 5.912 20.6C5.93333 20.92 5.93333 21.2293 5.912 21.528C5.912 21.8053 5.89067 22.0933 5.848 22.392C5.80533 22.6907 5.70933 22.904 5.56 23.032C5.432 23.16 5.24 23.1813 4.984 23.096C4.62133 22.9467 4.38667 22.5307 4.28 21.848C4.28 21.9973 4.25867 22.1467 4.216 22.296C4.17333 22.424 4.10933 22.552 4.024 22.68C3.93867 22.7867 3.832 22.8827 3.704 22.968C3.576 23.032 3.43733 23.0747 3.288 23.096C3.16 23.096 3.02133 23.064 2.872 23C2.68 22.8933 2.53067 22.744 2.424 22.552C2.33867 22.3387 2.33867 22.136 2.424 21.944C2.104 22.8187 1.688 23.2347 1.176 23.192C0.984 23.192 0.813333 23.1173 0.664 22.968C0.514667 22.7973 0.418667 22.616 0.376 22.424C0.333333 22.232 0.301333 21.9973 0.28 21.72C0.28 21.4427 0.28 21.1867 0.28 20.952C0.301333 20.7173 0.301333 20.472 0.28 20.216C0.237333 19.128 0.216 18.3173 0.216 17.784C0.194667 16.3333 0.184 14.648 0.184 12.728C0.184 12.28 0.248 9.00533 0.376 2.904C0.376 2.81867 0.365333 2.69067 0.344 2.52C0.344 2.328 0.344 2.15733 0.344 2.008C0.344 1.85867 0.344 1.69867 0.344 1.528C0.365333 1.35733 0.397333 1.208 0.44 1.08C0.504 0.951998 0.589333 0.855999 0.696 0.792C0.888 0.642666 1.21867 0.557332 1.688 0.535999C3.05333 0.493332 4.664 0.493332 6.52 0.535999C8.888 0.578665 10.5307 0.567999 11.448 0.504C12.6 0.418666 13.368 0.397333 13.752 0.439999ZM1.112 16.536C0.941333 16.5573 0.845333 16.6533 0.824 16.824C0.824 16.9307 0.813333 17.1227 0.792 17.4C0.792 17.656 0.781333 17.8587 0.76 18.008C0.76 18.072 0.792 18.136 0.856 18.2C0.92 18.264 0.984 18.296 1.048 18.296C1.24 18.2747 1.336 18.1787 1.336 18.008C1.336 17.88 1.34667 17.688 1.368 17.432C1.38933 17.1547 1.4 16.952 1.4 16.824C1.4 16.76 1.368 16.696 1.304 16.632C1.26133 16.568 1.19733 16.536 1.112 16.536ZM1.112 21.176C1.28267 21.176 1.368 21.08 1.368 20.888C1.38933 20.76 1.4 20.568 1.4 20.312C1.42133 20.056 1.44267 19.864 1.464 19.736C1.464 19.6507 1.432 19.5867 1.368 19.544C1.304 19.48 1.24 19.448 1.176 19.448C0.984 19.448 0.888 19.544 0.888 19.736C0.888 19.864 0.877333 20.056 0.856 20.312C0.834667 20.568 0.813333 20.76 0.792 20.888C0.792 20.9733 0.824 21.048 0.888 21.112C0.952 21.1547 1.02667 21.176 1.112 21.176ZM2.616 15.512C2.57333 15.576 2.552 15.64 2.552 15.704V16.344C2.552 16.4293 2.57333 16.504 2.616 16.568C2.68 16.6107 2.75467 16.632 2.84 16.632C2.904 16.632 2.968 16.6 3.032 16.536C3.07467 16.472 3.096 16.408 3.096 16.344V15.704C3.096 15.64 3.07467 15.576 3.032 15.512C2.968 15.448 2.904 15.4267 2.84 15.448C2.75467 15.448 2.68 15.4693 2.616 15.512ZM2.264 19.064C2.34933 19.0853 2.41333 19.0747 2.456 19.032C2.54133 18.9893 2.59467 18.936 2.616 18.872C2.616 18.7867 2.616 18.7013 2.616 18.616C2.63733 18.5093 2.65867 18.4027 2.68 18.296C2.70133 18.1893 2.712 18.0933 2.712 18.008C2.73333 17.9013 2.73333 17.8267 2.712 17.784C2.648 17.72 2.584 17.6773 2.52 17.656C2.43467 17.6347 2.36 17.6453 2.296 17.688C2.232 17.7307 2.18933 17.784 2.168 17.848C2.14667 17.9547 2.12533 18.104 2.104 18.296C2.08267 18.488 2.06133 18.6267 2.04 18.712C2.04 18.8187 2.05067 18.8933 2.072 18.936C2.11467 19.0213 2.17867 19.064 2.264 19.064ZM2.872 21.432C3.064 21.4107 3.16 21.3147 3.16 21.144V20.152C3.16 20.0667 3.128 20.0027 3.064 19.96C3.02133 19.896 2.95733 19.864 2.872 19.864C2.70133 19.864 2.616 19.96 2.616 20.152V21.144C2.616 21.208 2.63733 21.272 2.68 21.336C2.744 21.4 2.808 21.432 2.872 21.432ZM3.64 17.4V18.424C3.64 18.5093 3.672 18.584 3.736 18.648C3.8 18.6907 3.864 18.712 3.928 18.712C4.12 18.712 4.216 18.616 4.216 18.424V17.4C4.216 17.3147 4.184 17.24 4.12 17.176C4.07733 17.112 4.01333 17.08 3.928 17.08C3.736 17.1013 3.64 17.208 3.64 17.4ZM4.568 20.376C4.58933 20.248 4.61067 20.1627 4.632 20.12C4.65333 20.0773 4.65333 20.0347 4.632 19.992C4.632 19.9493 4.62133 19.9173 4.6 19.896C4.6 19.8533 4.57867 19.8213 4.536 19.8C4.51467 19.7787 4.48267 19.768 4.44 19.768C4.26933 19.7253 4.152 19.7893 4.088 19.96C3.96 20.3227 3.91733 20.696 3.96 21.08C3.96 21.272 4.056 21.368 4.248 21.368C4.44 21.3467 4.536 21.2507 4.536 21.08C4.51467 20.9307 4.51467 20.76 4.536 20.568V20.536C4.536 20.5147 4.536 20.4933 4.536 20.472C4.55733 20.4293 4.568 20.3973 4.568 20.376ZM4.44 15.928C4.48267 16.0347 4.52533 16.2053 4.568 16.44C4.632 16.6533 4.67467 16.8133 4.696 16.92C4.76 17.112 4.87733 17.176 5.048 17.112C5.24 17.048 5.31467 16.9307 5.272 16.76C5.22933 16.632 5.176 16.4613 5.112 16.248C5.06933 16.0133 5.03733 15.8533 5.016 15.768C4.952 15.576 4.83467 15.512 4.664 15.576C4.472 15.64 4.39733 15.7573 4.44 15.928ZM5.464 18.488C5.42133 18.3813 5.336 18.328 5.208 18.328C5.10133 18.328 5.016 18.3813 4.952 18.488C4.90933 18.5733 4.90933 18.6693 4.952 18.776C5.016 18.8613 5.10133 18.904 5.208 18.904C5.336 18.904 5.42133 18.8613 5.464 18.776C5.50667 18.6693 5.50667 18.5733 5.464 18.488ZM28.7623 14.744C28.7196 14.8507 28.7409 15.032 28.8263 15.288C28.9116 15.544 29.0183 15.8213 29.1463 16.12C29.2956 16.4187 29.3809 16.6107 29.4023 16.696C29.6369 17.4213 29.8929 18.3387 30.1703 19.448C30.1916 19.4907 30.2449 19.6613 30.3303 19.96C30.4156 20.2373 30.4796 20.4933 30.5223 20.728C30.5863 20.9627 30.6289 21.2187 30.6503 21.496C30.6929 21.7733 30.6823 22.008 30.6183 22.2C30.5543 22.392 30.4263 22.52 30.2343 22.584C30.1063 22.6267 29.9569 22.616 29.7863 22.552C29.5943 22.4667 29.4129 22.36 29.2423 22.232C29.0716 22.0827 28.9329 21.912 28.8263 21.72C28.7196 21.528 28.6449 21.3253 28.6023 21.112C28.6023 21.2187 28.5916 21.3787 28.5703 21.592C28.5489 21.784 28.5383 21.9333 28.5383 22.04C28.4956 22.4667 28.3783 22.744 28.1863 22.872C28.0156 22.9573 27.8343 22.9787 27.6423 22.936C27.4716 22.872 27.3223 22.7547 27.1943 22.584C27.1516 22.5413 27.1089 22.488 27.0663 22.424C27.0449 22.36 27.0129 22.296 26.9703 22.232C26.9489 22.1467 26.9169 22.072 26.8743 22.008C26.8529 21.944 26.8209 21.88 26.7783 21.816C26.7569 21.7307 26.7356 21.6667 26.7143 21.624C26.6929 21.7093 26.6716 21.8053 26.6503 21.912C26.6503 22.0187 26.6396 22.136 26.6183 22.264C26.5969 22.3707 26.5756 22.4667 26.5543 22.552C26.5329 22.7227 26.4903 22.84 26.4263 22.904C26.3623 22.968 26.2556 22.9893 26.1063 22.968C25.9356 22.968 25.7756 22.9253 25.6263 22.84C25.4769 22.7333 25.3489 22.5947 25.2423 22.424C25.1356 22.232 25.0396 22.0613 24.9543 21.912C24.8903 21.7627 24.8156 21.56 24.7303 21.304C24.6663 21.0267 24.6129 20.824 24.5703 20.696C24.5489 20.568 24.5169 20.3653 24.4743 20.088C24.4316 19.8107 24.3996 19.6613 24.3783 19.64C24.3783 19.5973 24.3569 19.4693 24.3142 19.256C24.2716 19.0427 24.2396 18.8933 24.2183 18.808C24.1969 18.7013 24.1649 18.5413 24.1223 18.328C24.0796 18.1147 24.0263 17.9547 23.9623 17.848C23.9196 17.72 23.8556 17.5813 23.7703 17.432C23.7063 17.2613 23.6316 17.1227 23.5463 17.016C23.4609 16.9093 23.3649 16.824 23.2583 16.76C23.0023 16.568 22.5649 16.504 21.9463 16.568C21.8609 16.568 21.8076 16.5893 21.7863 16.632C21.7649 16.6533 21.7649 16.696 21.7863 16.76C21.8716 17.656 21.8503 18.84 21.7223 20.312C21.7223 20.3973 21.7116 20.5893 21.6903 20.888C21.6903 21.1653 21.6796 21.3893 21.6583 21.56C21.6583 21.7307 21.6263 21.9333 21.5623 22.168C21.5196 22.3813 21.4556 22.5627 21.3703 22.712C21.2636 22.8827 21.0929 22.9787 20.8583 23C20.6236 23 20.4316 22.936 20.2823 22.808C20.0049 22.616 19.8129 22.264 19.7063 21.752C19.6636 22.0507 19.5249 22.3067 19.2903 22.52C19.0769 22.7333 18.8316 22.8293 18.5543 22.808C18.2769 22.808 18.0316 22.68 17.8183 22.424C17.6263 22.168 17.5729 21.912 17.6583 21.656C17.6369 21.7413 17.5943 21.8693 17.5303 22.04C17.4876 22.1893 17.4556 22.296 17.4343 22.36C17.3489 22.5947 17.2636 22.7547 17.1783 22.84C17.0503 22.904 16.9009 22.9147 16.7303 22.872C16.5809 22.808 16.4636 22.712 16.3783 22.584C16.2716 22.392 16.2183 22.0827 16.2183 21.656C16.2396 20.952 16.2289 19.736 16.1863 18.008C16.1649 16.28 16.1756 15.064 16.2183 14.36C16.2609 13.208 16.2396 11.1813 16.1543 8.28C16.0903 5.37867 16.1223 3.36267 16.2503 2.232C16.2929 1.848 16.3569 1.57067 16.4423 1.4C16.6343 0.994666 16.9969 0.706666 17.5303 0.535999C18.0849 0.343999 18.6183 0.269332 19.1302 0.311998C19.6636 0.333333 20.1649 0.344 20.6343 0.344C21.0823 0.365333 21.5303 0.397333 21.9783 0.439999C23.5569 0.589333 24.9863 0.856 26.2663 1.24C26.9916 1.45333 27.5143 1.66667 27.8343 1.88C28.9649 2.584 29.7756 3.608 30.2663 4.952C30.7569 6.296 30.9489 7.704 30.8423 9.176C30.8209 9.34667 30.7996 9.58133 30.7783 9.88C30.7783 10.1573 30.7676 10.3813 30.7463 10.552C30.7463 10.7013 30.7249 10.8933 30.6823 11.128C30.6609 11.3627 30.6076 11.5867 30.5223 11.8C30.4583 11.992 30.3729 12.184 30.2663 12.376C30.1596 12.568 29.9889 12.8133 29.7543 13.112C29.5196 13.4107 29.3063 13.6987 29.1143 13.976C28.9436 14.2533 28.8263 14.5093 28.7623 14.744ZM17.0503 17.368C16.8583 17.3253 16.7303 17.3893 16.6663 17.56C16.5169 18.008 16.4849 18.488 16.5703 19C16.5916 19.064 16.6343 19.1173 16.6983 19.16C16.7836 19.2027 16.8583 19.2133 16.9223 19.192C17.0929 19.1493 17.1569 19.032 17.1143 18.84C17.1143 18.8187 17.1143 18.808 17.1143 18.808C17.1143 18.7867 17.1143 18.776 17.1143 18.776C17.1143 18.7547 17.1143 18.744 17.1143 18.744C17.1143 18.7227 17.1143 18.7013 17.1143 18.68C17.1143 18.6373 17.1143 18.6053 17.1143 18.584C17.1143 18.52 17.1143 18.4133 17.1143 18.264C17.1143 18.2213 17.1143 18.2 17.1143 18.2V18.168C17.1143 18.1467 17.1249 18.0933 17.1463 18.008C17.1676 17.944 17.1996 17.848 17.2423 17.72C17.3063 17.528 17.2423 17.4107 17.0503 17.368ZM16.8903 21.4C16.9969 21.5707 17.1249 21.6027 17.2743 21.496C17.4449 21.4107 17.4769 21.2827 17.3703 21.112C17.3489 21.0907 17.3276 21.0373 17.3063 20.952C17.2636 20.888 17.2423 20.8133 17.2423 20.728C17.2209 20.6427 17.2209 20.5573 17.2423 20.472C17.2423 20.408 17.2103 20.3333 17.1463 20.248C17.0823 20.184 17.0183 20.1627 16.9543 20.184C16.8689 20.184 16.7943 20.2053 16.7303 20.248C16.7303 20.2693 16.7196 20.2907 16.6983 20.312C16.6769 20.3547 16.6663 20.408 16.6663 20.472C16.6236 20.792 16.6983 21.1013 16.8903 21.4ZM17.7543 17.336C17.7969 17.4213 17.8503 17.464 17.9143 17.464C17.9996 17.4853 18.0743 17.4853 18.1383 17.464C18.2023 17.4 18.2449 17.336 18.2663 17.272C18.3729 16.952 18.4583 16.728 18.5223 16.6C18.5436 16.536 18.5329 16.4613 18.4903 16.376C18.4476 16.312 18.3943 16.2693 18.3303 16.248C18.2236 16.2267 18.1489 16.2373 18.1063 16.28C18.0209 16.3227 17.9676 16.376 17.9463 16.44C17.9036 16.5893 17.8289 16.8133 17.7223 17.112C17.7009 17.1973 17.7116 17.272 17.7543 17.336ZM18.1383 18.424V19.288C18.1383 19.3733 18.1596 19.448 18.2023 19.512C18.2663 19.5547 18.3409 19.576 18.4263 19.576C18.6183 19.576 18.7143 19.48 18.7143 19.288V18.424C18.7143 18.36 18.6823 18.296 18.6183 18.232C18.5543 18.168 18.4903 18.136 18.4263 18.136C18.2343 18.1573 18.1383 18.2533 18.1383 18.424ZM18.6503 21.656C18.6929 21.848 18.8103 21.912 19.0023 21.848C19.1729 21.784 19.2369 21.6667 19.1943 21.496C19.1516 21.3253 19.0876 21.0587 19.0023 20.696C18.9596 20.504 18.8423 20.44 18.6503 20.504C18.4583 20.5467 18.3943 20.664 18.4583 20.856C18.5009 21.0267 18.5649 21.2933 18.6503 21.656ZM19.5463 17.24C19.5676 17.2187 19.5783 17.1867 19.5783 17.144C19.5783 17.1013 19.5676 17.0587 19.5463 17.016C19.5463 16.9947 19.5249 16.9627 19.4823 16.92C19.4823 16.92 19.4716 16.92 19.4503 16.92C19.4503 16.8987 19.4396 16.888 19.4183 16.888C19.3756 16.8667 19.3329 16.856 19.2903 16.856C19.2689 16.856 19.2476 16.856 19.2263 16.856C19.2263 16.856 19.2156 16.856 19.1943 16.856C19.1516 16.8773 19.1089 16.9093 19.0663 16.952C19.0449 16.9733 19.0236 16.984 19.0023 16.984C18.9809 17.0053 18.9703 17.0373 18.9703 17.08C18.9489 17.1227 18.9383 17.1653 18.9383 17.208C18.9383 17.2507 18.9489 17.2827 18.9703 17.304C18.9703 17.3467 18.9809 17.3787 19.0023 17.4C19.0236 17.4 19.0343 17.4107 19.0343 17.432C19.0556 17.432 19.0663 17.4427 19.0663 17.464C19.1303 17.4853 19.1836 17.496 19.2263 17.496C19.2263 17.496 19.2369 17.496 19.2583 17.496C19.2796 17.4747 19.2903 17.464 19.2903 17.464C19.3543 17.464 19.3969 17.4427 19.4183 17.4C19.4396 17.3787 19.4609 17.3573 19.4823 17.336C19.5249 17.3147 19.5463 17.2827 19.5463 17.24ZM19.9943 21.592C20.0369 21.656 20.1009 21.688 20.1863 21.688C20.2716 21.6667 20.3356 21.6347 20.3783 21.592C20.4423 21.528 20.4743 21.464 20.4743 21.4C20.4103 20.9307 20.3996 20.4933 20.4423 20.088C20.4423 20.024 20.4103 19.96 20.3463 19.896C20.2823 19.832 20.2183 19.8 20.1543 19.8C19.9836 19.8213 19.8876 19.9173 19.8663 20.088C19.8236 20.5573 19.8343 20.9947 19.8983 21.4C19.8983 21.4853 19.9303 21.5493 19.9943 21.592ZM20.1543 18.712C20.2183 18.904 20.3356 18.968 20.5063 18.904C20.6983 18.84 20.7623 18.7227 20.6983 18.552C20.6769 18.488 20.6556 18.392 20.6343 18.264C20.6343 18.264 20.6343 18.2533 20.6343 18.232C20.6343 18.2107 20.6343 18.2 20.6343 18.2C20.6129 18.1787 20.6023 18.1573 20.6023 18.136V18.104C20.6023 18.104 20.6023 18.0933 20.6023 18.072C20.6023 18.0507 20.6023 18.04 20.6023 18.04C20.6023 17.9333 20.6023 17.8373 20.6023 17.752C20.6023 17.688 20.6023 17.6453 20.6023 17.624C20.6023 17.6027 20.6023 17.5813 20.6023 17.56V17.528C20.6236 17.4427 20.6236 17.368 20.6023 17.304C20.5596 17.24 20.4956 17.1973 20.4103 17.176C20.1969 17.1333 20.0796 17.1973 20.0583 17.368C19.9943 17.8373 20.0263 18.2853 20.1543 18.712ZM21.7863 11.96C21.9356 12.3013 22.2449 12.408 22.7143 12.28C23.8663 12.0027 24.6876 11.512 25.1783 10.808C25.9249 9.76267 26.1489 8.52533 25.8503 7.096C25.7436 6.69067 25.6156 6.38133 25.4663 6.168C25.2103 5.89067 24.8049 5.66667 24.2503 5.496C23.5676 5.32533 22.8529 5.22933 22.1063 5.208C21.9143 5.208 21.7756 5.25067 21.6903 5.336C21.5836 5.42133 21.5409 5.60267 21.5623 5.88C21.6689 7.11733 21.7116 8.984 21.6903 11.48C21.6903 11.608 21.7009 11.6933 21.7223 11.736C21.7223 11.8213 21.7436 11.896 21.7863 11.96ZM24.6663 17.08C24.8369 17.5067 24.9649 17.944 25.0503 18.392C25.0503 18.456 25.0823 18.5093 25.1463 18.552C25.2316 18.5947 25.3169 18.6053 25.4023 18.584C25.5516 18.5413 25.6156 18.424 25.5943 18.232C25.5089 17.7627 25.3809 17.3253 25.2103 16.92C25.1463 16.7493 25.0289 16.6853 24.8583 16.728C24.6663 16.792 24.6023 16.9093 24.6663 17.08ZM25.2103 19.512C25.2103 19.5333 25.2103 19.5547 25.2103 19.576C25.2103 19.576 25.2103 19.5867 25.2103 19.608C25.2103 19.6507 25.2209 19.6933 25.2423 19.736C25.2849 19.8213 25.3383 19.9387 25.4023 20.088C25.4663 20.2373 25.5196 20.344 25.5623 20.408C25.5836 20.4933 25.6369 20.5467 25.7223 20.568C25.8076 20.5893 25.8823 20.5787 25.9463 20.536C26.0316 20.472 26.0743 20.408 26.0743 20.344C26.0743 20.344 26.0743 20.3333 26.0743 20.312C26.0743 20.2907 26.0849 20.28 26.1063 20.28C26.1063 20.216 26.0849 20.1627 26.0423 20.12C26.0209 20.056 25.9676 19.9493 25.8823 19.8C25.8183 19.6507 25.7649 19.5333 25.7223 19.448C25.7009 19.384 25.6476 19.3413 25.5623 19.32C25.4769 19.2987 25.4023 19.3093 25.3383 19.352C25.2743 19.3947 25.2316 19.448 25.2103 19.512ZM25.7863 22.296C25.8503 22.3387 25.9249 22.3493 26.0103 22.328C26.2023 22.264 26.2663 22.1467 26.2023 21.976C26.0956 21.656 26.0103 21.4107 25.9463 21.24C25.9249 21.1547 25.8823 21.1013 25.8183 21.08C25.7543 21.0373 25.6796 21.0267 25.5943 21.048C25.4023 21.112 25.3383 21.2293 25.4023 21.4C25.5089 21.72 25.5943 21.9653 25.6583 22.136C25.6796 22.2 25.7223 22.2533 25.7863 22.296ZM26.1703 16.952C26.1916 17.0373 26.2343 17.1013 26.2983 17.144C26.3623 17.1867 26.4369 17.1867 26.5223 17.144C26.7143 17.1013 26.7783 16.984 26.7143 16.792C26.6716 16.664 26.6396 16.5467 26.6183 16.44C26.5969 16.2907 26.5969 16.1413 26.6183 15.992C26.6396 15.8853 26.6289 15.8107 26.5863 15.768C26.5436 15.6827 26.4903 15.64 26.4263 15.64C26.2129 15.5973 26.0956 15.6613 26.0743 15.832C26.0103 16.2373 26.0423 16.6107 26.1703 16.952ZM27.1623 21.112C27.2476 21.0907 27.3116 21.048 27.3543 20.984C27.3969 20.8987 27.4076 20.824 27.3863 20.76C27.3649 20.696 27.3329 20.6 27.2903 20.472C27.2476 20.3227 27.2156 20.216 27.1943 20.152C27.1729 20.0667 27.1303 20.0027 27.0663 19.96C26.9809 19.9173 26.9063 19.9067 26.8423 19.928C26.7569 19.9707 26.6929 20.0133 26.6503 20.056C26.6076 20.1627 26.5969 20.2373 26.6183 20.28C26.7036 20.5147 26.7676 20.728 26.8103 20.92C26.8316 20.984 26.8743 21.0373 26.9383 21.08C27.0236 21.1227 27.0983 21.1333 27.1623 21.112ZM27.2583 19.224C27.3223 19.1813 27.3649 19.128 27.3863 19.064C27.4076 18.9787 27.3969 18.904 27.3543 18.84C27.2476 18.6693 27.1516 18.488 27.0663 18.296C27.0236 18.2107 26.9596 18.1573 26.8743 18.136C26.7889 18.1147 26.7143 18.1253 26.6503 18.168C26.5863 18.232 26.5436 18.296 26.5223 18.36C26.5009 18.424 26.5116 18.4987 26.5543 18.584C26.5969 18.6267 26.6503 18.712 26.7143 18.84C26.7783 18.968 26.8316 19.064 26.8743 19.128C26.8956 19.192 26.9489 19.2347 27.0343 19.256C27.1196 19.2773 27.1943 19.2667 27.2583 19.224ZM27.7383 16.664C27.8449 16.8987 27.9409 17.08 28.0263 17.208C28.1329 17.4 28.2503 17.5707 28.3783 17.72C28.4209 17.7627 28.4849 17.784 28.5703 17.784C28.6556 17.784 28.7303 17.7627 28.7943 17.72C28.8369 17.6347 28.8583 17.56 28.8583 17.496C28.8583 17.432 28.8369 17.368 28.7943 17.304C28.7729 17.2827 28.7516 17.272 28.7303 17.272C28.7303 17.2507 28.7303 17.24 28.7303 17.24C28.5383 16.984 28.3889 16.728 28.2823 16.472C28.2823 16.472 28.2823 16.4827 28.2823 16.504C28.2609 16.4187 28.2183 16.3653 28.1543 16.344C28.0903 16.3013 28.0156 16.2907 27.9303 16.312C27.8663 16.3333 27.8129 16.376 27.7703 16.44C27.7276 16.5253 27.7169 16.6 27.7383 16.664ZM28.6023 19.544C28.6236 19.6293 28.6663 19.6933 28.7303 19.736C28.7943 19.7787 28.8689 19.7893 28.9543 19.768C29.0396 19.7253 29.0929 19.672 29.1143 19.608C29.1569 19.544 29.1676 19.48 29.1463 19.416C29.1249 19.3307 29.0929 19.2453 29.0503 19.16C29.0289 19.0747 29.0076 18.9893 28.9863 18.904C28.9649 18.8187 28.9436 18.744 28.9223 18.68C28.8796 18.5947 28.8263 18.5307 28.7623 18.488C28.6983 18.4453 28.6236 18.4347 28.5383 18.456C28.4743 18.4773 28.4209 18.52 28.3783 18.584C28.3356 18.6693 28.3249 18.744 28.3463 18.808C28.3676 18.872 28.3889 18.936 28.4103 19C28.4316 19.064 28.4529 19.128 28.4743 19.192C28.4956 19.2347 28.5169 19.2987 28.5383 19.384C28.5596 19.448 28.5809 19.5013 28.6023 19.544ZM29.8823 21.592C29.9036 21.4853 29.9036 21.4107 29.8823 21.368C29.7969 21.24 29.7329 21.1227 29.6903 21.016C29.6689 20.9733 29.6369 20.888 29.5943 20.76C29.5729 20.6747 29.5196 20.6107 29.4343 20.568C29.3703 20.5253 29.3063 20.5253 29.2423 20.568C29.0503 20.6107 28.9863 20.728 29.0503 20.92C29.1356 21.1973 29.2423 21.4427 29.3703 21.656C29.4129 21.72 29.4663 21.7627 29.5303 21.784C29.6156 21.8053 29.6903 21.7947 29.7543 21.752C29.8396 21.7093 29.8823 21.656 29.8823 21.592ZM41.161 0.664C41.993 0.834665 42.7717 1.16533 43.497 1.656C44.2437 2.12533 44.841 2.712 45.289 3.416C45.9077 4.376 46.3023 5.66667 46.473 7.288C46.6223 8.67467 46.7183 9.752 46.761 10.52C46.825 11.288 46.8357 12.248 46.793 13.4C46.7503 14.552 46.6223 15.6293 46.409 16.632C46.089 18.04 45.5237 19.3093 44.713 20.44C43.9237 21.5493 42.9103 22.2213 41.673 22.456C40.7557 22.6267 39.8917 22.712 39.081 22.712C38.2917 22.712 37.5023 22.6053 36.713 22.392C35.945 22.1787 35.2623 21.7947 34.665 21.24C34.089 20.664 33.6623 19.928 33.385 19.032C33.0223 17.944 32.7663 16.792 32.617 15.576C32.4677 14.3387 32.4037 13.176 32.425 12.088C32.4463 11 32.4677 9.82667 32.489 8.568C32.5317 7.224 32.713 6.09333 33.033 5.176C33.2677 4.45067 33.6197 3.75733 34.089 3.096C34.7717 2.11467 35.8063 1.41067 37.193 0.983999C38.5797 0.557333 39.9023 0.450666 41.161 0.664ZM37.993 8.376C37.9077 8.80267 37.865 9.368 37.865 10.072C37.8223 12.4827 37.897 14.2533 38.089 15.384C38.345 16.984 39.0277 17.56 40.137 17.112C40.7343 16.8773 41.129 15.896 41.321 14.168C41.4277 13.0587 41.4277 11.48 41.321 9.432C41.2997 8.64267 41.2037 7.992 41.033 7.48C40.7983 6.712 40.457 6.25333 40.009 6.104C39.689 5.976 39.3583 6.02933 39.017 6.264C38.6757 6.47733 38.4197 6.82933 38.249 7.32C38.121 7.66133 38.0357 8.01333 37.993 8.376ZM38.185 17.432C38.1637 17.3467 38.1103 17.2827 38.025 17.24C37.961 17.1973 37.897 17.1867 37.833 17.208C37.6623 17.272 37.5983 17.3893 37.641 17.56C37.7477 18.0507 37.8223 18.4027 37.865 18.616C37.8863 18.7013 37.929 18.7653 37.993 18.808C38.0783 18.8293 38.153 18.8293 38.217 18.808C38.3877 18.7653 38.4517 18.648 38.409 18.456C38.3877 18.2853 38.313 17.944 38.185 17.432ZM34.537 18.936C34.5583 19 34.6117 19.0427 34.697 19.064C34.7823 19.0853 34.857 19.0747 34.921 19.032C35.0063 18.9893 35.0597 18.936 35.081 18.872C35.081 18.8293 35.081 18.7973 35.081 18.776C35.081 18.7333 35.0703 18.6907 35.049 18.648C35.0063 18.584 34.953 18.488 34.889 18.36C34.8463 18.232 34.8037 18.1467 34.761 18.104C34.7397 18.04 34.6863 17.9867 34.601 17.944C34.5157 17.9227 34.441 17.9333 34.377 17.976C34.313 18.04 34.2703 18.0933 34.249 18.136C34.249 18.1573 34.249 18.1787 34.249 18.2C34.249 18.2 34.249 18.2107 34.249 18.232C34.249 18.2747 34.2597 18.3173 34.281 18.36C34.3023 18.424 34.3237 18.488 34.345 18.552C34.3877 18.616 34.4197 18.68 34.441 18.744C34.4837 18.808 34.5157 18.872 34.537 18.936ZM36.137 21.496C36.2223 21.4533 36.2757 21.4 36.297 21.336C36.4037 21.1653 36.3717 21.0373 36.201 20.952C36.1157 20.9093 36.0197 20.856 35.913 20.792C35.8063 20.7067 35.721 20.6107 35.657 20.504C35.5717 20.4187 35.5077 20.3333 35.465 20.248C35.4437 20.1627 35.3903 20.1093 35.305 20.088C35.2197 20.0667 35.145 20.0773 35.081 20.12C34.9317 20.2267 34.8997 20.3653 34.985 20.536C35.177 20.9413 35.4863 21.2507 35.913 21.464C35.9983 21.4853 36.073 21.496 36.137 21.496ZM35.977 17.88C36.169 18.4987 36.3077 18.9467 36.393 19.224C36.457 19.416 36.5743 19.48 36.745 19.416C36.937 19.3733 37.0117 19.256 36.969 19.064C36.905 18.9147 36.8303 18.6907 36.745 18.392C36.6597 18.072 36.5957 17.848 36.553 17.72C36.489 17.528 36.3717 17.464 36.201 17.528C36.009 17.5707 35.9343 17.688 35.977 17.88ZM37.609 21.432C37.7583 21.56 37.897 21.56 38.025 21.432C38.153 21.2827 38.153 21.144 38.025 21.016C37.6837 20.7173 37.4277 20.4827 37.257 20.312C37.1077 20.1627 36.969 20.1627 36.841 20.312C36.713 20.4613 36.713 20.5893 36.841 20.696C36.9263 20.7813 37.0117 20.8667 37.097 20.952C37.1823 21.0373 37.2677 21.1227 37.353 21.208C37.4597 21.2933 37.545 21.368 37.609 21.432ZM38.953 20.92C39.0383 20.92 39.1023 20.888 39.145 20.824C39.209 20.76 39.241 20.696 39.241 20.632C39.241 20.5253 39.209 20.4613 39.145 20.44C39.1023 20.376 39.017 20.3013 38.889 20.216C38.761 20.1093 38.665 20.0347 38.601 19.992C38.5797 19.9707 38.5477 19.9493 38.505 19.928C38.4623 19.9067 38.4303 19.9067 38.409 19.928C38.3237 19.928 38.2597 19.9493 38.217 19.992C38.153 20.056 38.121 20.12 38.121 20.184C38.121 20.2907 38.153 20.3653 38.217 20.408C38.281 20.4507 38.3663 20.5253 38.473 20.632C38.601 20.7173 38.697 20.7813 38.761 20.824C38.7823 20.8453 38.8143 20.8667 38.857 20.888C38.8783 20.9093 38.9103 20.92 38.953 20.92ZM39.401 19.64C39.401 19.7253 39.433 19.8 39.497 19.864C39.561 19.9067 39.625 19.928 39.689 19.928C39.7743 19.928 39.849 19.9067 39.913 19.864C39.977 19.7787 39.9983 19.704 39.977 19.64C39.9557 19.2987 39.9343 19.032 39.913 18.84C39.913 18.7547 39.8917 18.6907 39.849 18.648C39.785 18.584 39.7103 18.552 39.625 18.552C39.5397 18.5733 39.4757 18.6053 39.433 18.648C39.369 18.712 39.337 18.776 39.337 18.84C39.3583 19.032 39.3797 19.2987 39.401 19.64ZM40.361 22.072C40.4037 22.008 40.4357 21.944 40.457 21.88C40.4997 21.816 40.5423 21.752 40.585 21.688C40.6277 21.624 40.6597 21.5707 40.681 21.528C40.7237 21.4427 40.7343 21.368 40.713 21.304C40.6917 21.2187 40.649 21.1547 40.585 21.112C40.4997 21.0693 40.425 21.0587 40.361 21.08C40.2757 21.1227 40.2117 21.176 40.169 21.24C40.1477 21.2827 40.105 21.368 40.041 21.496C39.977 21.624 39.9237 21.72 39.881 21.784C39.8383 21.848 39.8277 21.9227 39.849 22.008C39.8703 22.072 39.913 22.1253 39.977 22.168C40.0623 22.2107 40.137 22.2213 40.201 22.2C40.2863 22.1573 40.3397 22.1147 40.361 22.072ZM40.649 18.744C40.6703 18.8293 40.713 18.8827 40.777 18.904C40.969 19.0107 41.097 18.9787 41.161 18.808C41.2037 18.7013 41.257 18.584 41.321 18.456C41.385 18.3067 41.449 18.1573 41.513 18.008C41.577 17.8587 41.6303 17.7307 41.673 17.624C41.6943 17.5387 41.705 17.464 41.705 17.4C41.6837 17.336 41.641 17.2827 41.577 17.24C41.3637 17.1333 41.225 17.1653 41.161 17.336C41.0543 17.6133 40.8943 18.008 40.681 18.52C40.6383 18.584 40.6277 18.6587 40.649 18.744ZM42.313 21.784C42.3557 21.7627 42.377 21.7307 42.377 21.688C42.377 21.6453 42.377 21.6133 42.377 21.592C42.377 21.5493 42.3663 21.5067 42.345 21.464C42.3023 21.4 42.249 21.3573 42.185 21.336C42.0997 21.3147 42.025 21.3253 41.961 21.368C41.769 21.496 41.6197 21.6027 41.513 21.688C41.4917 21.7093 41.4703 21.7307 41.449 21.752C41.4063 21.7947 41.385 21.8267 41.385 21.848C41.385 21.8907 41.385 21.9333 41.385 21.976C41.385 22.0187 41.3957 22.0507 41.417 22.072C41.4597 22.136 41.513 22.1787 41.577 22.2C41.6837 22.2213 41.7583 22.2107 41.801 22.168C41.9077 22.104 42.057 21.9973 42.249 21.848C42.2703 21.848 42.2917 21.8267 42.313 21.784ZM41.929 20.472C42.057 20.1947 42.2063 19.9387 42.377 19.704C42.377 19.704 42.377 19.7147 42.377 19.736C42.4197 19.672 42.441 19.5973 42.441 19.512C42.441 19.4267 42.4197 19.3627 42.377 19.32C42.313 19.256 42.2383 19.224 42.153 19.224C42.0677 19.224 42.0037 19.256 41.961 19.32C41.7263 19.6187 41.545 19.9067 41.417 20.184C41.3743 20.2693 41.3637 20.344 41.385 20.408C41.4063 20.472 41.449 20.5253 41.513 20.568C41.5983 20.6107 41.673 20.6213 41.737 20.6C41.8223 20.5787 41.8863 20.536 41.929 20.472ZM42.537 18.52C42.5797 18.584 42.633 18.6267 42.697 18.648C42.9103 18.6907 43.0383 18.616 43.081 18.424C43.1023 18.3173 43.1237 18.1573 43.145 17.944C43.1877 17.7093 43.2197 17.5387 43.241 17.432C43.241 17.3467 43.2303 17.2827 43.209 17.24C43.1663 17.1547 43.1023 17.1013 43.017 17.08C42.825 17.0373 42.7077 17.112 42.665 17.304C42.665 17.4107 42.6437 17.5707 42.601 17.784C42.5583 17.9973 42.5263 18.168 42.505 18.296C42.505 18.3813 42.5157 18.456 42.537 18.52ZM43.241 20.216C43.4117 20.3653 43.5503 20.3653 43.657 20.216C44.0197 19.7893 44.233 19.288 44.297 18.712C44.297 18.648 44.265 18.584 44.201 18.52C44.137 18.456 44.073 18.424 44.009 18.424C43.817 18.4453 43.721 18.5413 43.721 18.712C43.721 18.7333 43.7103 18.7547 43.689 18.776C43.689 18.7973 43.689 18.808 43.689 18.808C43.689 18.808 43.689 18.8187 43.689 18.84C43.689 18.8827 43.6783 18.936 43.657 19C43.6357 19.0853 43.625 19.1387 43.625 19.16C43.6037 19.2027 43.593 19.2347 43.593 19.256C43.5717 19.2773 43.561 19.288 43.561 19.288L43.529 19.352C43.529 19.352 43.529 19.3627 43.529 19.384C43.529 19.4053 43.5183 19.416 43.497 19.416C43.497 19.4373 43.4863 19.4693 43.465 19.512C43.4437 19.5333 43.433 19.5547 43.433 19.576C43.3903 19.64 43.3583 19.6933 43.337 19.736C43.3157 19.7573 43.2943 19.768 43.273 19.768L43.241 19.8C43.113 19.9707 43.113 20.1093 43.241 20.216ZM45.321 17.912C45.321 17.72 45.225 17.624 45.033 17.624C44.8623 17.624 44.777 17.72 44.777 17.912C44.777 18.104 44.8623 18.2 45.033 18.2C45.225 18.2 45.321 18.104 45.321 17.912ZM67.1458 1.144C67.2098 1.4 67.2418 1.688 67.2418 2.008C67.2418 2.30667 67.2311 2.65867 67.2098 3.064C67.1884 3.448 67.1778 3.736 67.1778 3.928C67.1778 4.248 67.1458 5.19733 67.0818 6.776C67.0818 7.33067 67.0924 8.12 67.1138 9.144C67.1564 10.168 67.1778 10.8933 67.1778 11.32C67.1778 12.4293 67.1458 14.3387 67.0818 17.048C67.0818 17.5387 67.0498 18.2427 66.9858 19.16C66.9431 20.0773 66.9218 20.6747 66.9218 20.952C66.9004 21.6133 66.7404 22.04 66.4418 22.232C66.2924 22.3173 66.0578 22.36 65.7378 22.36C65.4818 22.3387 65.0978 22.328 64.5858 22.328C64.0738 22.328 63.6898 22.328 63.4338 22.328C62.9644 22.3067 62.6871 22.296 62.6018 22.296C62.2178 22.2747 61.8764 22.2213 61.5778 22.136C61.2364 22.0507 60.9271 21.8907 60.6498 21.656C60.3724 21.4213 60.1164 21.112 59.8818 20.728C59.6684 20.344 59.4871 20.0027 59.3378 19.704C59.1884 19.4053 59.0178 19.0107 58.8258 18.52C58.6338 18.0293 58.5058 17.6987 58.4418 17.528C57.7378 15.992 57.2898 15.032 57.0978 14.648C57.0338 14.52 56.9164 14.3387 56.7458 14.104C56.5751 13.848 56.4044 13.6133 56.2338 13.4C56.0844 13.1653 55.9351 12.9307 55.7858 12.696C55.6578 12.4613 55.5938 12.28 55.5938 12.152C55.5938 12.9627 55.6258 14.328 55.6898 16.248C55.7751 18.1467 55.8071 19.6187 55.7858 20.664C55.7644 21.432 55.6684 21.9973 55.4978 22.36C55.4338 22.5307 55.3484 22.648 55.2418 22.712C55.0711 22.7973 54.8471 22.8187 54.5698 22.776C54.2711 22.712 54.0151 22.584 53.8018 22.392C53.5884 22.2 53.4498 21.9867 53.3858 21.752C53.3004 21.8373 53.1831 21.9973 53.0338 22.232C52.9058 22.4667 52.7778 22.6267 52.6498 22.712C52.2658 22.968 51.8498 22.9573 51.4018 22.68C51.0604 22.488 50.8471 22.1893 50.7618 21.784C50.6338 22.168 50.4844 22.4347 50.3138 22.584C50.0151 22.8613 49.6844 22.936 49.3218 22.808C49.0658 22.7013 48.8951 22.456 48.8098 22.072C48.7031 21.4107 48.6604 20.8667 48.6818 20.44C48.7031 20.0133 48.7458 19.448 48.8098 18.744C48.8738 18.04 48.9058 17.4853 48.9058 17.08C48.8631 15.3947 48.8631 13.56 48.9058 11.576C48.9058 7.20267 48.9378 4.22667 49.0018 2.648C49.0444 1.624 49.2898 0.973333 49.7378 0.695999C49.9938 0.525332 50.4311 0.439999 51.0498 0.439999C51.1351 0.439999 51.3164 0.439999 51.5938 0.439999C51.8924 0.418666 52.0951 0.418666 52.2018 0.439999C52.3298 0.439999 52.5218 0.450665 52.7778 0.471998C53.0338 0.471998 53.2364 0.482665 53.3858 0.504C53.5351 0.525333 53.7058 0.567999 53.8978 0.631998C54.1111 0.674665 54.3031 0.738666 54.4738 0.823999C54.6444 0.909333 54.8044 1.00533 54.9538 1.112C55.7644 1.66667 56.4791 2.60533 57.0978 3.928C57.1831 4.09867 57.2791 4.30133 57.3858 4.536C57.4924 4.77067 57.5884 4.984 57.6738 5.176C57.7591 5.368 57.8444 5.57067 57.9298 5.784C58.0151 5.976 58.1111 6.17867 58.2178 6.392C58.3458 6.60533 58.4631 6.808 58.5698 7C58.6764 7.17067 58.8364 7.45867 59.0498 7.864C59.2844 8.248 59.4658 8.55733 59.5938 8.792C59.7431 9.00533 59.9244 9.272 60.1378 9.592C60.3724 9.89067 60.6071 10.1467 60.8418 10.36C60.9271 10.296 60.9378 9.99733 60.8738 9.464C60.8098 8.93067 60.7778 8.62133 60.7778 8.536C60.7778 8.344 60.7778 8.07733 60.7778 7.736C60.7778 7.39467 60.7778 7.08533 60.7778 6.808C60.7778 6.53067 60.7778 6.264 60.7778 6.008C60.7778 5.66667 60.7671 5.18667 60.7458 4.568C60.7458 3.94933 60.7458 3.39467 60.7458 2.904C60.7671 2.392 60.7884 1.90133 60.8098 1.432C60.8098 1.09067 60.9164 0.877332 61.1298 0.792C61.4284 0.642666 61.7271 0.706666 62.0258 0.983999C62.0898 1.06933 62.1751 1.19733 62.2818 1.368C62.3884 1.53867 62.4631 1.64533 62.5058 1.688C62.6551 1.368 62.9324 1.08 63.3378 0.823999C63.7431 0.546666 64.1164 0.535999 64.4578 0.792C64.5431 0.855999 64.6284 0.994665 64.7138 1.208C64.8204 1.42133 64.9378 1.56 65.0658 1.624C65.1724 1.26133 65.4071 0.962665 65.7698 0.727999C66.0258 0.578666 66.2604 0.514666 66.4738 0.535999C66.8578 0.599998 67.0818 0.802665 67.1458 1.144ZM50.1538 16.056C49.9618 16.0133 49.8444 16.0773 49.8018 16.248C49.6738 16.7173 49.6311 17.2187 49.6738 17.752C49.6738 17.944 49.7698 18.04 49.9618 18.04C50.0258 18.0187 50.0898 17.9867 50.1538 17.944C50.2178 17.88 50.2498 17.816 50.2498 17.752C50.2284 17.5173 50.2284 17.2827 50.2498 17.048C50.2498 16.9627 50.2498 16.9093 50.2498 16.888V16.856C50.2498 16.856 50.2604 16.8453 50.2818 16.824C50.2818 16.824 50.2818 16.792 50.2818 16.728C50.2818 16.7067 50.2818 16.6747 50.2818 16.632C50.3031 16.5893 50.3138 16.5467 50.3138 16.504C50.3351 16.4613 50.3458 16.4293 50.3458 16.408C50.3884 16.216 50.3244 16.0987 50.1538 16.056ZM50.0578 20.92C50.2498 20.8987 50.3458 20.8027 50.3458 20.632C50.3671 20.2267 50.3458 19.832 50.2818 19.448C50.2604 19.384 50.2071 19.3307 50.1218 19.288C50.0578 19.2453 49.9938 19.2347 49.9298 19.256C49.7591 19.2987 49.6951 19.416 49.7378 19.608C49.7378 19.6293 49.7378 19.672 49.7378 19.736V19.768C49.7378 19.768 49.7378 19.7893 49.7378 19.832C49.7591 19.896 49.7698 19.9813 49.7698 20.088C49.7911 20.28 49.7911 20.4613 49.7698 20.632C49.7698 20.7173 49.8018 20.792 49.8658 20.856C49.9298 20.8987 49.9938 20.92 50.0578 20.92ZM51.4978 21.304C51.6898 21.2827 51.7858 21.1867 51.7858 21.016V19.96C51.7858 19.8747 51.7538 19.8107 51.6898 19.768C51.6258 19.704 51.5618 19.672 51.4978 19.672C51.3058 19.672 51.2098 19.768 51.2098 19.96V21.016C51.2098 21.208 51.3058 21.304 51.4978 21.304ZM51.4978 18.648C51.6898 18.6267 51.7858 18.5307 51.7858 18.36V17.368C51.7858 17.3253 51.7644 17.2827 51.7218 17.24C51.7004 17.176 51.6684 17.1333 51.6258 17.112C51.5831 17.0907 51.5404 17.08 51.4978 17.08C51.3058 17.08 51.2098 17.176 51.2098 17.368V18.36C51.2098 18.424 51.2311 18.488 51.2738 18.552C51.3378 18.616 51.4124 18.648 51.4978 18.648ZM51.7218 16.344C51.7644 16.3013 51.7858 16.248 51.7858 16.184C51.7858 16.0773 51.7858 16.0027 51.7858 15.96C51.7858 15.9173 51.7751 15.8747 51.7538 15.832C51.7324 15.7893 51.7111 15.7573 51.6898 15.736C51.6471 15.7147 51.6151 15.704 51.5938 15.704C51.5511 15.6827 51.5191 15.672 51.4978 15.672C51.4764 15.672 51.4551 15.672 51.4338 15.672C51.4338 15.672 51.4231 15.672 51.4018 15.672C51.3591 15.6933 51.3164 15.7147 51.2738 15.736C51.2738 15.7573 51.2631 15.7787 51.2418 15.8C51.2204 15.864 51.2098 15.9173 51.2098 15.96V16.184C51.2098 16.2267 51.2098 16.2693 51.2098 16.312C51.2311 16.3333 51.2524 16.3653 51.2738 16.408C51.3164 16.4293 51.3484 16.4507 51.3698 16.472C51.4124 16.472 51.4551 16.472 51.4978 16.472C51.4978 16.472 51.5084 16.472 51.5298 16.472C51.5511 16.472 51.5618 16.472 51.5618 16.472C51.6044 16.472 51.6471 16.4507 51.6898 16.408C51.6898 16.408 51.6898 16.3973 51.6898 16.376C51.7111 16.3547 51.7218 16.344 51.7218 16.344ZM52.9058 15.672C52.7138 15.672 52.6178 15.768 52.6178 15.96V17.016C52.6178 17.08 52.6391 17.144 52.6818 17.208C52.7458 17.272 52.8204 17.304 52.9058 17.304C53.0978 17.2827 53.1938 17.1867 53.1938 17.016V15.96C53.1938 15.8747 53.1618 15.8107 53.0978 15.768C53.0338 15.704 52.9698 15.672 52.9058 15.672ZM52.7778 21.912C52.9484 21.8907 53.0444 21.7947 53.0658 21.624C53.0871 21.2187 53.0658 20.8027 53.0018 20.376C52.9804 20.2907 52.9378 20.2267 52.8738 20.184C52.7884 20.1413 52.7138 20.1413 52.6498 20.184C52.4791 20.2267 52.4151 20.344 52.4578 20.536C52.4578 20.536 52.4578 20.5467 52.4578 20.568C52.4578 20.5893 52.4578 20.6 52.4578 20.6V20.632C52.4578 20.6533 52.4578 20.696 52.4578 20.76C52.4791 20.7813 52.4898 20.824 52.4898 20.888C52.4898 20.952 52.4898 21.0053 52.4898 21.048C52.5111 21.2613 52.5111 21.4533 52.4898 21.624C52.4898 21.688 52.5111 21.752 52.5538 21.816C52.6178 21.88 52.6924 21.912 52.7778 21.912ZM53.2898 18.968C53.3324 18.6053 53.3538 18.3387 53.3538 18.168C53.3538 18.104 53.3324 18.04 53.2898 17.976C53.2044 17.912 53.1298 17.88 53.0658 17.88C52.9804 17.88 52.9164 17.912 52.8738 17.976C52.8311 18.0187 52.7991 18.0827 52.7778 18.168C52.7778 18.2533 52.7671 18.392 52.7458 18.584C52.7458 18.7547 52.7351 18.8827 52.7138 18.968C52.7138 19.032 52.7458 19.096 52.8098 19.16C52.8738 19.224 52.9378 19.256 53.0018 19.256C53.0871 19.256 53.1511 19.2347 53.1938 19.192C53.2578 19.128 53.2898 19.0533 53.2898 18.968ZM54.5698 21.464C54.5911 21.4213 54.6018 21.3573 54.6018 21.272C54.6231 21.208 54.6231 21.112 54.6018 20.984C54.5804 20.9413 54.5591 20.9093 54.5378 20.888C54.5164 20.8667 54.4844 20.8453 54.4418 20.824C54.4418 20.8027 54.4098 20.792 54.3458 20.792C54.3031 20.7707 54.2711 20.7707 54.2498 20.792C54.1644 20.8133 54.1004 20.856 54.0578 20.92C54.0578 20.9413 54.0471 20.9627 54.0258 20.984C54.0258 21.0267 54.0258 21.08 54.0258 21.144C54.0471 21.1653 54.0471 21.1973 54.0258 21.24C54.0258 21.304 54.0151 21.3467 53.9938 21.368C53.9938 21.4107 53.9938 21.4427 53.9938 21.464C53.9724 21.5067 53.9724 21.5387 53.9938 21.56C54.0151 21.6453 54.0578 21.7093 54.1218 21.752C54.2071 21.7947 54.2818 21.7947 54.3458 21.752C54.4311 21.7307 54.4844 21.6987 54.5058 21.656C54.5271 21.592 54.5484 21.528 54.5698 21.464ZM54.6338 19.992C54.7191 19.9707 54.7724 19.928 54.7938 19.864C54.8364 19.7787 54.8471 19.704 54.8258 19.64C54.7404 19.4053 54.6658 19.192 54.6018 19C54.5591 18.9147 54.5164 18.8613 54.4738 18.84C54.3884 18.7973 54.3138 18.7867 54.2498 18.808C54.1644 18.8293 54.1004 18.872 54.0578 18.936C54.0151 19.0213 54.0151 19.096 54.0578 19.16C54.1431 19.3947 54.2178 19.608 54.2818 19.8C54.3031 19.864 54.3458 19.9173 54.4098 19.96C54.4738 20.0027 54.5484 20.0133 54.6338 19.992ZM54.5378 18.104C54.6018 18.1467 54.6764 18.1573 54.7618 18.136C54.9324 18.0933 54.9964 17.976 54.9538 17.784C54.9324 17.72 54.9111 17.6453 54.8898 17.56C54.8898 17.4747 54.8791 17.4 54.8578 17.336C54.8578 17.272 54.8471 17.1973 54.8258 17.112C54.8044 17.0053 54.7831 16.92 54.7618 16.856C54.7618 16.792 54.7191 16.7387 54.6338 16.696C54.5698 16.6533 54.5058 16.6427 54.4418 16.664C54.2711 16.7067 54.1964 16.824 54.2178 17.016C54.2391 17.08 54.2498 17.144 54.2498 17.208C54.2711 17.272 54.2818 17.336 54.2818 17.4C54.3031 17.4427 54.3138 17.496 54.3138 17.56C54.3351 17.624 54.3458 17.688 54.3458 17.752C54.3671 17.816 54.3884 17.88 54.4098 17.944C54.4098 18.008 54.4524 18.0613 54.5378 18.104ZM59.9138 18.936C60.0204 19.1067 60.1484 19.1387 60.2978 19.032C60.4684 18.9253 60.5004 18.7973 60.3938 18.648C60.3084 18.4773 60.2338 18.3173 60.1698 18.168C60.1484 18.1467 60.1271 18.1253 60.1058 18.104C60.1058 18.0613 60.1058 18.0187 60.1058 17.976C60.0631 17.8693 60.0311 17.784 60.0098 17.72C59.9458 17.528 59.8284 17.464 59.6578 17.528C59.4658 17.592 59.4018 17.7093 59.4658 17.88C59.5724 18.264 59.7218 18.616 59.9138 18.936ZM61.1938 21.592C61.3004 21.7627 61.4284 21.7947 61.5778 21.688C61.7484 21.5813 61.7911 21.4533 61.7058 21.304C61.6418 21.1973 61.5458 21.0373 61.4178 20.824C61.2898 20.6107 61.1938 20.4613 61.1298 20.376C61.0231 20.2053 60.8951 20.1627 60.7458 20.248C60.5751 20.376 60.5431 20.5147 60.6498 20.664C60.7138 20.7707 60.7991 20.9307 60.9058 21.144C61.0338 21.336 61.1298 21.4853 61.1938 21.592ZM61.2898 19.608C61.3538 19.8 61.4711 19.864 61.6418 19.8C61.8338 19.736 61.9084 19.6187 61.8658 19.448C61.8018 19.256 61.7164 18.968 61.6098 18.584C61.5458 18.392 61.4284 18.328 61.2578 18.392C61.0658 18.456 60.9911 18.5733 61.0338 18.744C61.0764 18.8507 61.1618 19.1387 61.2898 19.608ZM62.0258 18.808C62.1111 18.9787 62.2391 19.0107 62.4098 18.904C62.5591 18.8187 62.5911 18.6907 62.5058 18.52C62.4631 18.4133 62.4204 18.3067 62.3778 18.2C62.3564 18.1787 62.3351 18.1573 62.3138 18.136C62.3138 18.0933 62.3138 18.0613 62.3138 18.04C62.3138 18.04 62.3031 18.04 62.2818 18.04C62.2818 18.0187 62.2818 18.008 62.2818 18.008C62.2818 18.008 62.2818 17.9973 62.2818 17.976C62.2604 17.9547 62.2498 17.944 62.2498 17.944C62.1431 17.6453 62.0684 17.432 62.0258 17.304C61.9618 17.112 61.8444 17.0373 61.6738 17.08C61.4818 17.1653 61.4178 17.2933 61.4818 17.464C61.6311 17.912 61.8124 18.36 62.0258 18.808ZM64.2018 16.504C64.2018 16.44 64.1698 16.376 64.1058 16.312C64.0418 16.248 63.9778 16.216 63.9138 16.216C63.7218 16.216 63.6258 16.312 63.6258 16.504C63.6258 16.9093 63.6791 17.304 63.7858 17.688C63.8284 17.88 63.9458 17.944 64.1378 17.88C64.3298 17.816 64.3938 17.6987 64.3298 17.528C64.3298 17.5067 64.3191 17.464 64.2978 17.4C64.2764 17.336 64.2658 17.2933 64.2658 17.272C64.2658 17.2507 64.2551 17.2293 64.2338 17.208C64.2338 17.1653 64.2338 17.144 64.2338 17.144C64.2338 17.1227 64.2338 17.112 64.2338 17.112C64.2338 17.0907 64.2338 17.0693 64.2338 17.048C64.2338 17.048 64.2338 17.0373 64.2338 17.016V17.048C64.2338 17.048 64.2231 16.9627 64.2018 16.792C64.2018 16.6853 64.2018 16.5893 64.2018 16.504ZM62.8898 21.304C62.9538 21.496 63.0711 21.5707 63.2418 21.528C63.4338 21.464 63.5084 21.3467 63.4658 21.176C63.4018 20.984 63.3484 20.8133 63.3058 20.664C63.3058 20.6213 63.2951 20.536 63.2738 20.408C63.2524 20.3653 63.2418 20.3227 63.2418 20.28C63.2418 20.28 63.2418 20.2693 63.2418 20.248C63.2418 20.2267 63.2311 20.216 63.2098 20.216V20.184C63.2098 20.0987 63.1884 20.0347 63.1458 19.992C63.0818 19.928 63.0071 19.896 62.9218 19.896C62.8364 19.9173 62.7724 19.9493 62.7298 19.992C62.6658 20.0773 62.6338 20.1413 62.6338 20.184C62.6978 20.6107 62.7831 20.984 62.8898 21.304ZM63.6898 19.192C63.7751 19.1707 63.8284 19.1173 63.8498 19.032C63.8924 18.968 63.9031 18.904 63.8818 18.84C63.8604 18.7547 63.8284 18.648 63.7858 18.52C63.7431 18.3707 63.7218 18.264 63.7218 18.2C63.6791 18.136 63.6364 18.0827 63.5938 18.04C63.5084 17.9973 63.4338 17.9867 63.3698 18.008C63.2844 18.0293 63.2204 18.072 63.1778 18.136C63.1564 18.2213 63.1458 18.296 63.1458 18.36C63.1671 18.424 63.1991 18.5307 63.2418 18.68C63.2844 18.808 63.3164 18.904 63.3378 18.968C63.3591 19.0533 63.4018 19.1173 63.4658 19.16C63.5298 19.2027 63.6044 19.2133 63.6898 19.192ZM64.6498 21.816C64.6498 21.7947 64.6604 21.7733 64.6818 21.752C64.6818 21.7093 64.6711 21.6667 64.6498 21.624C64.6498 21.56 64.6391 21.496 64.6178 21.432C64.6178 21.3893 64.5964 21.3467 64.5538 21.304C64.5538 21.304 64.5324 21.2827 64.4897 21.24C64.4684 21.24 64.4258 21.2293 64.3618 21.208C64.3191 21.208 64.2871 21.208 64.2658 21.208C64.2444 21.208 64.2231 21.2187 64.2018 21.24C64.1378 21.2827 64.1058 21.3147 64.1058 21.336C64.0844 21.3573 64.0738 21.3893 64.0738 21.432C64.0524 21.4747 64.0417 21.528 64.0417 21.592C64.0631 21.6347 64.0951 21.688 64.1378 21.752C64.1378 21.7947 64.1484 21.8267 64.1698 21.848C64.1911 21.8907 64.2231 21.912 64.2658 21.912C64.2871 21.9547 64.3191 21.976 64.3618 21.976C64.4044 21.976 64.4471 21.9653 64.4897 21.944C64.5111 21.944 64.5324 21.9333 64.5538 21.912C64.5964 21.8907 64.6284 21.8587 64.6498 21.816ZM64.5218 20.472C64.7138 20.5147 64.8311 20.4507 64.8738 20.28C64.9804 19.896 65.0338 19.5013 65.0338 19.096C65.0338 19.0533 65.0231 19.0107 65.0018 18.968C64.9804 18.904 64.9484 18.8613 64.9058 18.84C64.8631 18.8187 64.8098 18.808 64.7458 18.808C64.5751 18.808 64.4791 18.904 64.4578 19.096C64.4578 19.224 64.4578 19.3093 64.4578 19.352C64.4578 19.3733 64.4578 19.4053 64.4578 19.448C64.4578 19.4693 64.4578 19.4907 64.4578 19.512C64.4578 19.512 64.4471 19.5227 64.4258 19.544C64.4258 19.5653 64.4258 19.576 64.4258 19.576C64.4258 19.576 64.4258 19.5867 64.4258 19.608V19.576C64.4258 19.6187 64.4151 19.672 64.3938 19.736C64.3938 19.8 64.3938 19.8427 64.3938 19.864C64.3724 19.928 64.3511 20.0133 64.3298 20.12C64.2658 20.312 64.3298 20.4293 64.5218 20.472ZM66.0898 16.728C65.8978 16.6853 65.7698 16.7493 65.7058 16.92C65.5778 17.3467 65.4818 17.8053 65.4178 18.296C65.4178 18.36 65.4498 18.424 65.5138 18.488C65.5778 18.552 65.6418 18.584 65.7058 18.584C65.8764 18.5627 65.9724 18.4667 65.9938 18.296C65.9938 18.296 65.9938 18.2853 65.9938 18.264C65.9938 18.2427 65.9938 18.232 65.9938 18.232C66.0151 18.2107 66.0258 18.1893 66.0258 18.168C66.0258 18.168 66.0258 18.1467 66.0258 18.104C66.0258 18.0613 66.0258 18.04 66.0258 18.04C66.0471 17.9333 66.0684 17.816 66.0898 17.688C66.1324 17.496 66.1964 17.2933 66.2818 17.08C66.3458 16.888 66.2818 16.7707 66.0898 16.728ZM65.8978 21.432C66.0471 20.8133 66.1751 20.2907 66.2818 19.864C66.3244 19.6507 66.2604 19.5333 66.0898 19.512C65.8978 19.448 65.7804 19.512 65.7378 19.704C65.6951 19.8747 65.6311 20.1413 65.5458 20.504C65.4604 20.8453 65.3964 21.112 65.3538 21.304C65.3111 21.496 65.3751 21.6133 65.5458 21.656C65.7378 21.6987 65.8551 21.624 65.8978 21.432ZM73.6223 3.32H73.5903H73.6223ZM68.6623 5.944C68.5129 5.85867 68.4276 5.70933 68.4062 5.496C68.3636 5.28267 68.3956 5.10133 68.5023 4.952C68.6516 4.696 68.9396 4.472 69.3663 4.28C69.1743 4.36533 68.9823 4.30133 68.7903 4.088C68.6196 3.85333 68.5236 3.608 68.5023 3.352C68.5023 3.07467 68.5769 2.85067 68.7263 2.68C68.8756 2.552 69.1423 2.424 69.5263 2.296C68.7369 2.08267 68.3529 1.76267 68.3742 1.336C68.3956 1.03733 68.5769 0.823999 68.9183 0.695999C69.0889 0.631999 69.3769 0.589332 69.7823 0.567999C70.8063 0.567999 71.9156 0.578665 73.1102 0.599998C74.3049 0.621332 75.2329 0.631998 75.8943 0.631998C76.5983 0.631998 77.3449 0.621332 78.1343 0.599998C78.9449 0.578665 79.7023 0.567999 80.4063 0.567999C81.1103 0.567999 81.8676 0.567999 82.6783 0.567999C83.0836 0.589332 83.3716 0.631999 83.5423 0.695999C83.8623 0.823999 84.0329 1.03733 84.0543 1.336C84.0969 1.76267 83.7236 2.08267 82.9343 2.296C83.2969 2.424 83.5529 2.552 83.7023 2.68C83.8516 2.85067 83.9156 3.07467 83.8943 3.352C83.8943 3.608 83.7983 3.85333 83.6063 4.088C83.4356 4.30133 83.2543 4.36533 83.0623 4.28C83.5103 4.472 83.8089 4.696 83.9583 4.952C84.0649 5.10133 84.0969 5.28267 84.0543 5.496C84.0329 5.70933 83.9369 5.85867 83.7663 5.944C83.6596 6.008 83.4889 6.05067 83.2543 6.072C81.7396 6.2 80.5023 6.264 79.5423 6.264C79.2649 6.264 79.0836 6.31733 78.9983 6.424C78.9129 6.53067 78.8703 6.68 78.8703 6.872C78.7849 9.51733 78.7423 11.064 78.7423 11.512C78.7423 11.9173 78.7316 12.5573 78.7103 13.432C78.7529 15.672 78.7743 17.0693 78.7743 17.624C78.7743 18.072 78.7636 18.5307 78.7423 19C78.7423 19.128 78.7316 19.3413 78.7103 19.64C78.7103 19.7253 78.7209 19.9493 78.7423 20.312C78.7636 20.6533 78.7743 20.9627 78.7743 21.24C78.7743 21.496 78.7423 21.7627 78.6783 22.04C78.6356 22.296 78.5396 22.4667 78.3903 22.552C78.2836 22.616 78.1769 22.648 78.0703 22.648C77.9849 22.6907 77.8889 22.712 77.7823 22.712C77.6329 22.712 77.4943 22.6373 77.3663 22.488C77.0889 22.296 76.8969 22.008 76.7903 21.624C76.7689 21.7093 76.7476 21.7947 76.7263 21.88C76.6409 22.1147 76.4916 22.3067 76.2783 22.456V22.488C76.2143 22.5307 76.1289 22.5627 76.0223 22.584C76.0009 22.6053 75.9583 22.616 75.8943 22.616C75.8516 22.616 75.8089 22.6053 75.7663 22.584C75.7023 22.584 75.6276 22.552 75.5423 22.488L75.5103 22.456C75.3183 22.3067 75.1796 22.1147 75.0943 21.88C75.0729 21.7947 75.0516 21.7093 75.0303 21.624C74.9236 22.008 74.7316 22.296 74.4543 22.488C74.3263 22.6373 74.1769 22.712 74.0063 22.712C73.9209 22.712 73.8356 22.6907 73.7503 22.648C73.6436 22.648 73.5369 22.616 73.4303 22.552C73.2809 22.4667 73.1743 22.296 73.1102 22.04C73.0676 21.7627 73.0463 21.496 73.0463 21.24C73.0463 20.9627 73.0569 20.6533 73.0783 20.312C73.0996 19.9707 73.0996 19.7467 73.0783 19.64C73.0783 19.576 73.0783 19.4693 73.0783 19.32C73.0783 19.1707 73.0783 19.064 73.0783 19C73.0569 18.5947 73.0463 18.136 73.0463 17.624C73.0463 16.92 73.0676 15.5227 73.1102 13.432C73.1102 13.0267 73.0996 12.3867 73.0783 11.512C73.0783 10.9787 73.0356 9.432 72.9503 6.872C72.9503 6.65867 72.9183 6.50933 72.8543 6.424C72.7476 6.31733 72.5449 6.264 72.2463 6.264C71.9689 6.264 71.7343 6.264 71.5423 6.264C71.3503 6.264 71.1903 6.264 71.0623 6.264C70.9556 6.264 70.8383 6.25333 70.7103 6.232C70.5823 6.21067 70.4649 6.2 70.3583 6.2C70.2516 6.17867 70.0916 6.15733 69.8783 6.136C69.6649 6.11467 69.4303 6.09333 69.1743 6.072C68.9396 6.05067 68.7689 6.008 68.6623 5.944ZM74.2623 4.664C74.3049 4.45067 74.2409 4.32267 74.0703 4.28C73.6863 4.216 73.3236 4.19467 72.9823 4.216C72.8969 4.23733 72.8329 4.26933 72.7903 4.312C72.7263 4.35467 72.6943 4.42933 72.6943 4.536C72.6943 4.6 72.7263 4.664 72.7903 4.728C72.8543 4.792 72.9183 4.81333 72.9823 4.792C73.2383 4.792 73.4943 4.80267 73.7503 4.824C73.8143 4.824 73.8676 4.83467 73.9103 4.856C73.9956 4.87733 74.0703 4.86667 74.1343 4.824C74.1983 4.78133 74.2409 4.728 74.2623 4.664ZM77.5263 4.056C77.5049 4.07733 77.4836 4.10933 77.4623 4.152C77.4196 4.216 77.4089 4.29067 77.4303 4.376C77.4516 4.46133 77.4943 4.51467 77.5583 4.536C77.5796 4.55733 77.6009 4.568 77.6223 4.568C77.6436 4.568 77.6756 4.568 77.7183 4.568C77.7823 4.568 77.8463 4.568 77.9103 4.568C77.9743 4.58933 78.0489 4.61067 78.1343 4.632C78.1556 4.632 78.1876 4.632 78.2303 4.632C78.2729 4.632 78.3049 4.62133 78.3263 4.6C78.4116 4.55733 78.4649 4.504 78.4863 4.44C78.4863 4.35467 78.4756 4.28 78.4543 4.216C78.4329 4.19467 78.4116 4.17333 78.3903 4.152C78.3476 4.10933 78.3049 4.088 78.2623 4.088C78.1769 4.04533 78.0703 4.01333 77.9423 3.992C77.8783 3.992 77.7716 4.00267 77.6223 4.024C77.6009 4.024 77.5689 4.03467 77.5263 4.056ZM73.8783 2.808C73.4729 2.63733 73.0569 2.56267 72.6302 2.584C72.4383 2.60533 72.3423 2.70133 72.3423 2.872C72.3423 2.95733 72.3743 3.032 72.4383 3.096C72.5023 3.13867 72.5663 3.16 72.6302 3.16C72.7583 3.16 72.8543 3.16 72.9183 3.16C72.9396 3.16 72.9609 3.16 72.9823 3.16C73.0036 3.16 73.0249 3.16 73.0463 3.16C73.0463 3.16 73.0569 3.16 73.0783 3.16C73.0783 3.16 73.0996 3.17067 73.1423 3.192C73.2489 3.192 73.3343 3.20267 73.3983 3.224C73.3983 3.24533 73.4089 3.26667 73.4303 3.288C73.4729 3.288 73.4943 3.288 73.4943 3.288C73.5156 3.288 73.5476 3.29867 73.5903 3.32H73.6223C73.6863 3.34133 73.7503 3.352 73.8143 3.352C73.8996 3.30933 73.9636 3.26667 74.0063 3.224C74.0916 3.032 74.0489 2.89333 73.8783 2.808ZM72.1183 5.432C72.2036 5.38933 72.2463 5.336 72.2463 5.272C72.2676 5.22933 72.2676 5.18667 72.2463 5.144C72.2463 5.08 72.2249 5.02667 72.1823 4.984C72.1609 4.94133 72.1183 4.92 72.0543 4.92C71.6063 4.856 71.1476 4.83467 70.6783 4.856C70.4863 4.87733 70.3903 4.97333 70.3903 5.144C70.4116 5.336 70.5076 5.432 70.6783 5.432C70.8703 5.41067 71.0836 5.41067 71.3183 5.432C71.4249 5.432 71.5316 5.432 71.6383 5.432C71.6596 5.432 71.7023 5.44267 71.7663 5.464C71.7876 5.464 71.8089 5.464 71.8303 5.464H71.8623C71.8623 5.464 71.8729 5.464 71.8943 5.464C71.9796 5.48533 72.0543 5.47467 72.1183 5.432ZM71.6703 1.464C71.5209 1.464 71.2969 1.47467 70.9983 1.496C70.7209 1.51733 70.5183 1.528 70.3903 1.528C70.1769 1.54933 70.0809 1.64533 70.1023 1.816C70.1023 1.90133 70.1236 1.976 70.1663 2.04C70.2303 2.104 70.3049 2.12533 70.3903 2.104C70.6676 2.08267 71.0943 2.06133 71.6703 2.04C71.8623 2.01867 71.9583 1.92267 71.9583 1.752C71.9583 1.53867 71.8623 1.44267 71.6703 1.464ZM71.1903 3.192C71.0409 3.192 70.8169 3.20267 70.5182 3.224C70.2409 3.24533 70.0276 3.256 69.8783 3.256C69.6863 3.27733 69.5903 3.37333 69.5903 3.544C69.5903 3.58667 69.6009 3.62933 69.6223 3.672C69.6436 3.69333 69.6649 3.72533 69.6863 3.768C69.7076 3.78933 69.7396 3.81067 69.7823 3.832C69.8249 3.832 69.8569 3.832 69.8783 3.832C70.0276 3.832 70.2409 3.82133 70.5182 3.8C70.8169 3.77867 71.0409 3.768 71.1903 3.768C71.3823 3.768 71.4783 3.672 71.4783 3.48C71.4569 3.26667 71.3609 3.17067 71.1903 3.192Z" fill="white"/>
</svg>
