<svg width="80" height="23" viewBox="0 0 80 23" fill="none" xmlns="http://www.w3.org/2000/svg">
<path d="M13.032 2.392C13.1387 1.88 13.3627 1.47467 13.704 1.176C14.0667 0.877332 14.408 1.00533 14.728 1.56C14.8133 1.752 14.8667 1.98667 14.888 2.264C14.9307 2.52 14.952 2.81867 14.952 3.16C14.952 3.50133 14.9627 3.75733 14.984 3.928C15.048 4.54667 15.0693 5.656 15.048 7.256C15.0267 8.83467 14.984 10.424 14.92 12.024C14.8987 12.5573 14.8987 13.0587 14.92 13.528C14.9413 13.976 14.9307 14.4773 14.888 15.032C14.8667 15.5867 14.8027 16.0773 14.696 16.504C14.184 18.4667 13.3947 19.9493 12.328 20.952C10.9413 22.2533 9.17067 22.8613 7.016 22.776C6.14133 22.7547 5.352 22.616 4.648 22.36C4.54133 22.3173 4.37067 22.264 4.136 22.2C3.92267 22.1147 3.74133 22.0507 3.592 22.008C3.464 21.9653 3.304 21.9013 3.112 21.816C2.94133 21.7093 2.80267 21.592 2.696 21.464C1.928 20.6533 1.42667 19.6827 1.192 18.552C0.978667 17.4213 1.07467 16.3333 1.48 15.288C1.608 14.968 1.768 14.7653 1.96 14.68C2.216 14.552 2.472 14.616 2.728 14.872C2.87733 15 3.02667 15.2347 3.176 15.576C3.15467 15.4053 3.19733 15.2453 3.304 15.096C3.432 14.9253 3.58133 14.8187 3.752 14.776C4.11467 14.648 4.43467 14.7227 4.712 15C4.86133 15.1493 5 15.4053 5.128 15.768C5.32 15.2133 5.576 14.9147 5.896 14.872C6.13067 14.8507 6.32267 14.9467 6.472 15.16C6.64267 15.3733 6.74933 15.6187 6.792 15.896C6.81333 15.9173 6.824 15.96 6.824 16.024C6.86667 16.1733 6.888 16.3013 6.888 16.408C6.90933 16.4933 6.94133 16.6 6.984 16.728C7.048 16.8347 7.112 16.9307 7.176 17.016C7.24 17.1013 7.32533 17.176 7.432 17.24C7.752 17.3893 8.072 17.336 8.392 17.08C8.79733 16.7813 9.11733 16.0987 9.352 15.032C9.48 14.4773 9.55467 13.8907 9.576 13.272C9.61867 12.6533 9.64 11.9387 9.64 11.128C9.64 10.3173 9.65067 9.73067 9.672 9.368C9.71467 8.536 9.68267 7.352 9.576 5.816C9.49067 4.28 9.448 3.29867 9.448 2.872C9.42667 2.21067 9.46933 1.72 9.576 1.4C9.64 1.22933 9.71467 1.112 9.8 1.048C10.0133 0.855998 10.2053 0.781332 10.376 0.823999C10.568 0.866666 10.7387 0.994665 10.888 1.208C11.0587 1.4 11.1867 1.60266 11.272 1.816C11.3787 2.008 11.4533 2.18933 11.496 2.36C11.5387 2.06133 11.6027 1.77333 11.688 1.496C11.752 1.34667 11.816 1.25067 11.88 1.208C12.0293 1.10133 12.2213 1.12267 12.456 1.272C12.8613 1.54933 13.0533 1.92267 13.032 2.392ZM5.64 17.976C5.55467 17.8053 5.42667 17.7733 5.256 17.88C5.10667 17.9867 5.07467 18.1147 5.16 18.264C5.352 18.6267 5.49067 18.8933 5.576 19.064C5.68267 19.256 5.82133 19.2987 5.992 19.192C6.14133 19.0853 6.17333 18.9467 6.088 18.776C6.024 18.6693 5.93867 18.5307 5.832 18.36C5.74667 18.168 5.68267 18.04 5.64 17.976ZM2.536 16.824C2.536 16.7813 2.54667 16.728 2.568 16.664C2.61067 16.472 2.536 16.3547 2.344 16.312C2.152 16.2693 2.03467 16.3333 1.992 16.504C1.88533 16.9947 1.88533 17.4747 1.992 17.944C2.01333 18.0293 2.056 18.0933 2.12 18.136C2.20533 18.1787 2.28 18.1893 2.344 18.168C2.51467 18.104 2.57867 17.9867 2.536 17.816C2.536 17.7733 2.52533 17.72 2.504 17.656V17.624C2.504 17.6027 2.504 17.5707 2.504 17.528C2.504 17.464 2.504 17.368 2.504 17.24C2.504 17.176 2.504 17.0693 2.504 16.92C2.504 16.92 2.504 16.8987 2.504 16.856C2.52533 16.856 2.536 16.8453 2.536 16.824ZM3.624 20.44C3.70933 20.4187 3.77333 20.376 3.816 20.312C3.85867 20.2267 3.86933 20.152 3.848 20.088C3.82667 20.024 3.784 19.9707 3.72 19.928C3.69867 19.9067 3.67733 19.896 3.656 19.896C3.656 19.8747 3.656 19.864 3.656 19.864C3.57067 19.8 3.47467 19.7147 3.368 19.608C3.28267 19.48 3.22933 19.384 3.208 19.32C3.18667 19.256 3.13333 19.2133 3.048 19.192C2.96267 19.1707 2.888 19.1813 2.824 19.224C2.73867 19.2667 2.696 19.32 2.696 19.384C2.67467 19.4693 2.67467 19.544 2.696 19.608C2.86667 19.928 3.112 20.1947 3.432 20.408C3.47467 20.4507 3.53867 20.4613 3.624 20.44ZM3.976 18.68C4.01867 18.872 4.136 18.9467 4.328 18.904C4.49867 18.84 4.56267 18.7227 4.52 18.552C4.456 18.3173 4.38133 18.04 4.296 17.72C4.232 17.528 4.11467 17.464 3.944 17.528C3.752 17.592 3.688 17.7093 3.752 17.88C3.77333 17.9653 3.80533 18.104 3.848 18.296C3.89067 18.4667 3.93333 18.5947 3.976 18.68ZM4.584 16.6C4.648 16.4293 4.69067 16.312 4.712 16.248C4.73333 16.2053 4.73333 16.1627 4.712 16.12C4.712 16.0773 4.70133 16.0453 4.68 16.024C4.65867 15.9813 4.63733 15.9493 4.616 15.928C4.57333 15.9067 4.54133 15.8853 4.52 15.864C4.43467 15.864 4.36 15.8747 4.296 15.896C4.296 15.9173 4.28533 15.928 4.264 15.928C4.264 15.928 4.25333 15.9387 4.232 15.96C4.21067 15.9813 4.18933 16.024 4.168 16.088L4.04 16.44C4.01867 16.504 4.01867 16.5467 4.04 16.568C4.04 16.6107 4.05067 16.6427 4.072 16.664C4.09333 16.7067 4.11467 16.7387 4.136 16.76C4.15733 16.76 4.18933 16.7707 4.232 16.792C4.31733 16.8133 4.392 16.8133 4.456 16.792C4.47733 16.7707 4.49867 16.7493 4.52 16.728C4.56267 16.6853 4.584 16.6427 4.584 16.6ZM4.968 21.112C5.43733 21.4747 5.97067 21.6667 6.568 21.688C6.65333 21.688 6.728 21.656 6.792 21.592C6.856 21.528 6.87733 21.464 6.856 21.4C6.856 21.208 6.76 21.112 6.568 21.112C6.48267 21.0907 6.41867 21.08 6.376 21.08H6.344C6.32267 21.08 6.30133 21.08 6.28 21.08C6.28 21.08 6.26933 21.08 6.248 21.08C6.14133 21.0587 6.024 21.0267 5.896 20.984C5.87467 20.984 5.85333 20.984 5.832 20.984C5.832 20.9627 5.82133 20.952 5.8 20.952C5.8 20.952 5.78933 20.952 5.768 20.952C5.768 20.9307 5.768 20.92 5.768 20.92C5.74667 20.92 5.71467 20.9093 5.672 20.888C5.62933 20.8667 5.59733 20.856 5.576 20.856C5.49067 20.792 5.384 20.7173 5.256 20.632C5.192 20.5893 5.11733 20.5787 5.032 20.6C4.968 20.6213 4.91467 20.664 4.872 20.728C4.78667 20.8773 4.81867 21.0053 4.968 21.112ZM6.792 20.28C6.856 20.2373 6.89867 20.184 6.92 20.12C6.94133 20.0347 6.93067 19.96 6.888 19.896C6.86667 19.8533 6.856 19.832 6.856 19.832C6.81333 19.7893 6.77067 19.768 6.728 19.768C6.536 19.6827 6.33333 19.5973 6.12 19.512C6.03467 19.4907 5.96 19.5013 5.896 19.544C5.832 19.5867 5.77867 19.64 5.736 19.704C5.736 19.7893 5.74667 19.864 5.768 19.928C5.78933 19.928 5.8 19.9387 5.8 19.96C5.82133 19.9813 5.832 19.992 5.832 19.992C5.87467 20.0347 5.91733 20.056 5.96 20.056C6.088 20.12 6.29067 20.2053 6.568 20.312C6.632 20.3333 6.70667 20.3227 6.792 20.28ZM6.6 17.944C6.70667 18.1147 6.83467 18.1573 6.984 18.072C7.15467 17.9653 7.18667 17.8267 7.08 17.656C6.696 17.0373 6.408 16.568 6.216 16.248C6.10933 16.0773 5.97067 16.0453 5.8 16.152C5.65067 16.2587 5.62933 16.3867 5.736 16.536C6.09867 17.1547 6.38667 17.624 6.6 17.944ZM8.136 20.184C7.944 20.184 7.848 20.28 7.848 20.472C7.848 20.664 7.944 20.76 8.136 20.76C8.24267 20.76 8.31733 20.7173 8.36 20.632C8.424 20.5253 8.424 20.4293 8.36 20.344C8.31733 20.2373 8.24267 20.184 8.136 20.184ZM7.784 19.064C7.99733 19.0213 8.17867 18.9147 8.328 18.744C8.392 18.7013 8.424 18.6373 8.424 18.552C8.424 18.4667 8.392 18.4027 8.328 18.36C8.264 18.296 8.2 18.264 8.136 18.264C8.05067 18.264 7.976 18.296 7.912 18.36C7.89067 18.3813 7.88 18.392 7.88 18.392C7.816 18.4347 7.76267 18.4667 7.72 18.488C7.67733 18.5093 7.64533 18.52 7.624 18.52C7.53867 18.5413 7.47467 18.584 7.432 18.648C7.38933 18.7333 7.37867 18.808 7.4 18.872C7.44267 18.9573 7.496 19.0107 7.56 19.032C7.624 19.0747 7.69867 19.0853 7.784 19.064ZM25.5048 0.664C26.3368 0.834665 27.1154 1.16533 27.8408 1.656C28.5874 2.12533 29.1848 2.712 29.6328 3.416C30.2514 4.376 30.6461 5.66667 30.8168 7.288C30.9661 8.67467 31.0621 9.752 31.1048 10.52C31.1688 11.288 31.1794 12.248 31.1368 13.4C31.0941 14.552 30.9661 15.6293 30.7528 16.632C30.4328 18.04 29.8674 19.3093 29.0568 20.44C28.2674 21.5493 27.2541 22.2213 26.0168 22.456C25.0994 22.6267 24.2354 22.712 23.4248 22.712C22.6354 22.712 21.8461 22.6053 21.0568 22.392C20.2888 22.1787 19.6061 21.7947 19.0088 21.24C18.4328 20.664 18.0061 19.928 17.7288 19.032C17.3661 17.944 17.1101 16.792 16.9608 15.576C16.8114 14.3387 16.7474 13.176 16.7688 12.088C16.7901 11 16.8114 9.82667 16.8328 8.568C16.8754 7.224 17.0568 6.09333 17.3768 5.176C17.6114 4.45067 17.9634 3.75733 18.4328 3.096C19.1154 2.11467 20.1501 1.41067 21.5368 0.983999C22.9234 0.557333 24.2461 0.450666 25.5048 0.664ZM22.3368 8.376C22.2514 8.80267 22.2088 9.368 22.2088 10.072C22.1661 12.4827 22.2408 14.2533 22.4328 15.384C22.6888 16.984 23.3714 17.56 24.4808 17.112C25.0781 16.8773 25.4728 15.896 25.6648 14.168C25.7714 13.0587 25.7714 11.48 25.6648 9.432C25.6434 8.64267 25.5474 7.992 25.3767 7.48C25.1421 6.712 24.8008 6.25333 24.3528 6.104C24.0328 5.976 23.7021 6.02933 23.3608 6.264C23.0194 6.47733 22.7634 6.82933 22.5928 7.32C22.4648 7.66133 22.3794 8.01333 22.3368 8.376ZM22.5288 17.432C22.5074 17.3467 22.4541 17.2827 22.3688 17.24C22.3048 17.1973 22.2408 17.1867 22.1768 17.208C22.0061 17.272 21.9421 17.3893 21.9848 17.56C22.0914 18.0507 22.1661 18.4027 22.2088 18.616C22.2301 18.7013 22.2728 18.7653 22.3368 18.808C22.4221 18.8293 22.4968 18.8293 22.5608 18.808C22.7314 18.7653 22.7954 18.648 22.7528 18.456C22.7314 18.2853 22.6568 17.944 22.5288 17.432ZM18.8808 18.936C18.9021 19 18.9554 19.0427 19.0408 19.064C19.1261 19.0853 19.2008 19.0747 19.2648 19.032C19.3501 18.9893 19.4034 18.936 19.4248 18.872C19.4248 18.8293 19.4248 18.7973 19.4248 18.776C19.4248 18.7333 19.4141 18.6907 19.3928 18.648C19.3501 18.584 19.2968 18.488 19.2328 18.36C19.1901 18.232 19.1474 18.1467 19.1048 18.104C19.0834 18.04 19.0301 17.9867 18.9448 17.944C18.8594 17.9227 18.7848 17.9333 18.7208 17.976C18.6568 18.04 18.6141 18.0933 18.5928 18.136C18.5928 18.1573 18.5928 18.1787 18.5928 18.2C18.5928 18.2 18.5928 18.2107 18.5928 18.232C18.5928 18.2747 18.6034 18.3173 18.6248 18.36C18.6461 18.424 18.6674 18.488 18.6888 18.552C18.7314 18.616 18.7634 18.68 18.7848 18.744C18.8274 18.808 18.8594 18.872 18.8808 18.936ZM20.4808 21.496C20.5661 21.4533 20.6194 21.4 20.6408 21.336C20.7474 21.1653 20.7154 21.0373 20.5448 20.952C20.4594 20.9093 20.3634 20.856 20.2568 20.792C20.1501 20.7067 20.0648 20.6107 20.0008 20.504C19.9154 20.4187 19.8514 20.3333 19.8088 20.248C19.7874 20.1627 19.7341 20.1093 19.6488 20.088C19.5634 20.0667 19.4888 20.0773 19.4248 20.12C19.2754 20.2267 19.2434 20.3653 19.3288 20.536C19.5208 20.9413 19.8301 21.2507 20.2568 21.464C20.3421 21.4853 20.4168 21.496 20.4808 21.496ZM20.3208 17.88C20.5128 18.4987 20.6514 18.9467 20.7368 19.224C20.8008 19.416 20.9181 19.48 21.0888 19.416C21.2808 19.3733 21.3554 19.256 21.3128 19.064C21.2488 18.9147 21.1741 18.6907 21.0888 18.392C21.0034 18.072 20.9394 17.848 20.8968 17.72C20.8328 17.528 20.7154 17.464 20.5448 17.528C20.3528 17.5707 20.2781 17.688 20.3208 17.88ZM21.9528 21.432C22.1021 21.56 22.2408 21.56 22.3688 21.432C22.4968 21.2827 22.4968 21.144 22.3688 21.016C22.0274 20.7173 21.7714 20.4827 21.6008 20.312C21.4514 20.1627 21.3128 20.1627 21.1848 20.312C21.0568 20.4613 21.0568 20.5893 21.1848 20.696C21.2701 20.7813 21.3554 20.8667 21.4408 20.952C21.5261 21.0373 21.6114 21.1227 21.6968 21.208C21.8034 21.2933 21.8888 21.368 21.9528 21.432ZM23.2968 20.92C23.3821 20.92 23.4461 20.888 23.4888 20.824C23.5528 20.76 23.5848 20.696 23.5848 20.632C23.5848 20.5253 23.5528 20.4613 23.4888 20.44C23.4461 20.376 23.3608 20.3013 23.2328 20.216C23.1048 20.1093 23.0088 20.0347 22.9448 19.992C22.9234 19.9707 22.8914 19.9493 22.8488 19.928C22.8061 19.9067 22.7741 19.9067 22.7528 19.928C22.6674 19.928 22.6034 19.9493 22.5608 19.992C22.4968 20.056 22.4648 20.12 22.4648 20.184C22.4648 20.2907 22.4968 20.3653 22.5608 20.408C22.6248 20.4507 22.7101 20.5253 22.8168 20.632C22.9448 20.7173 23.0408 20.7813 23.1048 20.824C23.1261 20.8453 23.1581 20.8667 23.2008 20.888C23.2221 20.9093 23.2541 20.92 23.2968 20.92ZM23.7448 19.64C23.7448 19.7253 23.7768 19.8 23.8408 19.864C23.9048 19.9067 23.9688 19.928 24.0328 19.928C24.1181 19.928 24.1928 19.9067 24.2568 19.864C24.3208 19.7787 24.3421 19.704 24.3208 19.64C24.2994 19.2987 24.2781 19.032 24.2568 18.84C24.2568 18.7547 24.2354 18.6907 24.1927 18.648C24.1288 18.584 24.0541 18.552 23.9688 18.552C23.8834 18.5733 23.8194 18.6053 23.7768 18.648C23.7128 18.712 23.6808 18.776 23.6808 18.84C23.7021 19.032 23.7234 19.2987 23.7448 19.64ZM24.7048 22.072C24.7474 22.008 24.7794 21.944 24.8008 21.88C24.8434 21.816 24.8861 21.752 24.9288 21.688C24.9714 21.624 25.0034 21.5707 25.0248 21.528C25.0674 21.4427 25.0781 21.368 25.0568 21.304C25.0354 21.2187 24.9928 21.1547 24.9288 21.112C24.8434 21.0693 24.7688 21.0587 24.7048 21.08C24.6194 21.1227 24.5554 21.176 24.5128 21.24C24.4914 21.2827 24.4488 21.368 24.3848 21.496C24.3208 21.624 24.2674 21.72 24.2248 21.784C24.1821 21.848 24.1714 21.9227 24.1927 22.008C24.2141 22.072 24.2568 22.1253 24.3208 22.168C24.4061 22.2107 24.4808 22.2213 24.5448 22.2C24.6301 22.1573 24.6834 22.1147 24.7048 22.072ZM24.9928 18.744C25.0141 18.8293 25.0568 18.8827 25.1208 18.904C25.3128 19.0107 25.4408 18.9787 25.5048 18.808C25.5474 18.7013 25.6008 18.584 25.6648 18.456C25.7288 18.3067 25.7928 18.1573 25.8568 18.008C25.9208 17.8587 25.9741 17.7307 26.0168 17.624C26.0381 17.5387 26.0488 17.464 26.0488 17.4C26.0274 17.336 25.9848 17.2827 25.9208 17.24C25.7074 17.1333 25.5688 17.1653 25.5048 17.336C25.3981 17.6133 25.2381 18.008 25.0248 18.52C24.9821 18.584 24.9714 18.6587 24.9928 18.744ZM26.6568 21.784C26.6994 21.7627 26.7208 21.7307 26.7208 21.688C26.7208 21.6453 26.7208 21.6133 26.7208 21.592C26.7208 21.5493 26.7101 21.5067 26.6888 21.464C26.6461 21.4 26.5928 21.3573 26.5288 21.336C26.4434 21.3147 26.3688 21.3253 26.3048 21.368C26.1128 21.496 25.9634 21.6027 25.8568 21.688C25.8354 21.7093 25.8141 21.7307 25.7928 21.752C25.7501 21.7947 25.7288 21.8267 25.7288 21.848C25.7288 21.8907 25.7288 21.9333 25.7288 21.976C25.7288 22.0187 25.7394 22.0507 25.7608 22.072C25.8034 22.136 25.8568 22.1787 25.9208 22.2C26.0274 22.2213 26.1021 22.2107 26.1448 22.168C26.2514 22.104 26.4008 21.9973 26.5928 21.848C26.6141 21.848 26.6354 21.8267 26.6568 21.784ZM26.2728 20.472C26.4008 20.1947 26.5501 19.9387 26.7208 19.704C26.7208 19.704 26.7208 19.7147 26.7208 19.736C26.7634 19.672 26.7848 19.5973 26.7848 19.512C26.7848 19.4267 26.7634 19.3627 26.7208 19.32C26.6568 19.256 26.5821 19.224 26.4968 19.224C26.4114 19.224 26.3474 19.256 26.3048 19.32C26.0701 19.6187 25.8888 19.9067 25.7608 20.184C25.7181 20.2693 25.7074 20.344 25.7288 20.408C25.7501 20.472 25.7928 20.5253 25.8568 20.568C25.9421 20.6107 26.0168 20.6213 26.0808 20.6C26.1661 20.5787 26.2301 20.536 26.2728 20.472ZM26.8808 18.52C26.9234 18.584 26.9768 18.6267 27.0408 18.648C27.2541 18.6907 27.3821 18.616 27.4248 18.424C27.4461 18.3173 27.4674 18.1573 27.4888 17.944C27.5314 17.7093 27.5634 17.5387 27.5848 17.432C27.5848 17.3467 27.5741 17.2827 27.5528 17.24C27.5101 17.1547 27.4461 17.1013 27.3608 17.08C27.1688 17.0373 27.0514 17.112 27.0088 17.304C27.0088 17.4107 26.9874 17.5707 26.9448 17.784C26.9021 17.9973 26.8701 18.168 26.8488 18.296C26.8488 18.3813 26.8594 18.456 26.8808 18.52ZM27.5848 20.216C27.7554 20.3653 27.8941 20.3653 28.0008 20.216C28.3634 19.7893 28.5768 19.288 28.6408 18.712C28.6408 18.648 28.6088 18.584 28.5448 18.52C28.4808 18.456 28.4168 18.424 28.3528 18.424C28.1608 18.4453 28.0648 18.5413 28.0648 18.712C28.0648 18.7333 28.0541 18.7547 28.0328 18.776C28.0328 18.7973 28.0328 18.808 28.0328 18.808C28.0328 18.808 28.0328 18.8187 28.0328 18.84C28.0328 18.8827 28.0221 18.936 28.0008 19C27.9794 19.0853 27.9688 19.1387 27.9688 19.16C27.9474 19.2027 27.9368 19.2347 27.9368 19.256C27.9154 19.2773 27.9048 19.288 27.9048 19.288L27.8728 19.352C27.8728 19.352 27.8728 19.3627 27.8728 19.384C27.8728 19.4053 27.8621 19.416 27.8408 19.416C27.8408 19.4373 27.8301 19.4693 27.8088 19.512C27.7874 19.5333 27.7768 19.5547 27.7768 19.576C27.7341 19.64 27.7021 19.6933 27.6808 19.736C27.6594 19.7573 27.6381 19.768 27.6168 19.768L27.5848 19.8C27.4568 19.9707 27.4568 20.1093 27.5848 20.216ZM29.6648 17.912C29.6648 17.72 29.5688 17.624 29.3768 17.624C29.2061 17.624 29.1208 17.72 29.1208 17.912C29.1208 18.104 29.2061 18.2 29.3768 18.2C29.5688 18.2 29.6648 18.104 29.6648 17.912ZM46.3375 2.424C46.5935 2.424 46.8175 2.52 47.0095 2.712C47.2228 2.904 47.3402 3.128 47.3615 3.384C47.3615 3.53333 47.3295 3.672 47.2655 3.8C47.2228 3.90667 47.1482 4.01333 47.0415 4.12C46.9562 4.20533 46.8495 4.28 46.7215 4.344C46.6148 4.408 46.4975 4.44 46.3695 4.44C46.9028 4.67467 47.1375 4.952 47.0735 5.272C47.0095 5.592 46.6788 5.752 46.0815 5.752C45.6975 5.77333 45.1215 5.76267 44.3535 5.72C43.6068 5.67733 42.9242 5.66667 42.3055 5.688C41.6868 5.688 41.1215 5.74133 40.6095 5.848C39.6282 6.04 38.9242 6.47733 38.4975 7.16C38.2628 7.56533 38.0815 8.12 37.9535 8.824C37.8468 9.50667 37.7828 10.0507 37.7615 10.456C37.7402 10.84 37.7295 11.416 37.7295 12.184C37.6868 14.4453 37.9108 16.152 38.4015 17.304C38.5508 17.6453 38.7642 17.9227 39.0415 18.136C39.3188 18.3493 39.6175 18.4347 39.9375 18.392C40.4068 18.3067 40.7482 17.9867 40.9615 17.432C41.1322 16.9627 41.1855 16.4827 41.1215 15.992C41.0575 15.992 40.9508 15.992 40.8015 15.992C40.6735 15.992 40.5668 15.992 40.4815 15.992C40.4175 15.9707 40.3322 15.9493 40.2255 15.928C40.1402 15.9067 40.0548 15.864 39.9695 15.8C39.9055 15.736 39.8415 15.6613 39.7775 15.576C39.4788 15.0427 39.7348 14.52 40.5455 14.008C40.2895 13.9867 40.0548 13.88 39.8415 13.688C39.6495 13.496 39.5535 13.2827 39.5535 13.048C39.5322 12.8773 39.5642 12.7173 39.6495 12.568C39.7562 12.3973 39.8842 12.28 40.0335 12.216C40.2042 12.1307 40.3642 12.1093 40.5135 12.152C40.1508 11.896 39.9268 11.6613 39.8415 11.448C39.7562 11.2987 39.7348 11.1387 39.7775 10.968C39.8202 10.776 39.9162 10.648 40.0655 10.584C40.1508 10.5413 40.2788 10.52 40.4495 10.52C42.4122 10.5627 44.3855 10.712 46.3695 10.968C46.6468 11.0107 46.8282 11.0853 46.9135 11.192C46.9775 11.2987 47.0202 11.4587 47.0415 11.672C47.1055 12.5893 47.1375 13.6667 47.1375 14.904C47.1375 16.1413 47.0308 17.208 46.8175 18.104C46.6255 18.9147 46.1988 19.864 45.5375 20.952C45.4308 21.144 45.3135 21.3147 45.1855 21.464C45.0575 21.592 44.8975 21.7093 44.7055 21.816C44.5135 21.9227 44.3642 21.9973 44.2575 22.04C44.1722 22.0827 43.9802 22.1573 43.6815 22.264C43.3828 22.3707 43.2015 22.4347 43.1375 22.456C42.4122 22.7333 41.6015 22.8827 40.7055 22.904C38.4868 22.968 36.6842 22.3387 35.2975 21.016C34.2095 19.992 33.4095 18.4773 32.8975 16.472C32.7908 16.024 32.7162 15.5333 32.6735 15C32.6522 14.4453 32.6522 13.944 32.6735 13.496C32.6948 13.048 32.6948 12.5467 32.6735 11.992C32.4815 7.87467 33.3668 4.792 35.3295 2.744C35.8628 2.18933 36.4815 1.74133 37.1855 1.4C37.8895 1.03733 38.5508 0.781332 39.1695 0.631998C39.8095 0.482665 40.5668 0.407999 41.4415 0.407999C42.3162 0.386666 43.0522 0.397333 43.6495 0.439999C44.2468 0.482666 44.9935 0.557333 45.8895 0.664C46.3375 0.727999 46.6575 0.845332 46.8495 1.016C47.1268 1.272 47.1908 1.57067 47.0415 1.912C46.9135 2.232 46.6788 2.40267 46.3375 2.424ZM42.0495 18.296C42.2842 17.8693 42.4442 17.4213 42.5295 16.952C42.5295 16.8667 42.5188 16.792 42.4975 16.728C42.4548 16.664 42.4015 16.6213 42.3375 16.6C42.1242 16.5573 41.9962 16.6213 41.9535 16.792C41.9322 17.0267 41.8788 17.2507 41.7935 17.464C41.7935 17.4853 41.7828 17.5173 41.7615 17.56C41.7615 17.5813 41.7508 17.6027 41.7295 17.624C41.7295 17.624 41.7295 17.6453 41.7295 17.688L41.6975 17.72C41.6548 17.8053 41.6122 17.9013 41.5695 18.008C41.4628 18.2 41.4948 18.3387 41.6655 18.424C41.8362 18.5093 41.9642 18.4667 42.0495 18.296ZM43.0735 19.864C43.2868 19.6507 43.5002 19.3947 43.7135 19.096C43.7562 19.032 43.7668 18.968 43.7455 18.904C43.7242 18.7973 43.6815 18.7333 43.6175 18.712C43.5322 18.6693 43.4468 18.6587 43.3615 18.68C43.2975 18.7013 43.2442 18.744 43.2015 18.808C43.2015 18.8293 43.1802 18.8613 43.1375 18.904C43.1162 18.9467 43.0948 18.9787 43.0735 19C42.9455 19.1707 42.8068 19.32 42.6575 19.448C42.6148 19.512 42.5935 19.5867 42.5935 19.672C42.5935 19.7573 42.6148 19.8213 42.6575 19.864C42.8068 19.992 42.9455 19.992 43.0735 19.864ZM43.6815 17.752C43.7242 17.7093 43.7668 17.6453 43.8095 17.56C43.9375 17.2187 44.0015 16.8667 44.0015 16.504C44.0015 16.44 43.9695 16.376 43.9055 16.312C43.8628 16.248 43.7988 16.216 43.7135 16.216C43.5428 16.216 43.4468 16.312 43.4255 16.504C43.4255 16.6107 43.4255 16.7067 43.4255 16.792C43.3828 17.0053 43.3188 17.208 43.2335 17.4C43.2122 17.4853 43.2228 17.56 43.2655 17.624C43.3082 17.7093 43.3722 17.752 43.4575 17.752C43.5428 17.7733 43.6175 17.7733 43.6815 17.752ZM45.0255 19.064C45.3242 18.744 45.6122 18.392 45.8895 18.008C45.9108 17.944 45.9108 17.8693 45.8895 17.784C45.8682 17.6987 45.8255 17.6453 45.7615 17.624C45.6122 17.5173 45.4842 17.5493 45.3775 17.72C45.2922 17.8267 45.2282 17.912 45.1855 17.976C45.1855 17.9973 45.1642 18.0293 45.1215 18.072V18.104C45.1002 18.104 45.0895 18.104 45.0895 18.104C45.0682 18.1253 45.0575 18.1467 45.0575 18.168C44.9082 18.3387 44.7588 18.4987 44.6095 18.648C44.4815 18.7973 44.4815 18.936 44.6095 19.064C44.7588 19.192 44.8975 19.192 45.0255 19.064ZM44.7055 15C44.5135 15 44.4175 15.096 44.4175 15.288C44.4175 15.7147 44.4602 16.1307 44.5455 16.536C44.5882 16.728 44.7055 16.792 44.8975 16.728C45.0895 16.664 45.1535 16.5467 45.0895 16.376C45.0682 16.248 45.0575 16.152 45.0575 16.088C45.0362 16.024 45.0255 15.9813 45.0255 15.96C45.0255 15.9173 45.0255 15.8853 45.0255 15.864C45.0042 15.6933 44.9935 15.5013 44.9935 15.288C44.9935 15.2027 44.9615 15.128 44.8975 15.064C44.8335 15 44.7695 14.9787 44.7055 15ZM46.5615 13.848C46.5615 13.784 46.5188 13.7307 46.4335 13.688C46.3482 13.6453 46.2735 13.6347 46.2095 13.656C46.0602 13.6987 45.9962 13.816 46.0175 14.008C46.0388 14.136 46.0602 14.296 46.0815 14.488C46.1028 14.6587 46.1242 14.8293 46.1455 15C46.1668 15.1707 46.1882 15.3307 46.2095 15.48C46.2308 15.544 46.2735 15.5973 46.3375 15.64C46.4228 15.6827 46.4975 15.6933 46.5615 15.672C46.7322 15.6293 46.8068 15.512 46.7855 15.32C46.7642 15.1707 46.7215 14.936 46.6575 14.616C46.6148 14.2747 46.5828 14.0187 46.5615 13.848ZM45.6975 11.768C45.5482 11.7893 45.3242 11.8107 45.0255 11.832C44.7482 11.832 44.5348 11.832 44.3855 11.832C44.1935 11.8533 44.0975 11.9493 44.0975 12.12C44.1188 12.3333 44.2148 12.4293 44.3855 12.408C44.5348 12.408 44.7482 12.3973 45.0255 12.376C45.3242 12.3547 45.5482 12.344 45.6975 12.344C45.8895 12.344 45.9855 12.248 45.9855 12.056C45.9642 11.864 45.8682 11.768 45.6975 11.768ZM43.7775 13.528C43.6922 13.5067 43.5962 13.4747 43.4895 13.432C43.4255 13.3893 43.3508 13.3787 43.2655 13.4C43.2015 13.4213 43.1482 13.464 43.1055 13.528C43.0628 13.6133 43.0522 13.688 43.0735 13.752C43.0948 13.8373 43.1375 13.8907 43.2015 13.912C43.3508 13.9973 43.5108 14.0507 43.6815 14.072C43.7668 14.0933 43.8522 14.104 43.9375 14.104C43.9588 14.104 43.9802 14.104 44.0015 14.104C44.0442 14.104 44.0868 14.104 44.1295 14.104C44.1722 14.0827 44.2042 14.072 44.2255 14.072C44.2895 14.0507 44.3428 14.008 44.3855 13.944C44.4282 13.88 44.4388 13.8053 44.4175 13.72C44.3962 13.6347 44.3535 13.5813 44.2895 13.56C44.2895 13.56 44.2788 13.56 44.2575 13.56C44.2362 13.5387 44.2255 13.528 44.2255 13.528C44.2042 13.528 44.1722 13.528 44.1295 13.528C44.0228 13.528 43.9055 13.528 43.7775 13.528ZM41.9855 11.512C41.9002 11.5547 41.8468 11.6187 41.8255 11.704C41.8042 11.896 41.8788 12.0133 42.0495 12.056C42.3695 12.12 42.6788 12.1413 42.9775 12.12C43.0628 12.12 43.1268 12.088 43.1695 12.024C43.2335 11.9813 43.2655 11.9173 43.2655 11.832C43.2655 11.7467 43.2335 11.6827 43.1695 11.64C43.1268 11.576 43.0628 11.544 42.9775 11.544C42.7855 11.5653 42.5828 11.5547 42.3695 11.512C42.2842 11.512 42.2202 11.5013 42.1775 11.48C42.0922 11.48 42.0282 11.4907 41.9855 11.512ZM40.6095 13.176C40.5882 13.24 40.5988 13.304 40.6415 13.368C40.6842 13.4533 40.7375 13.5067 40.8015 13.528C41.2708 13.592 41.6228 13.6347 41.8575 13.656C41.9428 13.6773 42.0175 13.6667 42.0815 13.624C42.1455 13.5813 42.1882 13.528 42.2095 13.464C42.2308 13.3787 42.2202 13.304 42.1775 13.24C42.1348 13.1547 42.0815 13.112 42.0175 13.112C41.8895 13.0907 41.7082 13.0693 41.4735 13.048C41.2388 13.0053 41.0682 12.9733 40.9615 12.952C40.8762 12.952 40.8015 12.9627 40.7375 12.984C40.6735 13.0267 40.6308 13.0907 40.6095 13.176ZM41.4415 14.616C41.2708 14.5947 41.1535 14.6693 41.0895 14.84C41.0468 15.032 41.1215 15.1493 41.3135 15.192C41.5268 15.2347 41.7082 15.2773 41.8575 15.32C41.9215 15.3413 41.9642 15.3627 41.9855 15.384C41.9855 15.384 41.9962 15.384 42.0175 15.384C42.0388 15.384 42.0495 15.3947 42.0495 15.416C42.0495 15.416 42.0602 15.416 42.0815 15.416C42.1028 15.416 42.1242 15.4267 42.1455 15.448C42.1882 15.4693 42.2202 15.4907 42.2415 15.512C42.2842 15.512 42.3162 15.5227 42.3375 15.544C42.5082 15.6293 42.6362 15.5867 42.7215 15.416C42.8282 15.2453 42.7962 15.1173 42.6255 15.032C42.2628 14.84 41.8682 14.7013 41.4415 14.616ZM57.6298 0.664C58.4618 0.834665 59.2404 1.16533 59.9658 1.656C60.7124 2.12533 61.3098 2.712 61.7578 3.416C62.3764 4.376 62.7711 5.66667 62.9418 7.288C63.0911 8.67467 63.1871 9.752 63.2298 10.52C63.2938 11.288 63.3044 12.248 63.2618 13.4C63.2191 14.552 63.0911 15.6293 62.8778 16.632C62.5578 18.04 61.9924 19.3093 61.1818 20.44C60.3924 21.5493 59.3791 22.2213 58.1418 22.456C57.2244 22.6267 56.3604 22.712 55.5498 22.712C54.7604 22.712 53.9711 22.6053 53.1818 22.392C52.4138 22.1787 51.7311 21.7947 51.1338 21.24C50.5578 20.664 50.1311 19.928 49.8538 19.032C49.4911 17.944 49.2351 16.792 49.0858 15.576C48.9364 14.3387 48.8724 13.176 48.8938 12.088C48.9151 11 48.9364 9.82667 48.9578 8.568C49.0004 7.224 49.1818 6.09333 49.5018 5.176C49.7364 4.45067 50.0884 3.75733 50.5578 3.096C51.2404 2.11467 52.2751 1.41067 53.6618 0.983999C55.0484 0.557333 56.3711 0.450666 57.6298 0.664ZM54.4618 8.376C54.3764 8.80267 54.3338 9.368 54.3338 10.072C54.2911 12.4827 54.3658 14.2533 54.5578 15.384C54.8138 16.984 55.4964 17.56 56.6058 17.112C57.2031 16.8773 57.5978 15.896 57.7898 14.168C57.8964 13.0587 57.8964 11.48 57.7898 9.432C57.7684 8.64267 57.6724 7.992 57.5017 7.48C57.2671 6.712 56.9258 6.25333 56.4778 6.104C56.1578 5.976 55.8271 6.02933 55.4858 6.264C55.1444 6.47733 54.8884 6.82933 54.7178 7.32C54.5898 7.66133 54.5044 8.01333 54.4618 8.376ZM54.6538 17.432C54.6324 17.3467 54.5791 17.2827 54.4938 17.24C54.4298 17.1973 54.3658 17.1867 54.3018 17.208C54.1311 17.272 54.0671 17.3893 54.1098 17.56C54.2164 18.0507 54.2911 18.4027 54.3338 18.616C54.3551 18.7013 54.3978 18.7653 54.4618 18.808C54.5471 18.8293 54.6218 18.8293 54.6858 18.808C54.8564 18.7653 54.9204 18.648 54.8778 18.456C54.8564 18.2853 54.7818 17.944 54.6538 17.432ZM51.0058 18.936C51.0271 19 51.0804 19.0427 51.1658 19.064C51.2511 19.0853 51.3258 19.0747 51.3898 19.032C51.4751 18.9893 51.5284 18.936 51.5498 18.872C51.5498 18.8293 51.5498 18.7973 51.5498 18.776C51.5498 18.7333 51.5391 18.6907 51.5178 18.648C51.4751 18.584 51.4218 18.488 51.3578 18.36C51.3151 18.232 51.2724 18.1467 51.2298 18.104C51.2084 18.04 51.1551 17.9867 51.0698 17.944C50.9844 17.9227 50.9098 17.9333 50.8458 17.976C50.7818 18.04 50.7391 18.0933 50.7178 18.136C50.7178 18.1573 50.7178 18.1787 50.7178 18.2C50.7178 18.2 50.7178 18.2107 50.7178 18.232C50.7178 18.2747 50.7284 18.3173 50.7498 18.36C50.7711 18.424 50.7924 18.488 50.8138 18.552C50.8564 18.616 50.8884 18.68 50.9098 18.744C50.9524 18.808 50.9844 18.872 51.0058 18.936ZM52.6058 21.496C52.6911 21.4533 52.7444 21.4 52.7658 21.336C52.8724 21.1653 52.8404 21.0373 52.6698 20.952C52.5844 20.9093 52.4884 20.856 52.3818 20.792C52.2751 20.7067 52.1898 20.6107 52.1258 20.504C52.0404 20.4187 51.9764 20.3333 51.9338 20.248C51.9124 20.1627 51.8591 20.1093 51.7738 20.088C51.6884 20.0667 51.6138 20.0773 51.5498 20.12C51.4004 20.2267 51.3684 20.3653 51.4538 20.536C51.6458 20.9413 51.9551 21.2507 52.3818 21.464C52.4671 21.4853 52.5418 21.496 52.6058 21.496ZM52.4458 17.88C52.6378 18.4987 52.7764 18.9467 52.8618 19.224C52.9258 19.416 53.0431 19.48 53.2138 19.416C53.4058 19.3733 53.4804 19.256 53.4378 19.064C53.3738 18.9147 53.2991 18.6907 53.2138 18.392C53.1284 18.072 53.0644 17.848 53.0218 17.72C52.9578 17.528 52.8404 17.464 52.6698 17.528C52.4778 17.5707 52.4031 17.688 52.4458 17.88ZM54.0778 21.432C54.2271 21.56 54.3658 21.56 54.4938 21.432C54.6218 21.2827 54.6218 21.144 54.4938 21.016C54.1524 20.7173 53.8964 20.4827 53.7258 20.312C53.5764 20.1627 53.4378 20.1627 53.3098 20.312C53.1818 20.4613 53.1818 20.5893 53.3098 20.696C53.3951 20.7813 53.4804 20.8667 53.5658 20.952C53.6511 21.0373 53.7364 21.1227 53.8218 21.208C53.9284 21.2933 54.0138 21.368 54.0778 21.432ZM55.4218 20.92C55.5071 20.92 55.5711 20.888 55.6138 20.824C55.6778 20.76 55.7098 20.696 55.7098 20.632C55.7098 20.5253 55.6778 20.4613 55.6138 20.44C55.5711 20.376 55.4858 20.3013 55.3578 20.216C55.2298 20.1093 55.1338 20.0347 55.0698 19.992C55.0484 19.9707 55.0164 19.9493 54.9738 19.928C54.9311 19.9067 54.8991 19.9067 54.8778 19.928C54.7924 19.928 54.7284 19.9493 54.6858 19.992C54.6218 20.056 54.5898 20.12 54.5898 20.184C54.5898 20.2907 54.6218 20.3653 54.6858 20.408C54.7498 20.4507 54.8351 20.5253 54.9418 20.632C55.0698 20.7173 55.1658 20.7813 55.2298 20.824C55.2511 20.8453 55.2831 20.8667 55.3258 20.888C55.3471 20.9093 55.3791 20.92 55.4218 20.92ZM55.8698 19.64C55.8698 19.7253 55.9018 19.8 55.9658 19.864C56.0298 19.9067 56.0938 19.928 56.1578 19.928C56.2431 19.928 56.3178 19.9067 56.3818 19.864C56.4458 19.7787 56.4671 19.704 56.4458 19.64C56.4244 19.2987 56.4031 19.032 56.3818 18.84C56.3818 18.7547 56.3604 18.6907 56.3177 18.648C56.2538 18.584 56.1791 18.552 56.0938 18.552C56.0084 18.5733 55.9444 18.6053 55.9018 18.648C55.8378 18.712 55.8058 18.776 55.8058 18.84C55.8271 19.032 55.8484 19.2987 55.8698 19.64ZM56.8298 22.072C56.8724 22.008 56.9044 21.944 56.9258 21.88C56.9684 21.816 57.0111 21.752 57.0538 21.688C57.0964 21.624 57.1284 21.5707 57.1498 21.528C57.1924 21.4427 57.2031 21.368 57.1818 21.304C57.1604 21.2187 57.1178 21.1547 57.0538 21.112C56.9684 21.0693 56.8938 21.0587 56.8298 21.08C56.7444 21.1227 56.6804 21.176 56.6378 21.24C56.6164 21.2827 56.5738 21.368 56.5098 21.496C56.4458 21.624 56.3924 21.72 56.3498 21.784C56.3071 21.848 56.2964 21.9227 56.3177 22.008C56.3391 22.072 56.3818 22.1253 56.4458 22.168C56.5311 22.2107 56.6058 22.2213 56.6698 22.2C56.7551 22.1573 56.8084 22.1147 56.8298 22.072ZM57.1178 18.744C57.1391 18.8293 57.1818 18.8827 57.2458 18.904C57.4378 19.0107 57.5658 18.9787 57.6298 18.808C57.6724 18.7013 57.7258 18.584 57.7898 18.456C57.8538 18.3067 57.9178 18.1573 57.9818 18.008C58.0458 17.8587 58.0991 17.7307 58.1418 17.624C58.1631 17.5387 58.1738 17.464 58.1738 17.4C58.1524 17.336 58.1098 17.2827 58.0458 17.24C57.8324 17.1333 57.6938 17.1653 57.6298 17.336C57.5231 17.6133 57.3631 18.008 57.1498 18.52C57.1071 18.584 57.0964 18.6587 57.1178 18.744ZM58.7818 21.784C58.8244 21.7627 58.8458 21.7307 58.8458 21.688C58.8458 21.6453 58.8458 21.6133 58.8458 21.592C58.8458 21.5493 58.8351 21.5067 58.8138 21.464C58.7711 21.4 58.7178 21.3573 58.6538 21.336C58.5684 21.3147 58.4938 21.3253 58.4298 21.368C58.2378 21.496 58.0884 21.6027 57.9818 21.688C57.9604 21.7093 57.9391 21.7307 57.9178 21.752C57.8751 21.7947 57.8538 21.8267 57.8538 21.848C57.8538 21.8907 57.8538 21.9333 57.8538 21.976C57.8538 22.0187 57.8644 22.0507 57.8858 22.072C57.9284 22.136 57.9818 22.1787 58.0458 22.2C58.1524 22.2213 58.2271 22.2107 58.2698 22.168C58.3764 22.104 58.5258 21.9973 58.7178 21.848C58.7391 21.848 58.7604 21.8267 58.7818 21.784ZM58.3978 20.472C58.5258 20.1947 58.6751 19.9387 58.8458 19.704C58.8458 19.704 58.8458 19.7147 58.8458 19.736C58.8884 19.672 58.9098 19.5973 58.9098 19.512C58.9098 19.4267 58.8884 19.3627 58.8458 19.32C58.7818 19.256 58.7071 19.224 58.6218 19.224C58.5364 19.224 58.4724 19.256 58.4298 19.32C58.1951 19.6187 58.0138 19.9067 57.8858 20.184C57.8431 20.2693 57.8324 20.344 57.8538 20.408C57.8751 20.472 57.9178 20.5253 57.9818 20.568C58.0671 20.6107 58.1418 20.6213 58.2058 20.6C58.2911 20.5787 58.3551 20.536 58.3978 20.472ZM59.0058 18.52C59.0484 18.584 59.1018 18.6267 59.1658 18.648C59.3791 18.6907 59.5071 18.616 59.5498 18.424C59.5711 18.3173 59.5924 18.1573 59.6138 17.944C59.6564 17.7093 59.6884 17.5387 59.7098 17.432C59.7098 17.3467 59.6991 17.2827 59.6778 17.24C59.6351 17.1547 59.5711 17.1013 59.4858 17.08C59.2938 17.0373 59.1764 17.112 59.1338 17.304C59.1338 17.4107 59.1124 17.5707 59.0698 17.784C59.0271 17.9973 58.9951 18.168 58.9738 18.296C58.9738 18.3813 58.9844 18.456 59.0058 18.52ZM59.7098 20.216C59.8804 20.3653 60.0191 20.3653 60.1258 20.216C60.4884 19.7893 60.7018 19.288 60.7658 18.712C60.7658 18.648 60.7338 18.584 60.6698 18.52C60.6058 18.456 60.5418 18.424 60.4778 18.424C60.2858 18.4453 60.1898 18.5413 60.1898 18.712C60.1898 18.7333 60.1791 18.7547 60.1578 18.776C60.1578 18.7973 60.1578 18.808 60.1578 18.808C60.1578 18.808 60.1578 18.8187 60.1578 18.84C60.1578 18.8827 60.1471 18.936 60.1258 19C60.1044 19.0853 60.0938 19.1387 60.0938 19.16C60.0724 19.2027 60.0618 19.2347 60.0618 19.256C60.0404 19.2773 60.0298 19.288 60.0298 19.288L59.9978 19.352C59.9978 19.352 59.9978 19.3627 59.9978 19.384C59.9978 19.4053 59.9871 19.416 59.9658 19.416C59.9658 19.4373 59.9551 19.4693 59.9338 19.512C59.9124 19.5333 59.9018 19.5547 59.9018 19.576C59.8591 19.64 59.8271 19.6933 59.8058 19.736C59.7844 19.7573 59.7631 19.768 59.7418 19.768L59.7098 19.8C59.5818 19.9707 59.5818 20.1093 59.7098 20.216ZM61.7898 17.912C61.7898 17.72 61.6938 17.624 61.5018 17.624C61.3311 17.624 61.2458 17.72 61.2458 17.912C61.2458 18.104 61.3311 18.2 61.5018 18.2C61.6938 18.2 61.7898 18.104 61.7898 17.912ZM71.5505 5.944C70.4838 6.62667 71.3585 7.68267 74.1745 9.112C74.2598 9.13333 74.3665 9.18667 74.4945 9.272C74.8358 9.44267 75.0385 9.54933 75.1025 9.592C75.9345 10.1253 76.6812 10.7547 77.3425 11.48C78.2172 12.44 78.7825 13.56 79.0385 14.84C79.2945 16.0987 79.1985 17.3253 78.7505 18.52C78.6012 18.9467 78.4092 19.3733 78.1745 19.8C77.5132 20.8453 76.5958 21.6133 75.4225 22.104C74.2705 22.5947 73.0332 22.808 71.7105 22.744C70.3452 22.68 68.9478 22.328 67.5185 21.688C66.0892 21.0267 65.1398 20.1413 64.6705 19.032C64.5638 18.84 64.5212 18.616 64.5425 18.36C64.5638 18.104 64.6705 17.9333 64.8625 17.848C64.9692 17.7627 65.1505 17.7413 65.4065 17.784C65.6838 17.8053 65.8865 17.7947 66.0145 17.752V17.72C65.3532 16.8027 65.3638 16.28 66.0465 16.152C66.0678 16.152 66.0998 16.152 66.1425 16.152C66.3772 16.1093 66.7185 16.1947 67.1665 16.408C66.7825 15.9387 66.6225 15.416 66.6865 14.84C66.7718 14.264 67.1345 14.1573 67.7745 14.52C68.0732 14.6693 68.4998 14.9787 69.0545 15.448C69.6092 15.896 70.0252 16.2053 70.3025 16.376C71.0492 16.824 71.6572 17.0267 72.1265 16.984C72.4465 16.9627 72.7345 16.824 72.9905 16.568C73.2465 16.312 73.3425 16.0347 73.2785 15.736C73.2572 15.544 73.1398 15.3307 72.9265 15.096C72.3505 14.3707 71.3052 13.5813 69.7905 12.728C68.2972 11.8533 67.2838 11.1493 66.7505 10.616C65.7905 9.67733 65.2038 8.55733 64.9905 7.256C64.7772 5.93333 65.0118 4.68533 65.6945 3.512C66.3132 2.46667 67.1772 1.69866 68.2865 1.208C69.4172 0.717332 70.6438 0.493332 71.9665 0.535999C73.1825 0.578665 74.4092 0.845332 75.6465 1.336C77.4172 2.01867 78.4945 2.62667 78.8785 3.16C78.9852 3.30933 79.0385 3.448 79.0385 3.576C79.0598 3.68266 79.0278 3.77866 78.9425 3.864C78.8572 3.928 78.7612 3.98133 78.6545 4.024C78.5692 4.06667 78.4412 4.09867 78.2705 4.12C78.0998 4.14133 77.9612 4.16267 77.8545 4.184C77.7692 4.184 77.6625 4.184 77.5345 4.184C77.8332 4.41867 78.0358 4.728 78.1425 5.112C78.1852 5.32533 78.1745 5.48533 78.1105 5.592C78.0465 5.69867 77.9185 5.77333 77.7265 5.816C77.3852 5.92267 77.0225 5.96533 76.6385 5.944C76.9798 6.15733 77.2145 6.33867 77.3425 6.488C77.5558 6.78667 77.5878 7.064 77.4385 7.32C77.3105 7.55467 77.0758 7.672 76.7345 7.672C76.5425 7.672 76.2758 7.59733 75.9345 7.448C75.8492 7.40533 75.4438 7.192 74.7185 6.808C74.0145 6.40267 73.3745 6.11467 72.7985 5.944C72.2438 5.752 71.8278 5.752 71.5505 5.944ZM70.3025 18.488C70.2385 18.4453 70.1318 18.3813 69.9825 18.296C69.8545 18.1893 69.7585 18.1147 69.6945 18.072C69.6305 18.0293 69.5558 18.0187 69.4705 18.04C69.3852 18.0613 69.3318 18.104 69.3105 18.168C69.2678 18.232 69.2572 18.3067 69.2785 18.392C69.2785 18.392 69.2785 18.4027 69.2785 18.424C69.2785 18.424 69.2892 18.4347 69.3105 18.456C69.3318 18.4987 69.3638 18.5307 69.4065 18.552C69.4492 18.5947 69.5025 18.648 69.5665 18.712C69.6518 18.7547 69.7265 18.808 69.7905 18.872C69.8758 18.9147 69.9505 18.9573 70.0145 19C70.0785 19.0213 70.1532 19.032 70.2385 19.032C70.3238 18.9893 70.3772 18.936 70.3985 18.872C70.4412 18.808 70.4518 18.744 70.4305 18.68C70.4305 18.6373 70.4198 18.6053 70.3985 18.584C70.3772 18.5627 70.3452 18.5307 70.3025 18.488ZM68.7665 15.928C68.6598 15.7573 68.5212 15.7253 68.3505 15.832C68.2012 15.9387 68.1692 16.0773 68.2545 16.248C68.3185 16.3547 68.4145 16.536 68.5425 16.792C68.6918 17.0267 68.7985 17.208 68.8625 17.336C68.9692 17.528 69.0972 17.56 69.2465 17.432C69.4172 17.3467 69.4598 17.2187 69.3745 17.048C69.2252 16.8133 69.0225 16.44 68.7665 15.928ZM66.7825 17.144C66.7398 17.144 66.7078 17.1547 66.6865 17.176C66.6225 17.24 66.5905 17.3147 66.5905 17.4C66.5905 17.4 66.5905 17.4107 66.5905 17.432C66.6118 17.4533 66.6225 17.464 66.6225 17.464C66.6225 17.5067 66.6438 17.5493 66.6865 17.592C66.7078 17.6133 66.7292 17.6453 66.7505 17.688C66.7932 17.7307 66.8252 17.7733 66.8465 17.816C66.8892 17.8373 66.9212 17.8693 66.9425 17.912C66.9638 17.9333 66.9958 17.944 67.0385 17.944C67.0598 17.9653 67.0918 17.976 67.1345 17.976C67.1772 17.976 67.2198 17.9653 67.2625 17.944C67.2838 17.944 67.3158 17.9333 67.3585 17.912C67.4012 17.848 67.4225 17.7733 67.4225 17.688C67.4225 17.688 67.4225 17.6773 67.4225 17.656C67.4225 17.6347 67.4225 17.624 67.4225 17.624C67.4012 17.56 67.3692 17.5173 67.3265 17.496C67.3052 17.4533 67.2625 17.4 67.1985 17.336C67.1558 17.272 67.1238 17.2187 67.1025 17.176C67.0598 17.1547 67.0278 17.144 67.0065 17.144C66.9638 17.1227 66.9212 17.112 66.8785 17.112C66.8358 17.112 66.8038 17.1227 66.7825 17.144ZM67.0385 20.664C67.2305 20.7493 67.3692 20.7173 67.4545 20.568C67.5398 20.376 67.5078 20.2373 67.3585 20.152C67.1025 20.024 66.8678 19.8747 66.6545 19.704C66.6332 19.704 66.6118 19.704 66.5905 19.704C66.5905 19.6827 66.5905 19.672 66.5905 19.672C66.5692 19.672 66.5585 19.6613 66.5585 19.64C66.5372 19.64 66.5265 19.6293 66.5265 19.608C66.4838 19.5867 66.4305 19.544 66.3665 19.48C66.3452 19.4587 66.3132 19.4373 66.2705 19.416C66.2278 19.3733 66.1852 19.3307 66.1425 19.288C66.1212 19.2453 66.0892 19.2133 66.0465 19.192C65.9185 19.064 65.7905 19.064 65.6625 19.192C65.5345 19.3413 65.5345 19.48 65.6625 19.608C66.0678 20.0347 66.5265 20.3867 67.0385 20.664ZM67.4225 18.872C67.6998 19.1493 68.0092 19.3733 68.3505 19.544C68.4358 19.5653 68.5105 19.576 68.5745 19.576C68.6598 19.5333 68.7132 19.48 68.7345 19.416C68.7772 19.3307 68.7878 19.256 68.7665 19.192C68.7452 19.1067 68.7025 19.0533 68.6385 19.032C68.4465 18.9467 68.2652 18.84 68.0945 18.712C68.0305 18.6693 67.9452 18.5947 67.8385 18.488C67.7105 18.3387 67.5718 18.3387 67.4225 18.488C67.2945 18.616 67.2945 18.744 67.4225 18.872ZM70.0145 21.592C70.2065 21.6347 70.3238 21.5707 70.3665 21.4C70.4092 21.208 70.3452 21.0907 70.1745 21.048C69.8118 20.984 69.4492 20.8773 69.0865 20.728C69.0225 20.7067 68.9692 20.7067 68.9265 20.728C68.8838 20.728 68.8412 20.7493 68.7985 20.792C68.7558 20.8347 68.7238 20.8773 68.7025 20.92C68.6812 21.0907 68.7558 21.208 68.9265 21.272C69.2892 21.4213 69.6518 21.528 70.0145 21.592ZM71.2945 20.728C71.3585 20.6853 71.4012 20.632 71.4225 20.568C71.4438 20.4613 71.4332 20.3867 71.3905 20.344C71.3478 20.28 71.2838 20.2267 71.1985 20.184C70.9425 20.0773 70.6225 19.96 70.2385 19.832C70.1745 19.7893 70.0998 19.8 70.0145 19.864C69.9505 19.9067 69.9078 19.96 69.8865 20.024C69.8652 20.1093 69.8758 20.184 69.9185 20.248C69.9612 20.312 70.0145 20.3547 70.0785 20.376C70.3132 20.4613 70.6438 20.5893 71.0705 20.76C71.1345 20.7813 71.2092 20.7707 71.2945 20.728ZM70.7825 17.656C70.6972 17.8267 70.7292 17.9653 70.8785 18.072C71.2198 18.2853 71.5932 18.4347 71.9985 18.52C72.1905 18.5627 72.3078 18.4987 72.3505 18.328C72.3932 18.1147 72.3185 17.9973 72.1265 17.976C72.0198 17.9547 71.9345 17.9333 71.8705 17.912C71.8065 17.8907 71.7638 17.8693 71.7425 17.848C71.7212 17.848 71.6998 17.848 71.6785 17.848C71.6785 17.848 71.6785 17.8373 71.6785 17.816H71.6145H71.6465H71.5825C71.5825 17.7947 71.5718 17.784 71.5505 17.784C71.5505 17.784 71.5398 17.784 71.5185 17.784C71.4972 17.7627 71.4652 17.7413 71.4225 17.72C71.3585 17.6773 71.2732 17.624 71.1665 17.56C70.9958 17.4533 70.8678 17.4853 70.7825 17.656ZM72.6065 20.056C72.6492 20.056 72.6812 20.0347 72.7025 19.992C72.7665 19.928 72.7985 19.864 72.7985 19.8C72.7772 19.6933 72.7452 19.6187 72.7025 19.576C72.6812 19.576 72.6598 19.5653 72.6385 19.544C72.5958 19.5227 72.5425 19.512 72.4785 19.512C72.3718 19.4907 72.2118 19.4693 71.9985 19.448C71.9558 19.448 71.9238 19.4587 71.9025 19.48C71.8598 19.48 71.8278 19.4907 71.8065 19.512C71.7425 19.576 71.7105 19.6507 71.7105 19.736C71.7105 19.8213 71.7425 19.8853 71.8065 19.928C71.8278 19.9493 71.8492 19.96 71.8705 19.96C71.9132 20.0027 71.9558 20.024 71.9985 20.024C72.2332 20.0453 72.3932 20.0667 72.4785 20.088C72.5425 20.088 72.5852 20.0773 72.6065 20.056Z" fill="white"/>
</svg>
