<svg width="66" height="24" viewBox="0 0 66 24" fill="none" xmlns="http://www.w3.org/2000/svg">
<path d="M11.8 10.424C11.8427 10.3813 11.96 10.4347 12.152 10.584C12.3653 10.712 12.5573 10.8507 12.728 11C12.8987 11.128 13.0267 11.2347 13.112 11.32C13.624 11.7893 14.0293 12.3973 14.328 13.144C14.648 13.976 14.808 15.0427 14.808 16.344C14.808 17.752 14.6053 18.9787 14.2 20.024C13.5387 21.624 12.2373 22.52 10.296 22.712C9.74133 22.776 8.87733 22.7653 7.704 22.68C7.40533 22.6373 7.192 22.584 7.064 22.52C6.808 22.3707 6.69067 22.2 6.712 22.008C6.75467 21.7947 6.88267 21.6133 7.096 21.464C7.33067 21.2933 7.55467 21.2187 7.768 21.24C7.64 21.2187 7.384 21.1547 7 21.048C6.72267 20.9413 6.59467 20.76 6.616 20.504C6.65867 20.2267 6.78667 20.0133 7 19.864C7.17067 19.736 7.46933 19.6187 7.896 19.512C7.42667 19.4693 7.01067 19.2987 6.648 19C6.54133 18.9147 6.47733 18.84 6.456 18.776C6.37067 18.6267 6.38133 18.4667 6.488 18.296C6.616 18.1253 6.776 18.0187 6.968 17.976C7.07467 17.9547 7.192 17.944 7.32 17.944C7.448 17.9227 7.576 17.912 7.704 17.912C7.85333 17.912 7.98133 17.8907 8.088 17.848C8.57867 17.7413 8.888 17.432 9.016 16.92C9.144 16.408 9.112 15.9387 8.92 15.512C8.728 14.872 8.36533 14.3707 7.832 14.008C7.29867 13.624 6.72267 13.496 6.104 13.624C6.04 13.6453 5.98667 13.6667 5.944 13.688C5.92267 13.7307 5.90133 13.7947 5.88 13.88C5.85867 14.2 5.83733 14.6693 5.816 15.288C5.816 15.9067 5.80533 16.3547 5.784 16.632C5.76267 17.208 5.752 18.136 5.752 19.416C5.77333 20.6747 5.76267 21.6027 5.72 22.2C5.69867 22.584 5.58133 22.808 5.368 22.872C5.19733 22.936 5.00533 22.872 4.792 22.68C4.408 22.3387 4.22667 21.9973 4.248 21.656C4.184 22.104 4.01333 22.4453 3.736 22.68C3.37333 23 3.01067 23.064 2.648 22.872C2.30667 22.68 2.12533 22.232 2.104 21.528C1.976 21.8907 1.79467 22.2107 1.56 22.488C1.38933 22.6587 1.22933 22.7333 1.08 22.712C0.994667 22.6907 0.898667 22.616 0.792 22.488C0.536 22.0827 0.386667 21.592 0.344 21.016C0.301333 20.44 0.312 19.9173 0.376 19.448C0.397333 18.744 0.386667 17.5173 0.344 15.768C0.258667 9.21867 0.162667 4.6 0.056 1.912C0.0346667 1.57067 0.0773334 1.32533 0.184 1.176C0.333333 0.898665 0.717333 0.749332 1.336 0.727999C4.28 0.642665 6.30667 0.642665 7.416 0.727999C9.144 0.834665 10.616 1.208 11.832 1.848C12.7493 2.31733 13.3787 2.92533 13.72 3.672C13.8693 4.03467 13.976 4.52533 14.04 5.144C14.168 6.40267 14.0933 7.39467 13.816 8.12C13.752 8.248 13.688 8.376 13.624 8.504C13.56 8.632 13.4747 8.76 13.368 8.888C13.2613 9.016 13.176 9.12267 13.112 9.208C13.048 9.29333 12.9413 9.41067 12.792 9.56C12.6427 9.688 12.536 9.784 12.472 9.848C12.408 9.89067 12.2907 9.99733 12.12 10.168C11.9493 10.3173 11.8427 10.4027 11.8 10.424ZM11.928 16.504V16.536C11.9493 16.5573 11.96 16.5787 11.96 16.6C11.96 16.6213 11.96 16.6533 11.96 16.696C11.9813 16.7173 11.992 16.7387 11.992 16.76V16.792C11.992 16.8347 12.0027 16.856 12.024 16.856C12.024 16.9413 12.0133 17.0053 11.992 17.048V17.08C11.992 17.1013 11.992 17.1227 11.992 17.144C11.9707 17.2293 11.9493 17.2827 11.928 17.304C11.928 17.3253 11.928 17.336 11.928 17.336C11.9067 17.3573 11.896 17.3787 11.896 17.4C11.896 17.4213 11.8853 17.4533 11.864 17.496C11.8427 17.5173 11.8213 17.5387 11.8 17.56C11.7573 17.624 11.7467 17.6987 11.768 17.784C11.7893 17.8693 11.832 17.9227 11.896 17.944C12.0453 18.0293 12.1733 17.9973 12.28 17.848C12.664 17.336 12.7067 16.7813 12.408 16.184C12.3227 16.0133 12.1947 15.9813 12.024 16.088C11.8747 16.1947 11.8427 16.3227 11.928 16.472V16.504ZM1.176 20.792C1.368 20.8347 1.48533 20.7707 1.528 20.6C1.67733 20.0453 1.73067 19.4907 1.688 18.936C1.66667 18.7227 1.57067 18.6267 1.4 18.648C1.31467 18.648 1.24 18.68 1.176 18.744C1.112 18.7867 1.09067 18.8507 1.112 18.936C1.13333 19.2133 1.13333 19.4693 1.112 19.704C1.112 19.7467 1.112 19.8107 1.112 19.896L1.08 19.928V19.96C1.08 19.96 1.08 19.9813 1.08 20.024C1.08 20.0453 1.08 20.056 1.08 20.056C1.05867 20.184 1.02667 20.312 0.984 20.44C0.941333 20.632 1.00533 20.7493 1.176 20.792ZM1.464 17.848C1.656 17.848 1.752 17.752 1.752 17.56V15.896C1.752 15.832 1.72 15.768 1.656 15.704C1.592 15.64 1.528 15.608 1.464 15.608C1.272 15.6293 1.176 15.7253 1.176 15.896V17.56C1.176 17.6453 1.19733 17.72 1.24 17.784C1.304 17.8267 1.37867 17.848 1.464 17.848ZM2.616 20.952C2.63733 21.144 2.73333 21.24 2.904 21.24C2.98933 21.24 3.064 21.2187 3.128 21.176C3.192 21.112 3.21333 21.0373 3.192 20.952C3.14933 20.4827 3.13867 20.0347 3.16 19.608C3.16 19.5227 3.128 19.4587 3.064 19.416C3.02133 19.352 2.95733 19.32 2.872 19.32C2.70133 19.32 2.60533 19.416 2.584 19.608C2.56267 20.0347 2.57333 20.4827 2.616 20.952ZM3.064 18.84C3.23467 18.84 3.33067 18.744 3.352 18.552C3.37333 18.1467 3.352 17.752 3.288 17.368C3.26667 17.304 3.21333 17.2507 3.128 17.208C3.064 17.1653 3 17.1547 2.936 17.176C2.76533 17.2187 2.69067 17.336 2.712 17.528C2.712 17.528 2.712 17.5493 2.712 17.592C2.73333 17.6133 2.744 17.6347 2.744 17.656V17.688C2.744 17.688 2.744 17.7093 2.744 17.752C2.744 17.7733 2.75467 17.8587 2.776 18.008C2.776 18.2 2.776 18.3813 2.776 18.552C2.75467 18.616 2.776 18.68 2.84 18.744C2.904 18.808 2.97867 18.84 3.064 18.84ZM3.512 16.184C3.55467 16.12 3.576 16.0453 3.576 15.96V15.352C3.576 15.2667 3.55467 15.2027 3.512 15.16C3.448 15.096 3.37333 15.064 3.288 15.064C3.224 15.064 3.16 15.096 3.096 15.16C3.032 15.224 3 15.288 3 15.352V15.96C3 16.0453 3.032 16.12 3.096 16.184C3.16 16.248 3.224 16.2693 3.288 16.248C3.37333 16.248 3.448 16.2267 3.512 16.184ZM4.728 20.632C4.89867 20.6107 4.984 20.5147 4.984 20.344C5.02667 19.832 5.016 19.32 4.952 18.808C4.93067 18.5947 4.83467 18.4987 4.664 18.52C4.6 18.52 4.536 18.552 4.472 18.616C4.408 18.6587 4.376 18.7227 4.376 18.808C4.44 19.32 4.46133 19.832 4.44 20.344C4.41867 20.408 4.44 20.472 4.504 20.536C4.568 20.6 4.64267 20.632 4.728 20.632ZM4.504 17.368C4.504 17.5813 4.6 17.688 4.792 17.688C4.984 17.6667 5.08 17.56 5.08 17.368C5.05867 16.7707 4.984 16.152 4.856 15.512C4.856 15.4693 4.83467 15.4373 4.792 15.416C4.74933 15.3733 4.70667 15.3413 4.664 15.32C4.62133 15.2987 4.568 15.2987 4.504 15.32C4.33333 15.384 4.26933 15.5013 4.312 15.672C4.41867 16.2267 4.48267 16.792 4.504 17.368ZM5.944 8.6C6.52 8.6 7.01067 8.46133 7.416 8.184C7.84267 7.88533 8.12 7.46933 8.248 6.936C8.35467 6.44533 8.32267 5.83733 8.152 5.112C8.10933 4.83467 8.03467 4.632 7.928 4.504C7.84267 4.376 7.672 4.248 7.416 4.12C6.98933 3.928 6.49867 3.84267 5.944 3.864C5.83733 3.864 5.76267 3.88533 5.72 3.928C5.69867 3.97067 5.688 4.03467 5.688 4.12C5.66667 4.696 5.67733 5.57067 5.72 6.744C5.72 6.936 5.72 7.21333 5.72 7.576C5.74133 7.93867 5.76267 8.216 5.784 8.408C5.784 8.472 5.79467 8.52533 5.816 8.568C5.85867 8.58933 5.90133 8.6 5.944 8.6ZM11.8 18.744C11.864 18.7013 11.896 18.6373 11.896 18.552C11.896 18.4667 11.864 18.4027 11.8 18.36C11.672 18.232 11.544 18.232 11.416 18.36C11.288 18.4453 11.1173 18.584 10.904 18.776C10.6907 18.968 10.52 19.1067 10.392 19.192C10.3493 19.2347 10.328 19.2987 10.328 19.384C10.328 19.4693 10.3493 19.544 10.392 19.608C10.5413 19.7147 10.68 19.7147 10.808 19.608C11.256 19.224 11.5867 18.936 11.8 18.744ZM10.872 16.504C10.7867 16.5253 10.7227 16.568 10.68 16.632C10.5733 16.8667 10.4773 17.0693 10.392 17.24C10.3493 17.3253 10.3387 17.4 10.36 17.464C10.3813 17.5493 10.424 17.6027 10.488 17.624C10.552 17.6667 10.6267 17.6773 10.712 17.656C10.7973 17.6347 10.8507 17.592 10.872 17.528C10.936 17.4 11.0427 17.1973 11.192 16.92C11.2133 16.8347 11.224 16.76 11.224 16.696C11.2027 16.6107 11.1493 16.5573 11.064 16.536C11 16.4933 10.936 16.4827 10.872 16.504ZM10.36 15.032C10.3173 14.84 10.2 14.776 10.008 14.84C9.83733 14.8827 9.76267 15 9.784 15.192C9.80533 15.192 9.816 15.2133 9.816 15.256C9.816 15.2987 9.816 15.3307 9.816 15.352C9.816 15.352 9.82667 15.3627 9.848 15.384C9.848 15.4053 9.848 15.4267 9.848 15.448C9.848 15.576 9.848 15.6827 9.848 15.768C9.848 15.832 9.848 15.928 9.848 16.056C9.848 16.0987 9.848 16.12 9.848 16.12V16.184C9.82667 16.248 9.816 16.2907 9.816 16.312C9.77333 16.5253 9.83733 16.6533 10.008 16.696C10.2213 16.7387 10.3387 16.664 10.36 16.472C10.4453 15.9813 10.4453 15.5013 10.36 15.032ZM8.664 18.392C8.536 18.392 8.408 18.392 8.28 18.392C8.216 18.3707 8.152 18.392 8.088 18.456C8.024 18.52 7.992 18.5947 7.992 18.68C8.01333 18.8507 8.10933 18.9467 8.28 18.968C8.83467 19.032 9.37867 18.936 9.912 18.68C9.976 18.6373 10.0187 18.5733 10.04 18.488C10.0613 18.4027 10.0507 18.3387 10.008 18.296C9.92267 18.1467 9.79467 18.104 9.624 18.168C9.58133 18.1893 9.54933 18.2 9.528 18.2L9.496 18.232C9.41067 18.2747 9.35733 18.296 9.336 18.296C9.208 18.3387 9.08 18.3707 8.952 18.392H8.92C8.92 18.392 8.90933 18.392 8.888 18.392C8.86667 18.392 8.84533 18.392 8.824 18.392C8.80267 18.392 8.77067 18.392 8.728 18.392C8.70667 18.392 8.68533 18.392 8.664 18.392ZM7.992 20.28C7.992 20.3653 8.024 20.4293 8.088 20.472C8.152 20.5147 8.216 20.5467 8.28 20.568C8.36533 20.568 8.49333 20.5787 8.664 20.6C8.856 20.6213 8.99467 20.632 9.08 20.632C9.16533 20.632 9.22933 20.6 9.272 20.536C9.336 20.4933 9.368 20.4293 9.368 20.344C9.368 20.2587 9.336 20.1947 9.272 20.152C9.22933 20.088 9.16533 20.056 9.08 20.056C8.99467 20.056 8.856 20.0453 8.664 20.024C8.49333 20.0027 8.36533 19.992 8.28 19.992C8.216 19.9707 8.152 19.992 8.088 20.056C8.024 20.12 7.992 20.1947 7.992 20.28ZM9.336 21.912C9.86933 21.976 10.4027 21.912 10.936 21.72C11.128 21.6773 11.2027 21.5707 11.16 21.4C11.096 21.1867 10.9787 21.112 10.808 21.176C10.68 21.2187 10.552 21.2613 10.424 21.304C10.4027 21.304 10.3707 21.304 10.328 21.304C10.2853 21.304 10.264 21.3147 10.264 21.336C10.2427 21.336 10.2213 21.336 10.2 21.336C10.1787 21.336 10.168 21.336 10.168 21.336C10.168 21.336 10.1573 21.336 10.136 21.336C10.1147 21.336 10.104 21.336 10.104 21.336C9.86933 21.3573 9.61333 21.3573 9.336 21.336C9.25067 21.3147 9.176 21.3467 9.112 21.432C9.06933 21.496 9.048 21.56 9.048 21.624C9.048 21.7947 9.144 21.8907 9.336 21.912ZM12.312 20.472C12.3333 20.4507 12.3547 20.4187 12.376 20.376C12.376 20.3547 12.376 20.3227 12.376 20.28C12.376 20.2373 12.376 20.2053 12.376 20.184C12.3547 20.1413 12.3333 20.1093 12.312 20.088C12.248 20.024 12.1733 19.992 12.088 19.992C12.088 19.992 12.0773 19.992 12.056 19.992C12.0347 19.992 12.024 19.992 12.024 19.992C11.9813 20.0133 11.9387 20.0453 11.896 20.088C11.704 20.2373 11.5973 20.312 11.576 20.312C11.5547 20.3333 11.544 20.3653 11.544 20.408C11.5227 20.4507 11.512 20.4933 11.512 20.536C11.512 20.5573 11.5227 20.5893 11.544 20.632C11.544 20.6747 11.5547 20.7067 11.576 20.728C11.64 20.792 11.7147 20.824 11.8 20.824C11.8 20.824 11.8107 20.824 11.832 20.824C11.8533 20.8027 11.864 20.792 11.864 20.792C11.928 20.7707 11.9707 20.7493 11.992 20.728C12.0133 20.7067 12.0453 20.6853 12.088 20.664C12.1307 20.6213 12.1733 20.5893 12.216 20.568C12.2587 20.5253 12.2907 20.4933 12.312 20.472ZM12.856 19.736C13.4533 19.288 13.9013 18.712 14.2 18.008C14.2213 17.944 14.2 17.88 14.136 17.816C14.0933 17.7307 14.04 17.6773 13.976 17.656C13.8053 17.6347 13.688 17.7093 13.624 17.88C13.624 17.88 13.624 17.8907 13.624 17.912L13.592 17.944C13.5707 18.008 13.56 18.04 13.56 18.04C13.5387 18.0613 13.5173 18.104 13.496 18.168C13.4747 18.2107 13.4533 18.2427 13.432 18.264C13.3253 18.4347 13.24 18.5627 13.176 18.648C13.1547 18.6693 13.144 18.68 13.144 18.68C13.1013 18.7227 13.0693 18.7547 13.048 18.776C13.0267 18.8187 12.9733 18.872 12.888 18.936C12.8667 18.9787 12.8133 19.032 12.728 19.096C12.7067 19.1173 12.6747 19.1493 12.632 19.192C12.632 19.192 12.6213 19.2027 12.6 19.224H12.568C12.4187 19.352 12.3867 19.4907 12.472 19.64C12.6 19.8107 12.728 19.8427 12.856 19.736ZM33.1007 17.4C33.1007 17.4 33.1007 17.4213 33.1007 17.464C33.1221 17.4853 33.1328 17.496 33.1328 17.496C33.2181 17.944 33.3888 19.064 33.6448 20.856C33.6448 20.8987 33.6661 21.0373 33.7088 21.272C33.7728 21.4853 33.8048 21.6347 33.8048 21.72C33.8048 21.8053 33.7834 21.9333 33.7408 22.104C33.6554 22.296 33.5274 22.4027 33.3568 22.424C33.1861 22.424 33.0368 22.328 32.9088 22.136C32.6314 21.7733 32.4288 21.368 32.3008 20.92C32.3221 21.432 32.2901 21.816 32.2048 22.072C32.0554 22.52 31.7781 22.7653 31.3728 22.808C30.9888 22.8507 30.6688 22.68 30.4128 22.296C30.2634 22.0613 30.1461 21.6987 30.0608 21.208C30.0394 21.3147 30.0074 21.432 29.9648 21.56C29.9434 21.6667 29.9114 21.784 29.8688 21.912C29.8474 22.0187 29.8261 22.1147 29.8048 22.2C29.7408 22.4133 29.6661 22.5627 29.5808 22.648C29.4314 22.776 29.2394 22.7867 29.0048 22.68C28.6421 22.5307 28.3541 22.0827 28.1408 21.336C27.6288 19.2667 27.3301 17.8907 27.2448 17.208C27.2234 17.144 27.0741 17.0907 26.7968 17.048C26.5194 17.0053 26.1674 16.984 25.7408 16.984C25.3354 16.9627 24.9301 16.952 24.5248 16.952C24.1408 16.952 23.7674 16.952 23.4048 16.952C23.0634 16.952 22.8821 16.952 22.8608 16.952C22.6048 18.8507 22.2314 20.728 21.7408 22.584C21.7194 22.6693 21.6981 22.7333 21.6768 22.776C21.6768 22.8187 21.6554 22.8613 21.6128 22.904C21.5701 22.9467 21.5274 22.9787 21.4848 23C21.3568 23.0213 21.2181 22.9573 21.0688 22.808C20.6848 22.4453 20.3861 21.9973 20.1727 21.464C19.9808 21.9547 19.7141 22.328 19.3728 22.584C19.0528 22.8187 18.6901 22.7973 18.2848 22.52C18.0928 22.392 17.9541 22.2213 17.8688 22.008C17.8048 21.7733 17.8048 21.5493 17.8688 21.336C17.6341 21.5707 17.2928 21.9227 16.8448 22.392C16.6101 22.648 16.4074 22.776 16.2368 22.776C15.9808 22.776 15.7994 22.6267 15.6928 22.328C15.6288 22.1787 15.6074 21.944 15.6288 21.624C15.6501 21.3253 15.6821 21.0267 15.7248 20.728C15.7674 20.408 15.8101 20.12 15.8528 19.864C15.9168 19.5867 15.9808 19.288 16.0448 18.968C16.1301 18.648 16.2048 18.36 16.2688 18.104C16.3328 17.848 16.3968 17.5493 16.4608 17.208C16.5461 16.8667 16.6208 16.568 16.6848 16.312C17.0901 14.456 17.4954 12.7813 17.9008 11.288C18.4981 9.09067 19.1488 7.05333 19.8528 5.176C20.2368 4.152 20.6528 3.23467 21.1008 2.424C21.1434 2.33867 21.2394 2.11467 21.3888 1.752C21.5381 1.38933 21.6874 1.112 21.8368 0.919998C21.9861 0.706665 22.1781 0.546665 22.4128 0.439999C22.6048 0.354665 22.8928 0.311998 23.2768 0.311998C23.6181 0.311998 24.1408 0.311998 24.8448 0.311998C25.5488 0.290665 26.0714 0.279999 26.4128 0.279999C27.1381 0.279999 27.6288 0.418666 27.8848 0.695999C28.0554 0.845332 28.1941 1.03733 28.3008 1.272C28.4288 1.50667 28.5141 1.69867 28.5568 1.848C28.6208 1.99733 28.6954 2.24267 28.7808 2.584C28.8874 2.92533 28.9514 3.13867 28.9728 3.224C29.0794 3.544 29.2501 4.03467 29.4848 4.696C29.7408 5.336 29.9221 5.82667 30.0288 6.168C31.0528 9.85867 31.7354 12.3867 32.0768 13.752C32.1834 14.0933 32.3541 14.68 32.5888 15.512C32.8234 16.3227 32.9941 16.952 33.1007 17.4ZM17.8368 19.288C17.9221 19.032 18.0074 18.7227 18.0928 18.36C18.1568 18.168 18.0928 18.0613 17.9008 18.04C17.7088 17.976 17.5914 18.04 17.5488 18.232C17.4634 18.488 17.3781 18.7973 17.2928 19.16C17.2288 19.352 17.2928 19.4693 17.4848 19.512C17.6768 19.5333 17.7941 19.4587 17.8368 19.288ZM19.6927 21.016C19.7141 20.952 19.7354 20.856 19.7568 20.728C19.7781 20.5787 19.7994 20.472 19.8208 20.408C19.8421 20.3227 19.8314 20.248 19.7888 20.184C19.7461 20.12 19.6928 20.0773 19.6288 20.056C19.5434 20.0347 19.4688 20.0453 19.4048 20.088C19.3194 20.1307 19.2768 20.184 19.2768 20.248C19.2554 20.312 19.2234 20.4187 19.1808 20.568C19.1594 20.696 19.1488 20.792 19.1488 20.856C19.1274 20.9413 19.1274 21.016 19.1488 21.08C19.2128 21.1653 19.2768 21.2187 19.3408 21.24C19.4261 21.24 19.5008 21.2293 19.5648 21.208C19.6288 21.144 19.6714 21.08 19.6927 21.016ZM20.0128 18.072C20.0128 18.0293 20.0128 17.9867 20.0128 17.944C20.0341 17.9013 20.0448 17.8587 20.0448 17.816C20.0874 17.752 20.0768 17.688 20.0128 17.624C19.9701 17.5387 19.9168 17.4853 19.8528 17.464C19.6608 17.4213 19.5434 17.496 19.5008 17.688C19.4368 17.944 19.4154 18.2107 19.4368 18.488C19.4368 18.5733 19.4581 18.6373 19.5008 18.68C19.5648 18.744 19.6394 18.776 19.7248 18.776C19.9168 18.7547 20.0021 18.6587 19.9808 18.488C19.9808 18.3387 19.9914 18.2 20.0128 18.072ZM21.0688 19.928C21.2394 19.928 21.3354 19.832 21.3568 19.64C21.3781 19.32 21.3568 18.968 21.2928 18.584C21.2714 18.52 21.2181 18.4667 21.1328 18.424C21.0688 18.3813 21.0048 18.3707 20.9408 18.392C20.7701 18.4347 20.7061 18.552 20.7488 18.744C20.7488 18.7653 20.7488 18.7973 20.7488 18.84C20.7488 18.8613 20.7488 18.8827 20.7488 18.904C20.7914 19.16 20.8021 19.4053 20.7808 19.64C20.7808 19.7253 20.8021 19.8 20.8448 19.864C20.9088 19.9067 20.9834 19.928 21.0688 19.928ZM23.6608 13.496C23.6821 13.5173 23.7461 13.5387 23.8528 13.56C24.1941 13.5813 24.6741 13.624 25.2928 13.688C25.9114 13.7307 26.2954 13.7627 26.4448 13.784V13.688C26.4448 13.624 26.4448 13.5387 26.4448 13.432C26.3808 11.832 26.1781 10.6693 25.8368 9.944C25.6234 9.47467 25.3674 9.26133 25.0688 9.304C24.8554 9.34667 24.6741 9.57067 24.5248 9.976C24.3968 10.2747 24.0981 11.3307 23.6288 13.144C23.5648 13.3147 23.5754 13.432 23.6608 13.496ZM28.6528 19.416C28.7168 19.608 28.8341 19.672 29.0048 19.608C29.1968 19.5653 29.2714 19.448 29.2288 19.256C29.2074 19.192 29.1861 19.1173 29.1648 19.032C29.1434 18.9467 29.1221 18.8613 29.1008 18.776C29.0794 18.6907 29.0581 18.6053 29.0368 18.52C28.9941 18.328 28.8768 18.264 28.6848 18.328C28.5141 18.392 28.4394 18.5093 28.4608 18.68C28.5461 19 28.6101 19.2453 28.6528 19.416ZM30.1888 18.616C30.2101 18.68 30.2634 18.7227 30.3488 18.744C30.4341 18.7653 30.5088 18.7653 30.5728 18.744C30.6368 18.68 30.6794 18.616 30.7008 18.552C30.7008 18.552 30.7008 18.5413 30.7008 18.52C30.7221 18.4987 30.7328 18.488 30.7328 18.488C30.7328 18.4453 30.7221 18.4027 30.7008 18.36C30.6368 18.2533 30.5941 18.1253 30.5728 17.976C30.5728 17.848 30.5728 17.752 30.5728 17.688C30.5941 17.624 30.5728 17.5493 30.5088 17.464C30.4234 17.4213 30.3488 17.4 30.2848 17.4C30.2208 17.4 30.1568 17.4213 30.0928 17.464C30.0501 17.528 30.0181 17.6027 29.9968 17.688C29.9968 17.8373 30.0074 17.9973 30.0288 18.168C30.0714 18.3173 30.1248 18.4667 30.1888 18.616ZM30.9888 20.664C31.0528 20.6 31.0848 20.5253 31.0848 20.44V20.088C31.0848 20.0027 31.0528 19.928 30.9888 19.864C30.9674 19.8427 30.9354 19.832 30.8928 19.832C30.8714 19.8107 30.8394 19.8 30.7968 19.8C30.6901 19.8 30.6154 19.8213 30.5728 19.864C30.5301 19.9493 30.5088 20.024 30.5088 20.088V20.44C30.5088 20.5253 30.5301 20.6 30.5728 20.664C30.5941 20.6853 30.6261 20.696 30.6688 20.696C30.7114 20.7173 30.7541 20.728 30.7968 20.728C30.8821 20.728 30.9461 20.7067 30.9888 20.664ZM32.2368 18.936C32.3221 18.9147 32.3754 18.872 32.3968 18.808C32.4394 18.744 32.4501 18.6693 32.4288 18.584C32.3861 18.4347 32.3434 18.232 32.3008 17.976C32.2794 17.912 32.2368 17.8587 32.1728 17.816C32.0874 17.7733 32.0128 17.7627 31.9488 17.784C31.8634 17.8053 31.8101 17.848 31.7888 17.912C31.7461 17.976 31.7354 18.0507 31.7568 18.136C31.7568 18.2 31.7674 18.3067 31.7888 18.456C31.8314 18.584 31.8528 18.68 31.8528 18.744C31.8741 18.808 31.9168 18.8613 31.9808 18.904C32.0661 18.9467 32.1514 18.9573 32.2368 18.936ZM47.792 2.168C48.0053 2.18933 48.1973 2.296 48.368 2.488C48.5387 2.65867 48.624 2.85067 48.624 3.064C48.6027 3.32 48.5067 3.544 48.336 3.736C48.1653 3.928 47.952 4.056 47.696 4.12C47.9947 4.09867 48.1867 4.26933 48.272 4.632C48.3787 4.97333 48.3147 5.25067 48.08 5.464C47.7813 5.76267 47.2053 5.90133 46.352 5.88C45.0293 5.83733 44.016 5.89067 43.312 6.04C42.16 6.31733 41.3173 6.85067 40.784 7.64C40.3787 8.23733 40.1227 9.06933 40.016 10.136C39.9733 10.584 39.984 11.224 40.048 12.056C40.112 12.888 40.144 13.464 40.144 13.784C40.144 13.8693 40.1333 14.04 40.112 14.296C40.112 14.5307 40.112 14.6907 40.112 14.776C40.112 14.8613 40.1227 15.0107 40.144 15.224C40.1653 15.416 40.1973 15.5653 40.24 15.672C40.2827 15.7787 40.3467 15.9067 40.432 16.056C40.5387 16.2053 40.656 16.344 40.784 16.472C41.4027 17.048 42.5227 17.2507 44.144 17.08C44.912 16.9733 46.0747 16.8453 47.632 16.696C47.8453 16.6533 48.016 16.6533 48.144 16.696C48.336 16.7813 48.4533 16.952 48.496 17.208C48.5387 17.4427 48.496 17.6453 48.368 17.816C48.2187 18.072 47.8667 18.3173 47.312 18.552C47.5253 18.488 47.7173 18.5627 47.888 18.776C48.08 18.968 48.1547 19.1813 48.112 19.416C48.048 19.736 47.8027 20.056 47.376 20.376C47.504 20.312 47.6533 20.312 47.824 20.376C47.9947 20.44 48.112 20.536 48.176 20.664C48.3467 21.0267 48.272 21.368 47.952 21.688C47.7813 21.9013 47.472 22.0933 47.024 22.264C46 22.6267 44.9013 22.8507 43.728 22.936C42.576 23 41.4133 22.872 40.24 22.552C39.088 22.232 38.128 21.7093 37.36 20.984C36.272 19.96 35.472 18.4453 34.96 16.44C34.8747 16.0987 34.8107 15.736 34.768 15.352C34.7467 14.9467 34.736 14.5733 34.736 14.232C34.736 13.8907 34.736 13.5173 34.736 13.112C34.736 12.7067 34.736 12.3333 34.736 11.992C34.544 7.896 35.4293 4.83467 37.392 2.808C38.6293 1.528 40.3893 0.759999 42.672 0.504C43.7387 0.397333 44.9867 0.354666 46.416 0.375999C47.248 0.375999 47.8027 0.535999 48.08 0.855999C48.272 1.048 48.336 1.304 48.272 1.624C48.208 1.944 48.048 2.12533 47.792 2.168ZM46.704 21.208C46.7467 21.1653 46.768 21.0907 46.768 20.984C46.768 20.8987 46.7467 20.8347 46.704 20.792C46.64 20.728 46.5653 20.696 46.48 20.696C46.416 20.696 46.352 20.728 46.288 20.792L46.256 20.824C46.1067 20.9307 45.9573 21.016 45.808 21.08C45.7227 21.1013 45.6373 21.1333 45.552 21.176C45.36 21.2187 45.296 21.336 45.36 21.528C45.424 21.6987 45.5413 21.7627 45.712 21.72C46.0747 21.6347 46.4053 21.464 46.704 21.208ZM46.64 19.608C46.6187 19.5653 46.5973 19.5333 46.576 19.512C46.5547 19.4907 46.5333 19.4693 46.512 19.448C46.4907 19.4267 46.448 19.416 46.384 19.416C46.3627 19.416 46.3413 19.416 46.32 19.416C46.32 19.416 46.3093 19.416 46.288 19.416C46.2453 19.4373 46.2027 19.4693 46.16 19.512L46.096 19.576C46.096 19.576 46.0853 19.5973 46.064 19.64C46.0427 19.6827 46.032 19.7253 46.032 19.768C46.032 19.8107 46.0427 19.8427 46.064 19.864C46.064 19.9067 46.0747 19.9387 46.096 19.96C46.1173 19.9813 46.128 20.0027 46.128 20.024C46.1493 20.024 46.16 20.024 46.16 20.024C46.2027 20.0453 46.256 20.056 46.32 20.056C46.32 20.056 46.3307 20.056 46.352 20.056C46.3733 20.056 46.384 20.056 46.384 20.056C46.448 20.0347 46.4907 20.0027 46.512 19.96L46.576 19.896C46.5973 19.896 46.6187 19.8747 46.64 19.832C46.6613 19.768 46.672 19.7253 46.672 19.704C46.672 19.6827 46.6613 19.6507 46.64 19.608ZM45.52 18.136C45.4133 18.1573 45.3387 18.1787 45.296 18.2C45.2533 18.264 45.232 18.3387 45.232 18.424C45.232 18.5093 45.2533 18.5733 45.296 18.616C45.3813 18.68 45.456 18.712 45.52 18.712C45.584 18.6907 45.6907 18.68 45.84 18.68C45.9893 18.6587 46.1067 18.6373 46.192 18.616C46.2773 18.616 46.3413 18.5947 46.384 18.552C46.448 18.488 46.48 18.424 46.48 18.36C46.4587 18.2533 46.4267 18.1787 46.384 18.136C46.32 18.072 46.256 18.04 46.192 18.04C46.0427 18.0613 45.8187 18.0933 45.52 18.136ZM44.848 20.088C44.8907 20.024 44.8907 19.9493 44.848 19.864C44.8053 19.672 44.6987 19.608 44.528 19.672C44.3787 19.736 44.24 19.7787 44.112 19.8C43.8987 19.8 43.728 19.8 43.6 19.8C43.5147 19.7787 43.4507 19.8 43.408 19.864C43.344 19.928 43.312 20.0027 43.312 20.088C43.3333 20.1733 43.3653 20.2373 43.408 20.28C43.4507 20.3227 43.5147 20.3547 43.6 20.376C43.9627 20.3973 44.3147 20.3547 44.656 20.248C44.7413 20.2053 44.8053 20.152 44.848 20.088ZM43.216 18.008C43.1307 18.0293 43.0773 18.072 43.056 18.136C43.0133 18.2213 43.0027 18.296 43.024 18.36C43.0453 18.4453 43.088 18.5093 43.152 18.552C43.3227 18.616 43.472 18.6587 43.6 18.68C43.792 18.7013 43.9627 18.712 44.112 18.712C44.176 18.6907 44.24 18.6587 44.304 18.616C44.368 18.5733 44.4 18.5093 44.4 18.424C44.3787 18.3173 44.3467 18.2427 44.304 18.2C44.24 18.136 44.176 18.1147 44.112 18.136C43.984 18.136 43.8667 18.136 43.76 18.136C43.632 18.1147 43.5147 18.0827 43.408 18.04C43.4293 18.04 43.44 18.04 43.44 18.04C43.3547 17.9973 43.28 17.9867 43.216 18.008ZM44.016 21.784C44.016 21.6133 43.92 21.528 43.728 21.528H42.512C42.4267 21.528 42.352 21.56 42.288 21.624C42.224 21.6667 42.192 21.72 42.192 21.784C42.2133 21.976 42.32 22.072 42.512 22.072H43.728C43.8133 22.072 43.8773 22.0507 43.92 22.008C43.984 21.944 44.016 21.8693 44.016 21.784ZM42.064 19.736C42.0213 19.736 42 19.736 42 19.736C41.9787 19.736 41.9573 19.736 41.936 19.736C41.936 19.7147 41.936 19.704 41.936 19.704H41.904C41.8827 19.704 41.872 19.704 41.872 19.704C41.808 19.704 41.712 19.6827 41.584 19.64C41.584 19.64 41.5627 19.64 41.52 19.64C41.4987 19.6187 41.488 19.608 41.488 19.608C41.4453 19.5867 41.424 19.576 41.424 19.576H41.392C41.2853 19.5333 41.2107 19.4907 41.168 19.448C40.9973 19.3627 40.8693 19.4053 40.784 19.576C40.6987 19.7253 40.7307 19.8533 40.88 19.96C41.2427 20.152 41.6373 20.2693 42.064 20.312C42.1067 20.312 42.1493 20.3013 42.192 20.28C42.256 20.2587 42.2987 20.2267 42.32 20.184C42.3413 20.12 42.352 20.0667 42.352 20.024C42.352 19.8533 42.256 19.7573 42.064 19.736ZM40.688 17.784C40.624 17.848 40.5813 17.912 40.56 17.976C40.5387 18.04 40.5493 18.1147 40.592 18.2C40.848 18.5413 41.168 18.7653 41.552 18.872C41.744 18.936 41.8613 18.872 41.904 18.68C41.9467 18.488 41.8827 18.3707 41.712 18.328C41.648 18.3067 41.6053 18.2853 41.584 18.264C41.4987 18.2427 41.4027 18.2 41.296 18.136C41.232 18.0507 41.168 17.976 41.104 17.912H41.072C41.0293 17.8267 40.976 17.7733 40.912 17.752C40.8267 17.7307 40.752 17.7413 40.688 17.784ZM40.368 21.432C40.496 21.2827 40.496 21.1547 40.368 21.048C40.2613 20.9413 40.1013 20.8027 39.888 20.632C39.696 20.4613 39.5467 20.3333 39.44 20.248C39.376 20.184 39.312 20.152 39.248 20.152C39.1627 20.152 39.088 20.184 39.024 20.248C38.896 20.3973 38.896 20.5253 39.024 20.632C39.4293 20.9947 39.7387 21.2613 39.952 21.432C40.016 21.496 40.0907 21.528 40.176 21.528C40.2613 21.528 40.3253 21.496 40.368 21.432ZM61.3825 12.344C62.0865 13.9227 62.4918 14.84 62.5985 15.096C62.8758 15.7787 63.2492 16.76 63.7185 18.04C64.1878 19.2987 64.5398 20.216 64.7745 20.792C65.0305 21.4107 64.9985 21.8373 64.6785 22.072C64.4012 22.264 64.0598 22.1787 63.6545 21.816C63.6118 21.7947 63.5585 21.752 63.4945 21.688C63.4305 21.624 63.3772 21.5707 63.3345 21.528C63.2918 21.464 63.2385 21.4107 63.1745 21.368C63.1105 21.3253 63.0465 21.2827 62.9825 21.24C62.9185 21.1973 62.8545 21.1653 62.7905 21.144C62.9612 21.5067 62.9078 21.8267 62.6305 22.104C62.3318 22.296 62.0225 22.328 61.7025 22.2C61.4038 22.072 61.1478 21.8693 60.9345 21.592C61.0625 21.7413 61.0838 21.9227 60.9985 22.136C60.9132 22.3493 60.7638 22.488 60.5505 22.552C60.1665 22.68 59.8038 22.552 59.4625 22.168C59.2918 21.9547 59.1105 21.592 58.9185 21.08C58.6625 20.3547 58.2785 19.2667 57.7665 17.816C57.2545 16.344 56.8705 15.2453 56.6145 14.52C56.4652 14.136 56.2838 13.9653 56.0705 14.008C55.8785 14.0507 55.7718 14.2427 55.7505 14.584C55.7505 15.0107 55.7718 15.9387 55.8145 17.368C55.8785 18.776 55.8785 19.704 55.8145 20.152C55.8145 20.2373 55.8038 20.4293 55.7825 20.728C55.7825 21.0053 55.7718 21.2293 55.7505 21.4C55.7505 21.5707 55.7292 21.7733 55.6865 22.008C55.6438 22.2213 55.5692 22.4027 55.4625 22.552C55.3558 22.7227 55.1852 22.8187 54.9505 22.84C54.7372 22.84 54.5452 22.776 54.3745 22.648C54.1185 22.456 53.9265 22.104 53.7985 21.592C53.7772 21.8907 53.6492 22.1467 53.4145 22.36C53.2012 22.5733 52.9558 22.6693 52.6785 22.648C52.3798 22.648 52.1345 22.52 51.9425 22.264C51.7505 22.008 51.6972 21.752 51.7825 21.496C51.7612 21.5387 51.7185 21.6453 51.6545 21.816C51.6118 21.9867 51.5798 22.1147 51.5585 22.2C51.4732 22.4347 51.3772 22.5947 51.2705 22.68C51.1425 22.744 50.9932 22.7547 50.8225 22.712C50.6732 22.648 50.5558 22.552 50.4705 22.424C50.3638 22.232 50.3212 21.9227 50.3425 21.496C50.3425 20.8347 50.3318 19.6187 50.3105 17.848C50.2892 16.0773 50.2998 14.8613 50.3425 14.2C50.3852 13.624 50.3852 12.184 50.3425 9.88C50.2998 7.576 50.2785 6.136 50.2785 5.56C50.2785 4.74933 50.3638 3.39467 50.5345 1.496C50.5772 1.19733 50.6305 0.973332 50.6945 0.823999C50.8438 0.567999 51.0358 0.450665 51.2705 0.471998C51.5052 0.471998 51.7292 0.685332 51.9425 1.112C52.0278 1.24 52.1452 1.44267 52.2945 1.72C52.2732 1.272 52.4438 0.930665 52.8065 0.695999C52.9985 0.589333 53.1585 0.546666 53.2865 0.567999C53.3505 0.589332 53.4252 0.631999 53.5105 0.695999C53.7878 0.930665 53.9585 1.21867 54.0225 1.56C54.1505 1.176 54.3532 0.887999 54.6305 0.695999C54.9718 0.461333 55.3132 0.439999 55.6545 0.631998C55.7825 0.717332 55.8785 0.898665 55.9425 1.176C56.0065 1.432 56.0278 1.69867 56.0065 1.976C56.0065 2.232 55.9958 2.54133 55.9745 2.904C55.9745 3.24533 55.9745 3.45867 55.9745 3.544C55.9745 3.8 55.9745 4.09867 55.9745 4.44C55.9958 4.76 56.0065 5.05867 56.0065 5.336C56.0278 5.592 56.0385 5.89067 56.0385 6.232C56.0385 6.552 56.0492 6.84 56.0705 7.096C56.2625 7.18133 56.4545 7.07467 56.6465 6.776C57.0305 6.17867 57.5425 5.29333 58.1825 4.12C58.8438 2.92533 59.3345 2.06133 59.6545 1.528C60.0385 0.909332 60.4225 0.663999 60.8065 0.792C61.1478 0.898666 61.3078 1.304 61.2865 2.008C61.4785 1.66667 61.7665 1.48533 62.1505 1.464C62.5345 1.42133 62.8225 1.58133 63.0145 1.944C63.1638 2.24266 63.1105 2.70133 62.8545 3.32C63.1532 3 63.5265 2.84 63.9745 2.84C64.1238 2.84 64.2198 2.88266 64.2625 2.968C64.2838 3.01067 64.2945 3.064 64.2945 3.128C64.2732 3.53333 64.0598 4.088 63.6545 4.792C62.5452 6.776 61.4678 8.55733 60.4225 10.136C60.3585 10.2 60.3265 10.264 60.3265 10.328C60.3265 10.4347 60.4012 10.6267 60.5505 10.904C60.6358 11.0747 60.7852 11.3307 60.9985 11.672C61.2118 12.0133 61.3398 12.2373 61.3825 12.344ZM50.8545 17.528C50.8332 17.6133 50.8438 17.688 50.8865 17.752C50.9292 17.8373 50.9825 17.88 51.0465 17.88C51.2598 17.9227 51.3772 17.8587 51.3985 17.688C51.4838 17.2187 51.5158 16.7387 51.4945 16.248C51.4945 16.184 51.4625 16.12 51.3985 16.056C51.3558 15.992 51.2918 15.96 51.2065 15.96C51.0145 15.9813 50.9185 16.0773 50.9185 16.248C50.9185 16.3973 50.9185 16.6213 50.9185 16.92C50.8972 17.0693 50.8865 17.176 50.8865 17.24C50.8865 17.2613 50.8865 17.3147 50.8865 17.4C50.8865 17.4213 50.8758 17.4427 50.8545 17.464C50.8545 17.464 50.8545 17.4747 50.8545 17.496C50.8545 17.496 50.8545 17.5067 50.8545 17.528ZM51.2065 21.112C51.3772 21.0907 51.4732 20.9947 51.4945 20.824C51.5158 20.3973 51.4945 19.9387 51.4305 19.448C51.4305 19.384 51.3878 19.32 51.3025 19.256C51.2172 19.2347 51.1425 19.2347 51.0785 19.256C50.9078 19.2987 50.8438 19.416 50.8865 19.608C50.8865 19.608 50.8865 19.6187 50.8865 19.64C50.8865 19.64 50.8865 19.6613 50.8865 19.704C50.8865 19.7253 50.8865 19.7573 50.8865 19.8C50.9078 19.8213 50.9185 19.8427 50.9185 19.864C50.9185 19.992 50.9185 20.0987 50.9185 20.184C50.9398 20.4187 50.9398 20.632 50.9185 20.824C50.9185 20.888 50.9398 20.952 50.9825 21.016C51.0465 21.08 51.1212 21.112 51.2065 21.112ZM52.5505 15.48C52.3585 15.48 52.2625 15.576 52.2625 15.768V16.76C52.2625 16.8027 52.2732 16.8453 52.2945 16.888C52.3372 16.9307 52.3798 16.9733 52.4225 17.016C52.4652 17.0373 52.5078 17.048 52.5505 17.048C52.7425 17.0267 52.8385 16.9307 52.8385 16.76V15.768C52.8385 15.6827 52.8065 15.6187 52.7425 15.576C52.6998 15.512 52.6358 15.48 52.5505 15.48ZM51.7185 19.352C51.7185 19.416 51.7505 19.48 51.8145 19.544C51.8785 19.608 51.9425 19.64 52.0065 19.64C52.1772 19.6187 52.2732 19.5227 52.2945 19.352C52.3158 18.8827 52.3372 18.5307 52.3585 18.296C52.3798 18.2107 52.3585 18.1467 52.2945 18.104C52.2305 18.04 52.1558 18.008 52.0705 18.008C51.8998 18.008 51.8038 18.104 51.7825 18.296C51.7612 18.7653 51.7398 19.1173 51.7185 19.352ZM52.6145 21.784C52.7852 21.7627 52.8812 21.6667 52.9025 21.496C52.9452 20.9627 52.9878 20.5253 53.0305 20.184C53.0305 20.12 52.9985 20.056 52.9345 19.992C52.8918 19.928 52.8278 19.9067 52.7425 19.928C52.5718 19.928 52.4758 20.0133 52.4545 20.184C52.4118 20.7173 52.3692 21.1547 52.3265 21.496C52.3052 21.56 52.3265 21.624 52.3905 21.688C52.4545 21.752 52.5292 21.784 52.6145 21.784ZM53.7665 18.808C53.8305 18.3173 53.8732 17.9867 53.8945 17.816C53.9158 17.7307 53.9052 17.656 53.8625 17.592C53.8412 17.528 53.7878 17.4853 53.7025 17.464C53.6172 17.4427 53.5425 17.4533 53.4785 17.496C53.3932 17.5387 53.3505 17.592 53.3505 17.656C53.2865 18.0827 53.2332 18.4133 53.1905 18.648C53.1905 18.7333 53.2012 18.808 53.2225 18.872C53.2652 18.936 53.3185 18.9787 53.3825 19C53.4678 19.0213 53.5425 19.0107 53.6065 18.968C53.6918 18.9253 53.7452 18.872 53.7665 18.808ZM53.8945 16.376C53.9372 16.3973 53.9692 16.408 53.9905 16.408C54.0332 16.4293 54.0758 16.4293 54.1185 16.408C54.2038 16.3867 54.2572 16.344 54.2785 16.28C54.2998 16.2587 54.3105 16.2373 54.3105 16.216C54.3318 16.152 54.3318 16.0987 54.3105 16.056C54.3105 16.0133 54.2998 15.9493 54.2785 15.864C54.2572 15.7573 54.2358 15.6827 54.2145 15.64C54.2145 15.5973 54.2038 15.5653 54.1825 15.544C54.1612 15.5013 54.1292 15.4693 54.0865 15.448C54.0652 15.4267 54.0332 15.416 53.9905 15.416C53.9692 15.416 53.9372 15.416 53.8945 15.416C53.8092 15.4587 53.7558 15.512 53.7345 15.576C53.7132 15.576 53.7025 15.5973 53.7025 15.64C53.6812 15.6827 53.6812 15.736 53.7025 15.8C53.7025 15.8427 53.7132 15.9173 53.7345 16.024C53.7558 16.1093 53.7665 16.1733 53.7665 16.216C53.7665 16.2373 53.7772 16.2693 53.7985 16.312C53.8412 16.3547 53.8732 16.376 53.8945 16.376ZM54.3745 20.92C54.3745 21.0053 54.3958 21.08 54.4385 21.144C54.5025 21.208 54.5772 21.24 54.6625 21.24C54.8545 21.2187 54.9505 21.112 54.9505 20.92C54.9292 20.4933 54.8545 20.088 54.7265 19.704C54.6838 19.512 54.5665 19.448 54.3745 19.512C54.1825 19.5547 54.1185 19.672 54.1825 19.864C54.2465 20.0133 54.2892 20.1947 54.3105 20.408C54.3318 20.4293 54.3425 20.4613 54.3425 20.504C54.3425 20.5253 54.3425 20.536 54.3425 20.536V20.568C54.3425 20.568 54.3425 20.5787 54.3425 20.6C54.3425 20.6213 54.3425 20.632 54.3425 20.632C54.3638 20.7387 54.3745 20.8347 54.3745 20.92ZM54.9185 18.392C55.0892 18.328 55.1638 18.2107 55.1425 18.04C55.1212 17.8907 55.0892 17.6773 55.0465 17.4C55.0038 17.1013 54.9718 16.8773 54.9505 16.728C54.9292 16.664 54.8865 16.6107 54.8225 16.568C54.7372 16.5253 54.6625 16.5147 54.5985 16.536C54.4278 16.5787 54.3532 16.696 54.3745 16.888C54.3958 17.0373 54.4278 17.2613 54.4705 17.56C54.5132 17.8373 54.5452 18.04 54.5665 18.168C54.5878 18.2533 54.6305 18.3173 54.6945 18.36C54.7798 18.4027 54.8545 18.4133 54.9185 18.392ZM58.5025 18.552C58.5025 18.744 58.5985 18.8293 58.7905 18.808C58.9825 18.808 59.0785 18.7227 59.0785 18.552C59.0572 18.1253 58.9398 17.7413 58.7265 17.4C58.6198 17.2293 58.4812 17.1973 58.3105 17.304C58.1612 17.4107 58.1292 17.5387 58.2145 17.688C58.2572 17.752 58.2892 17.816 58.3105 17.88C58.3318 17.9227 58.3532 17.9547 58.3745 17.976C58.3745 17.9973 58.3745 18.008 58.3745 18.008C58.4172 18.1147 58.4492 18.2427 58.4705 18.392C58.4705 18.4133 58.4705 18.4453 58.4705 18.488C58.4918 18.5093 58.5025 18.5307 58.5025 18.552ZM59.6225 21.112C59.6865 21.1547 59.7612 21.1653 59.8465 21.144C60.0385 21.08 60.1025 20.9627 60.0385 20.792C59.9745 20.6 59.9212 20.3973 59.8785 20.184C59.8785 20.1413 59.8678 20.088 59.8465 20.024C59.8465 19.96 59.8465 19.9173 59.8465 19.896C59.8465 19.6827 59.7612 19.5867 59.5905 19.608C59.3772 19.608 59.2705 19.704 59.2705 19.896C59.2918 20.2587 59.3665 20.6107 59.4945 20.952C59.5158 21.0373 59.5585 21.0907 59.6225 21.112ZM59.8785 19.48C59.8785 19.5227 59.8892 19.5653 59.9105 19.608C59.9532 19.6293 59.9958 19.6507 60.0385 19.672C60.1025 19.6933 60.1558 19.6933 60.1985 19.672C60.3692 19.6293 60.4438 19.512 60.4225 19.32C60.4012 19.2347 60.3798 19.128 60.3585 19C60.3372 18.872 60.3052 18.744 60.2625 18.616C60.2412 18.488 60.2305 18.3813 60.2305 18.296C60.2092 18.2107 60.1558 18.1467 60.0705 18.104C60.0065 18.0613 59.9425 18.0507 59.8785 18.072C59.7078 18.136 59.6332 18.2533 59.6545 18.424C59.6758 18.552 59.7078 18.7333 59.7505 18.968C59.8145 19.1813 59.8572 19.352 59.8785 19.48ZM60.8385 20.504C60.8385 20.312 60.7425 20.216 60.5505 20.216C60.3798 20.216 60.2945 20.312 60.2945 20.504C60.2945 20.696 60.3798 20.792 60.5505 20.792C60.7425 20.792 60.8385 20.696 60.8385 20.504ZM60.8385 17.784C60.9238 17.8053 60.9985 17.7947 61.0625 17.752C61.2332 17.6453 61.2652 17.5173 61.1585 17.368C61.1158 17.2827 61.0412 17.1653 60.9345 17.016C60.8492 16.8667 60.7852 16.7493 60.7425 16.664C60.6998 16.6 60.6465 16.5573 60.5825 16.536C60.4972 16.5147 60.4225 16.5253 60.3585 16.568C60.1878 16.6747 60.1558 16.8027 60.2625 16.952C60.3052 17.0373 60.3692 17.1547 60.4545 17.304C60.5612 17.4533 60.6358 17.5707 60.6785 17.656C60.7212 17.72 60.7745 17.7627 60.8385 17.784ZM61.7665 20.952C61.8092 21.016 61.8732 21.0587 61.9585 21.08C62.0438 21.1013 62.1185 21.1013 62.1825 21.08C62.3318 20.9733 62.3638 20.8347 62.2785 20.664C62.2145 20.5573 62.0332 20.1947 61.7345 19.576C61.6918 19.4907 61.6278 19.4373 61.5425 19.416C61.4785 19.3947 61.4145 19.4053 61.3505 19.448C61.1798 19.5547 61.1372 19.6933 61.2225 19.864C61.2865 19.9707 61.4678 20.3333 61.7665 20.952ZM62.4705 18.808C62.5558 18.744 62.5985 18.68 62.5985 18.616C62.6198 18.552 62.6198 18.4773 62.5985 18.392C62.4278 18.0507 62.2785 17.7413 62.1505 17.464C62.1292 17.4 62.0758 17.3573 61.9905 17.336C61.9052 17.3147 61.8305 17.3253 61.7665 17.368C61.7025 17.4107 61.6598 17.464 61.6385 17.528C61.6172 17.6133 61.6278 17.688 61.6705 17.752C61.8625 18.2 62.0012 18.5093 62.0865 18.68C62.1078 18.744 62.1612 18.7867 62.2465 18.808C62.3318 18.8293 62.4065 18.8293 62.4705 18.808ZM62.5985 17.176C62.6838 17.1333 62.7372 17.08 62.7585 17.016C62.7585 16.9307 62.7478 16.856 62.7265 16.792C62.6412 16.664 62.5665 16.5467 62.5025 16.44C62.4812 16.3547 62.4598 16.2693 62.4385 16.184C62.3958 15.992 62.2785 15.928 62.0865 15.992C61.9158 16.056 61.8412 16.1733 61.8625 16.344C61.9478 16.6213 62.0652 16.8667 62.2145 17.08C62.2785 17.144 62.3318 17.1867 62.3745 17.208C62.4598 17.2293 62.5345 17.2187 62.5985 17.176ZM63.8785 20.664C63.9425 20.6427 63.9958 20.6 64.0385 20.536C64.0598 20.472 64.0705 20.3973 64.0705 20.312C64.0065 19.864 63.8678 19.4267 63.6545 19C63.5478 18.8293 63.4092 18.7973 63.2385 18.904C63.0892 19.0107 63.0572 19.1387 63.1425 19.288C63.1638 19.3307 63.1852 19.384 63.2065 19.448C63.2278 19.4907 63.2385 19.512 63.2385 19.512C63.2385 19.512 63.2492 19.5227 63.2705 19.544C63.2705 19.5653 63.3025 19.6613 63.3665 19.832C63.4305 20.024 63.4838 20.2373 63.5265 20.472C63.5265 20.536 63.5692 20.5893 63.6545 20.632C63.7185 20.6747 63.7932 20.6853 63.8785 20.664Z" fill="white"/>
</svg>
