<svg width="82" height="24" viewBox="0 0 82 24" fill="none" xmlns="http://www.w3.org/2000/svg">
<path d="M11.768 2.904C12.472 3.416 13.0053 3.93867 13.368 4.472C13.7307 5.00533 14.0187 5.688 14.232 6.52C14.3387 6.904 14.424 7.26667 14.488 7.608C14.7653 9.16533 14.8507 11.512 14.744 14.648C14.7013 15.48 14.6373 16.216 14.552 16.856C14.4667 17.4747 14.3173 18.136 14.104 18.84C13.8907 19.544 13.56 20.1733 13.112 20.728C12.6853 21.2613 12.1413 21.688 11.48 22.008C10.4133 22.584 9.41067 22.84 8.472 22.776C7.91733 22.7333 7.46933 22.6053 7.128 22.392C6.78667 22.1787 6.79733 21.848 7.16 21.4C7.33067 21.1867 7.65067 20.9627 8.12 20.728C7.672 20.7067 7.34133 20.632 7.128 20.504C6.95733 20.4187 6.82933 20.3013 6.744 20.152C6.68 19.9813 6.66933 19.8213 6.712 19.672C6.776 19.5013 6.91467 19.3413 7.128 19.192C7.34133 19.064 7.56533 18.968 7.8 18.904C7.50133 18.7973 7.27733 18.68 7.128 18.552C6.89333 18.36 6.808 18.1467 6.872 17.912C6.89333 17.8053 6.94667 17.7093 7.032 17.624C7.13867 17.5387 7.224 17.4853 7.288 17.464C7.37333 17.4213 7.50133 17.3787 7.672 17.336C7.84267 17.272 7.94933 17.2293 7.992 17.208C8.632 16.952 9.06933 16.4187 9.304 15.608C9.51733 14.8187 9.66667 13.9867 9.752 13.112C9.83733 12.216 9.816 11.288 9.688 10.328C9.56 9.368 9.304 8.55733 8.92 7.896C8.83467 7.74667 8.73867 7.61867 8.632 7.512C8.52533 7.40533 8.41867 7.32 8.312 7.256C8.22667 7.17067 8.09867 7.096 7.928 7.032C7.77867 6.968 7.66133 6.92533 7.576 6.904C7.512 6.86133 7.37333 6.82933 7.16 6.808C6.94667 6.78667 6.808 6.776 6.744 6.776C6.68 6.75467 6.52 6.73333 6.264 6.712C6.02933 6.69067 5.89067 6.68 5.848 6.68C5.74133 6.68 5.67733 6.70133 5.656 6.744C5.61333 6.78667 5.592 6.84 5.592 6.904C5.528 7.992 5.48533 9.12267 5.464 10.296C5.464 11.448 5.47467 12.8453 5.496 14.488C5.51733 16.1093 5.528 17.24 5.528 17.88C5.528 20.0133 5.50667 21.3787 5.464 21.976C5.44267 22.5307 5.29333 22.8293 5.016 22.872C4.76 22.936 4.51467 22.808 4.28 22.488C4.04533 22.1467 3.94933 21.848 3.992 21.592C3.94933 21.912 3.864 22.2107 3.736 22.488C3.65067 22.68 3.55467 22.808 3.448 22.872C3.27733 22.9787 3.096 22.9893 2.904 22.904C2.73333 22.8187 2.59467 22.6907 2.488 22.52C2.31733 22.264 2.22133 21.976 2.2 21.656C2.24267 22.0187 2.04 22.36 1.592 22.68C1.144 22.9787 0.792 22.9573 0.536 22.616C0.472 22.5307 0.418667 22.3707 0.376 22.136C0.248 21.0693 0.184 19.9493 0.184 18.776C0.184 17.5813 0.205333 16.2693 0.248 14.84C0.312 13.3893 0.344 12.2587 0.344 11.448C0.344 10.616 0.333333 9.528 0.312 8.184C0.290667 6.81867 0.269333 5.72 0.248 4.888C0.248 4.056 0.248 2.95733 0.248 1.592C0.248 1.22933 0.344 1.00533 0.536 0.919998C0.578667 0.877332 0.664 0.845332 0.792 0.823999C2.648 0.567999 4.6 0.557332 6.648 0.792C7.736 0.919999 8.6 1.112 9.24 1.368C9.83733 1.60267 10.68 2.11467 11.768 2.904ZM1.624 19.96C1.624 19.8533 1.64533 19.736 1.688 19.608C1.73067 19.416 1.66667 19.2987 1.496 19.256C1.304 19.2133 1.18667 19.2773 1.144 19.448C0.994667 19.9813 0.952 20.504 1.016 21.016C1.03733 21.208 1.13333 21.304 1.304 21.304C1.368 21.304 1.432 21.2827 1.496 21.24C1.56 21.176 1.592 21.1013 1.592 21.016C1.57067 20.76 1.56 20.5147 1.56 20.28C1.58133 20.216 1.592 20.1627 1.592 20.12V20.088V20.056C1.592 20.056 1.592 20.0453 1.592 20.024C1.592 20.0027 1.60267 19.9813 1.624 19.96ZM1.688 17.656C1.73067 17.592 1.752 17.528 1.752 17.464C1.77333 17.1653 1.752 16.8667 1.688 16.568C1.66667 16.504 1.61333 16.4507 1.528 16.408C1.464 16.3653 1.4 16.3547 1.336 16.376C1.16533 16.4187 1.10133 16.536 1.144 16.728C1.144 16.7493 1.144 16.7813 1.144 16.824C1.16533 16.8667 1.176 16.8987 1.176 16.92C1.19733 17.0907 1.19733 17.272 1.176 17.464C1.176 17.528 1.208 17.592 1.272 17.656C1.336 17.72 1.4 17.7413 1.464 17.72C1.54933 17.72 1.624 17.6987 1.688 17.656ZM2.84 19.32C2.904 19.256 2.936 19.1813 2.936 19.096V18.616C2.936 18.5307 2.904 18.4667 2.84 18.424C2.776 18.36 2.712 18.328 2.648 18.328C2.56267 18.328 2.49867 18.36 2.456 18.424C2.392 18.488 2.36 18.552 2.36 18.616V19.096C2.36 19.1813 2.392 19.256 2.456 19.32C2.49867 19.3627 2.56267 19.384 2.648 19.384C2.73333 19.384 2.79733 19.3627 2.84 19.32ZM2.648 17.08C2.648 17.144 2.68 17.208 2.744 17.272C2.78667 17.336 2.85067 17.368 2.936 17.368C3.02133 17.3467 3.08533 17.3147 3.128 17.272C3.17067 17.2293 3.20267 17.1653 3.224 17.08V17.048V16.984C3.224 16.984 3.224 16.9733 3.224 16.952C3.24533 16.9093 3.256 16.8773 3.256 16.856C3.27733 16.7493 3.288 16.6747 3.288 16.632C3.33067 16.44 3.37333 16.2693 3.416 16.12C3.48 15.928 3.416 15.8107 3.224 15.768C3.05333 15.7253 2.936 15.7893 2.872 15.96C2.76533 16.3013 2.69067 16.6747 2.648 17.08ZM3.256 21.912C3.448 21.912 3.544 21.816 3.544 21.624V20.632C3.544 20.568 3.512 20.504 3.448 20.44C3.40533 20.376 3.34133 20.344 3.256 20.344C3.064 20.3653 2.968 20.4613 2.968 20.632V21.624C2.968 21.7093 2.98933 21.784 3.032 21.848C3.096 21.8907 3.17067 21.912 3.256 21.912ZM4.504 19.992C4.58933 19.9707 4.64267 19.928 4.664 19.864C4.70667 19.8 4.71733 19.7253 4.696 19.64C4.67467 19.576 4.64267 19.512 4.6 19.448C4.57867 19.3627 4.55733 19.2773 4.536 19.192C4.51467 19.1067 4.49333 19.032 4.472 18.968C4.45067 18.904 4.408 18.8507 4.344 18.808C4.25867 18.7653 4.184 18.7547 4.12 18.776C4.03467 18.7973 3.97067 18.84 3.928 18.904C3.88533 18.9893 3.87467 19.064 3.896 19.128C3.91733 19.192 3.93867 19.2667 3.96 19.352C4.00267 19.416 4.03467 19.4907 4.056 19.576C4.09867 19.6613 4.13067 19.736 4.152 19.8C4.17333 19.8853 4.216 19.9387 4.28 19.96C4.344 20.0027 4.41867 20.0133 4.504 19.992ZM4.536 17.72C4.728 17.72 4.824 17.6347 4.824 17.464C4.86667 17.1227 4.84533 16.76 4.76 16.376C4.76 16.312 4.71733 16.2587 4.632 16.216C4.568 16.1733 4.49333 16.1627 4.408 16.184C4.23733 16.2267 4.17333 16.344 4.216 16.536C4.216 16.5787 4.22667 16.632 4.248 16.696C4.26933 16.952 4.26933 17.208 4.248 17.464C4.248 17.5067 4.25867 17.5493 4.28 17.592C4.32267 17.6347 4.36533 17.6667 4.408 17.688C4.45067 17.7093 4.49333 17.72 4.536 17.72ZM11.8 15.832C11.736 15.896 11.704 15.96 11.704 16.024C11.704 16.1733 11.704 16.28 11.704 16.344C11.704 16.3867 11.7147 16.4187 11.736 16.44C11.7573 16.4827 11.7787 16.5147 11.8 16.536C11.8213 16.5787 11.8533 16.6 11.896 16.6C11.9173 16.6213 11.9493 16.632 11.992 16.632C11.992 16.632 12.0027 16.632 12.024 16.632C12.0453 16.632 12.056 16.632 12.056 16.632C12.12 16.6107 12.1627 16.5787 12.184 16.536C12.248 16.4933 12.28 16.4293 12.28 16.344V16.024C12.28 15.9813 12.2693 15.9493 12.248 15.928C12.2267 15.8853 12.2053 15.8533 12.184 15.832C12.1627 15.7893 12.1413 15.768 12.12 15.768C12.0773 15.7467 12.0347 15.736 11.992 15.736H11.96L11.928 15.768C11.864 15.768 11.8213 15.7893 11.8 15.832ZM12.088 17.304C12.024 17.24 11.9493 17.2187 11.864 17.24C11.7787 17.24 11.7147 17.2613 11.672 17.304C11.416 17.6027 11.2347 17.8267 11.128 17.976C11.064 18.04 11.032 18.1147 11.032 18.2C11.032 18.2853 11.064 18.3493 11.128 18.392C11.1707 18.456 11.2347 18.4773 11.32 18.456C11.4053 18.456 11.4693 18.4347 11.512 18.392C11.5547 18.3493 11.5973 18.296 11.64 18.232C11.704 18.168 11.7573 18.1147 11.8 18.072C11.8427 18.008 11.8853 17.944 11.928 17.88C11.992 17.816 12.0453 17.7627 12.088 17.72C12.1307 17.6347 12.152 17.5707 12.152 17.528C12.152 17.4427 12.1307 17.368 12.088 17.304ZM7.928 18.2C7.992 18.2853 8.056 18.328 8.12 18.328C8.44 18.4133 8.73867 18.3707 9.016 18.2C9.08 18.136 9.12267 18.072 9.144 18.008C9.16533 17.9227 9.15467 17.848 9.112 17.784C9.06933 17.72 9.00533 17.6773 8.92 17.656C8.83467 17.6347 8.77067 17.6453 8.728 17.688C8.70667 17.688 8.68533 17.6987 8.664 17.72C8.64267 17.72 8.62133 17.7307 8.6 17.752C8.536 17.7733 8.49333 17.784 8.472 17.784C8.408 17.784 8.35467 17.784 8.312 17.784C8.29067 17.784 8.26933 17.784 8.248 17.784C8.184 17.7627 8.10933 17.7733 8.024 17.816C7.96 17.8587 7.91733 17.912 7.896 17.976C7.87467 18.0613 7.88533 18.136 7.928 18.2ZM8.44 21.752C9.12267 21.624 9.57067 21.528 9.784 21.464C9.86933 21.464 9.93333 21.432 9.976 21.368C10.0187 21.2827 10.0293 21.1973 10.008 21.112C9.944 20.9413 9.816 20.8773 9.624 20.92C9.496 20.9413 9.272 20.9947 8.952 21.08C8.65333 21.144 8.42933 21.1867 8.28 21.208C8.216 21.2293 8.16267 21.2827 8.12 21.368C8.07733 21.432 8.06667 21.496 8.088 21.56C8.152 21.7307 8.26933 21.7947 8.44 21.752ZM8.536 20.088C9.048 20.0453 9.528 19.9067 9.976 19.672C10.1467 19.5653 10.1787 19.4267 10.072 19.256C9.98667 19.1067 9.85867 19.0747 9.688 19.16C9.66667 19.16 9.63467 19.1707 9.592 19.192C9.57067 19.2133 9.56 19.224 9.56 19.224C9.496 19.2453 9.464 19.2667 9.464 19.288C9.464 19.288 9.45333 19.288 9.432 19.288C9.32533 19.3307 9.22933 19.3627 9.144 19.384C9.016 19.4267 8.90933 19.4587 8.824 19.48C8.80267 19.48 8.77067 19.48 8.728 19.48C8.70667 19.48 8.68533 19.48 8.664 19.48L8.632 19.512C8.632 19.512 8.62133 19.512 8.6 19.512C8.57867 19.512 8.55733 19.512 8.536 19.512C8.344 19.5333 8.25867 19.6293 8.28 19.8C8.28 19.864 8.30133 19.928 8.344 19.992C8.408 20.056 8.472 20.088 8.536 20.088ZM9.88 16.984C9.70933 17.0907 9.67733 17.2293 9.784 17.4C9.86933 17.5493 9.99733 17.5813 10.168 17.496C10.488 17.3253 10.776 17.112 11.032 16.856C11.1813 16.728 11.1813 16.5893 11.032 16.44C10.904 16.3333 10.7653 16.3333 10.616 16.44C10.5947 16.4827 10.5093 16.568 10.36 16.696C10.2107 16.8027 10.0507 16.8987 9.88 16.984ZM11.448 21.208C11.8747 20.696 12.248 20.152 12.568 19.576C12.6747 19.384 12.6427 19.256 12.472 19.192C12.3013 19.0853 12.1733 19.1173 12.088 19.288C11.9387 19.544 11.768 19.8107 11.576 20.088C11.4693 20.2373 11.384 20.3653 11.32 20.472C11.32 20.472 11.3093 20.4827 11.288 20.504C11.2667 20.5253 11.256 20.536 11.256 20.536L11.224 20.568C11.224 20.5893 11.2133 20.6 11.192 20.6C11.192 20.6213 11.1707 20.6533 11.128 20.696C11.0853 20.7387 11.0533 20.7707 11.032 20.792C10.904 20.9627 10.904 21.1013 11.032 21.208C11.2027 21.336 11.3413 21.336 11.448 21.208ZM13.336 18.84C13.5067 18.8827 13.624 18.808 13.688 18.616C13.8587 18.0613 13.944 17.4853 13.944 16.888C13.944 16.8027 13.912 16.7387 13.848 16.696C13.8053 16.632 13.7413 16.6 13.656 16.6C13.464 16.6213 13.368 16.7173 13.368 16.888C13.368 17.144 13.368 17.2827 13.368 17.304C13.3467 17.432 13.3253 17.56 13.304 17.688C13.2613 17.9227 13.1973 18.1893 13.112 18.488C13.0693 18.68 13.144 18.7973 13.336 18.84ZM33.1632 17.4C33.1632 17.4 33.1632 17.4213 33.1632 17.464C33.1846 17.4853 33.1953 17.496 33.1953 17.496C33.2806 17.944 33.4513 19.064 33.7073 20.856C33.7073 20.8987 33.7286 21.0373 33.7713 21.272C33.8353 21.4853 33.8673 21.6347 33.8673 21.72C33.8673 21.8053 33.8459 21.9333 33.8033 22.104C33.7179 22.296 33.5899 22.4027 33.4193 22.424C33.2486 22.424 33.0993 22.328 32.9713 22.136C32.6939 21.7733 32.4913 21.368 32.3633 20.92C32.3846 21.432 32.3526 21.816 32.2673 22.072C32.1179 22.52 31.8406 22.7653 31.4353 22.808C31.0513 22.8507 30.7313 22.68 30.4753 22.296C30.3259 22.0613 30.2086 21.6987 30.1233 21.208C30.1019 21.3147 30.0699 21.432 30.0273 21.56C30.0059 21.6667 29.9739 21.784 29.9313 21.912C29.9099 22.0187 29.8886 22.1147 29.8673 22.2C29.8033 22.4133 29.7286 22.5627 29.6433 22.648C29.4939 22.776 29.3019 22.7867 29.0673 22.68C28.7046 22.5307 28.4166 22.0827 28.2033 21.336C27.6913 19.2667 27.3926 17.8907 27.3073 17.208C27.2859 17.144 27.1366 17.0907 26.8593 17.048C26.5819 17.0053 26.2299 16.984 25.8033 16.984C25.3979 16.9627 24.9926 16.952 24.5873 16.952C24.2033 16.952 23.8299 16.952 23.4673 16.952C23.1259 16.952 22.9446 16.952 22.9233 16.952C22.6673 18.8507 22.2939 20.728 21.8033 22.584C21.7819 22.6693 21.7606 22.7333 21.7393 22.776C21.7393 22.8187 21.7179 22.8613 21.6753 22.904C21.6326 22.9467 21.5899 22.9787 21.5473 23C21.4193 23.0213 21.2806 22.9573 21.1313 22.808C20.7473 22.4453 20.4486 21.9973 20.2352 21.464C20.0433 21.9547 19.7766 22.328 19.4353 22.584C19.1153 22.8187 18.7526 22.7973 18.3473 22.52C18.1553 22.392 18.0166 22.2213 17.9313 22.008C17.8673 21.7733 17.8673 21.5493 17.9313 21.336C17.6966 21.5707 17.3553 21.9227 16.9073 22.392C16.6726 22.648 16.4699 22.776 16.2993 22.776C16.0433 22.776 15.8619 22.6267 15.7553 22.328C15.6913 22.1787 15.6699 21.944 15.6913 21.624C15.7126 21.3253 15.7446 21.0267 15.7873 20.728C15.8299 20.408 15.8726 20.12 15.9153 19.864C15.9793 19.5867 16.0433 19.288 16.1073 18.968C16.1926 18.648 16.2673 18.36 16.3313 18.104C16.3953 17.848 16.4593 17.5493 16.5233 17.208C16.6086 16.8667 16.6833 16.568 16.7473 16.312C17.1526 14.456 17.5579 12.7813 17.9633 11.288C18.5606 9.09067 19.2113 7.05333 19.9153 5.176C20.2993 4.152 20.7153 3.23467 21.1633 2.424C21.2059 2.33867 21.3019 2.11467 21.4513 1.752C21.6006 1.38933 21.7499 1.112 21.8993 0.919998C22.0486 0.706665 22.2406 0.546665 22.4753 0.439999C22.6673 0.354665 22.9553 0.311998 23.3393 0.311998C23.6806 0.311998 24.2033 0.311998 24.9073 0.311998C25.6113 0.290665 26.1339 0.279999 26.4753 0.279999C27.2006 0.279999 27.6913 0.418666 27.9473 0.695999C28.1179 0.845332 28.2566 1.03733 28.3633 1.272C28.4913 1.50667 28.5766 1.69867 28.6193 1.848C28.6833 1.99733 28.7579 2.24267 28.8433 2.584C28.9499 2.92533 29.0139 3.13867 29.0353 3.224C29.1419 3.544 29.3126 4.03467 29.5473 4.696C29.8033 5.336 29.9846 5.82667 30.0913 6.168C31.1153 9.85867 31.7979 12.3867 32.1393 13.752C32.2459 14.0933 32.4166 14.68 32.6513 15.512C32.8859 16.3227 33.0566 16.952 33.1632 17.4ZM17.8993 19.288C17.9846 19.032 18.0699 18.7227 18.1553 18.36C18.2193 18.168 18.1553 18.0613 17.9633 18.04C17.7713 17.976 17.6539 18.04 17.6113 18.232C17.5259 18.488 17.4406 18.7973 17.3553 19.16C17.2913 19.352 17.3553 19.4693 17.5473 19.512C17.7393 19.5333 17.8566 19.4587 17.8993 19.288ZM19.7552 21.016C19.7766 20.952 19.7979 20.856 19.8193 20.728C19.8406 20.5787 19.8619 20.472 19.8833 20.408C19.9046 20.3227 19.8939 20.248 19.8513 20.184C19.8086 20.12 19.7553 20.0773 19.6913 20.056C19.6059 20.0347 19.5313 20.0453 19.4673 20.088C19.3819 20.1307 19.3393 20.184 19.3393 20.248C19.3179 20.312 19.2859 20.4187 19.2433 20.568C19.2219 20.696 19.2113 20.792 19.2113 20.856C19.1899 20.9413 19.1899 21.016 19.2113 21.08C19.2753 21.1653 19.3393 21.2187 19.4033 21.24C19.4886 21.24 19.5633 21.2293 19.6273 21.208C19.6913 21.144 19.7339 21.08 19.7552 21.016ZM20.0753 18.072C20.0753 18.0293 20.0753 17.9867 20.0753 17.944C20.0966 17.9013 20.1073 17.8587 20.1073 17.816C20.1499 17.752 20.1393 17.688 20.0753 17.624C20.0326 17.5387 19.9793 17.4853 19.9153 17.464C19.7233 17.4213 19.6059 17.496 19.5633 17.688C19.4993 17.944 19.4779 18.2107 19.4993 18.488C19.4993 18.5733 19.5206 18.6373 19.5633 18.68C19.6273 18.744 19.7019 18.776 19.7873 18.776C19.9793 18.7547 20.0646 18.6587 20.0433 18.488C20.0433 18.3387 20.0539 18.2 20.0753 18.072ZM21.1313 19.928C21.3019 19.928 21.3979 19.832 21.4193 19.64C21.4406 19.32 21.4193 18.968 21.3553 18.584C21.3339 18.52 21.2806 18.4667 21.1953 18.424C21.1313 18.3813 21.0673 18.3707 21.0033 18.392C20.8326 18.4347 20.7686 18.552 20.8113 18.744C20.8113 18.7653 20.8113 18.7973 20.8113 18.84C20.8113 18.8613 20.8113 18.8827 20.8113 18.904C20.8539 19.16 20.8646 19.4053 20.8433 19.64C20.8433 19.7253 20.8646 19.8 20.9073 19.864C20.9713 19.9067 21.0459 19.928 21.1313 19.928ZM23.7233 13.496C23.7446 13.5173 23.8086 13.5387 23.9153 13.56C24.2566 13.5813 24.7366 13.624 25.3553 13.688C25.9739 13.7307 26.3579 13.7627 26.5073 13.784V13.688C26.5073 13.624 26.5073 13.5387 26.5073 13.432C26.4433 11.832 26.2406 10.6693 25.8993 9.944C25.6859 9.47467 25.4299 9.26133 25.1313 9.304C24.9179 9.34667 24.7366 9.57067 24.5873 9.976C24.4593 10.2747 24.1606 11.3307 23.6913 13.144C23.6273 13.3147 23.6379 13.432 23.7233 13.496ZM28.7153 19.416C28.7793 19.608 28.8966 19.672 29.0673 19.608C29.2593 19.5653 29.3339 19.448 29.2913 19.256C29.2699 19.192 29.2486 19.1173 29.2273 19.032C29.2059 18.9467 29.1846 18.8613 29.1633 18.776C29.1419 18.6907 29.1206 18.6053 29.0993 18.52C29.0566 18.328 28.9393 18.264 28.7473 18.328C28.5766 18.392 28.5019 18.5093 28.5233 18.68C28.6086 19 28.6726 19.2453 28.7153 19.416ZM30.2513 18.616C30.2726 18.68 30.3259 18.7227 30.4113 18.744C30.4966 18.7653 30.5713 18.7653 30.6353 18.744C30.6993 18.68 30.7419 18.616 30.7633 18.552C30.7633 18.552 30.7633 18.5413 30.7633 18.52C30.7846 18.4987 30.7953 18.488 30.7953 18.488C30.7953 18.4453 30.7846 18.4027 30.7633 18.36C30.6993 18.2533 30.6566 18.1253 30.6353 17.976C30.6353 17.848 30.6353 17.752 30.6353 17.688C30.6566 17.624 30.6353 17.5493 30.5713 17.464C30.4859 17.4213 30.4113 17.4 30.3473 17.4C30.2833 17.4 30.2193 17.4213 30.1553 17.464C30.1126 17.528 30.0806 17.6027 30.0593 17.688C30.0593 17.8373 30.0699 17.9973 30.0913 18.168C30.1339 18.3173 30.1873 18.4667 30.2513 18.616ZM31.0513 20.664C31.1153 20.6 31.1473 20.5253 31.1473 20.44V20.088C31.1473 20.0027 31.1153 19.928 31.0513 19.864C31.0299 19.8427 30.9979 19.832 30.9553 19.832C30.9339 19.8107 30.9019 19.8 30.8593 19.8C30.7526 19.8 30.6779 19.8213 30.6353 19.864C30.5926 19.9493 30.5713 20.024 30.5713 20.088V20.44C30.5713 20.5253 30.5926 20.6 30.6353 20.664C30.6566 20.6853 30.6886 20.696 30.7313 20.696C30.7739 20.7173 30.8166 20.728 30.8593 20.728C30.9446 20.728 31.0086 20.7067 31.0513 20.664ZM32.2993 18.936C32.3846 18.9147 32.4379 18.872 32.4593 18.808C32.5019 18.744 32.5126 18.6693 32.4913 18.584C32.4486 18.4347 32.4059 18.232 32.3633 17.976C32.3419 17.912 32.2993 17.8587 32.2353 17.816C32.1499 17.7733 32.0753 17.7627 32.0113 17.784C31.9259 17.8053 31.8726 17.848 31.8513 17.912C31.8086 17.976 31.7979 18.0507 31.8193 18.136C31.8193 18.2 31.8299 18.3067 31.8513 18.456C31.8939 18.584 31.9153 18.68 31.9153 18.744C31.9366 18.808 31.9793 18.8613 32.0433 18.904C32.1286 18.9467 32.2139 18.9573 32.2993 18.936ZM46.8625 2.712C47.2252 2.968 47.5345 3.224 47.7905 3.48C48.0465 3.71467 48.2705 3.98133 48.4625 4.28C48.6545 4.55733 48.8145 4.86667 48.9425 5.208C49.0918 5.528 49.2198 5.90133 49.3265 6.328C49.4332 6.69067 49.5185 7.04267 49.5825 7.384C50.0092 9.79467 50.1158 12.0453 49.9025 14.136C49.6252 16.76 48.9105 18.7013 47.7585 19.96C47.1398 20.6213 46.4252 21.176 45.6145 21.624C44.8038 22.0507 43.9612 22.3707 43.0865 22.584C42.2118 22.776 41.3158 22.872 40.3985 22.872C38.4358 22.8507 36.9638 22.7973 35.9825 22.712C35.8545 22.712 35.7585 22.6907 35.6945 22.648C35.6305 22.584 35.5772 22.4667 35.5345 22.296C35.3638 21.2293 35.2678 20.088 35.2465 18.872C35.2252 17.656 35.2465 16.2693 35.3105 14.712C35.3958 13.1333 35.4385 11.9707 35.4385 11.224C35.4385 10.4987 35.4172 8.99467 35.3745 6.712C35.3318 4.408 35.3318 2.63733 35.3745 1.4C35.3745 1.016 35.4598 0.781333 35.6305 0.695999C35.6945 0.653332 35.7798 0.631998 35.8865 0.631998C37.7425 0.375999 39.7052 0.365332 41.7745 0.599998C42.8412 0.706665 43.7052 0.898665 44.3665 1.176C44.9638 1.41067 45.7958 1.92267 46.8625 2.712ZM36.2065 17.752V18.968C36.2065 19.0533 36.2278 19.128 36.2705 19.192C36.3345 19.2347 36.4092 19.256 36.4945 19.256C36.6865 19.256 36.7825 19.16 36.7825 18.968V17.752C36.7825 17.6667 36.7505 17.592 36.6865 17.528C36.6225 17.464 36.5585 17.4427 36.4945 17.464C36.3025 17.464 36.2065 17.56 36.2065 17.752ZM37.0065 21.816C37.0705 22.008 37.1878 22.072 37.3585 22.008C37.5505 21.944 37.6145 21.8267 37.5505 21.656C37.4865 21.4427 37.3692 21.1013 37.1985 20.632C37.1345 20.44 37.0172 20.3653 36.8465 20.408C36.6545 20.472 36.5798 20.5893 36.6225 20.76C36.8358 21.3147 36.9638 21.6667 37.0065 21.816ZM38.1585 20.376C38.3292 20.3547 38.4252 20.2587 38.4465 20.088C38.4678 19.6613 38.4465 19.224 38.3825 18.776C38.3612 18.6907 38.3078 18.6373 38.2225 18.616C38.1585 18.5733 38.0945 18.5627 38.0305 18.584C37.8598 18.6267 37.7958 18.7333 37.8385 18.904C37.8385 18.904 37.8385 18.9147 37.8385 18.936C37.8385 18.9573 37.8385 18.968 37.8385 18.968V19.032C37.8385 19.096 37.8385 19.1493 37.8385 19.192C37.8385 19.192 37.8492 19.288 37.8705 19.48C37.8705 19.6507 37.8705 19.8533 37.8705 20.088C37.8705 20.152 37.8918 20.216 37.9345 20.28C37.9985 20.344 38.0732 20.376 38.1585 20.376ZM39.1505 17.688C39.0865 17.624 39.0225 17.6133 38.9585 17.656C38.7452 17.72 38.6705 17.8373 38.7345 18.008C38.7985 18.1787 38.8518 18.3493 38.8945 18.52C38.8945 18.5413 38.8945 18.584 38.8945 18.648C38.9158 18.6907 38.9372 18.7227 38.9585 18.744C38.9585 18.7653 38.9585 18.7867 38.9585 18.808V18.84C38.9585 18.904 38.9585 18.9467 38.9585 18.968C38.9798 19.0533 39.0118 19.1173 39.0545 19.16C39.1185 19.224 39.1825 19.256 39.2465 19.256C39.3318 19.256 39.4065 19.2347 39.4705 19.192C39.5345 19.128 39.5558 19.0533 39.5345 18.968C39.5132 18.5627 39.4385 18.1893 39.3105 17.848C39.2678 17.7627 39.2145 17.7093 39.1505 17.688ZM39.4385 22.264C39.5238 22.264 39.5878 22.2427 39.6305 22.2C39.6945 22.1147 39.7265 22.04 39.7265 21.976C39.7265 21.976 39.7265 21.9653 39.7265 21.944C39.7265 21.9227 39.7265 21.912 39.7265 21.912C39.7052 21.8693 39.6732 21.8267 39.6305 21.784C39.4598 21.592 39.3425 21.4533 39.2785 21.368C39.2358 21.3253 39.1932 21.304 39.1505 21.304C39.1292 21.2827 39.0972 21.272 39.0545 21.272C38.9692 21.272 38.9052 21.304 38.8625 21.368C38.7985 21.432 38.7665 21.496 38.7665 21.56C38.7665 21.5813 38.7665 21.6027 38.7665 21.624C38.7878 21.624 38.7985 21.624 38.7985 21.624C38.7985 21.688 38.8198 21.7307 38.8625 21.752C38.9478 21.8587 39.0758 22.008 39.2465 22.2C39.2678 22.2213 39.2998 22.2427 39.3425 22.264C39.3852 22.2853 39.4172 22.2853 39.4385 22.264ZM40.6225 20.952C40.7078 20.9307 40.7718 20.888 40.8145 20.824C40.8998 20.6533 40.8678 20.5253 40.7185 20.44C40.3985 20.2693 40.1638 20.1413 40.0145 20.056C39.9505 20.0133 39.8758 20.0027 39.7905 20.024C39.7265 20.0453 39.6732 20.0987 39.6305 20.184C39.5452 20.3547 39.5772 20.4827 39.7265 20.568C39.8758 20.6533 40.0998 20.7707 40.3985 20.92C40.4838 20.9627 40.5585 20.9733 40.6225 20.952ZM40.6865 14.52C40.7932 15.544 40.8145 16.4827 40.7505 17.336C40.7292 17.5707 40.7718 17.7307 40.8785 17.816C41.0918 17.9653 41.3478 18.008 41.6465 17.944C41.9452 17.8587 42.2438 17.7093 42.5425 17.496C42.8412 17.2613 43.0972 17.0267 43.3105 16.792C43.5452 16.5573 43.7158 16.3653 43.8225 16.216C43.9932 15.9173 44.1318 15.5867 44.2385 15.224C44.3452 14.8613 44.4092 14.5627 44.4305 14.328C44.4732 14.0933 44.5158 13.752 44.5585 13.304C44.6012 12.8347 44.6332 12.4933 44.6545 12.28C44.7825 11.384 44.7185 10.4667 44.4625 9.528C44.1852 8.568 43.7478 7.77867 43.1505 7.16C42.5532 6.52 41.7958 6.18933 40.8785 6.168C40.7932 6.168 40.7398 6.17867 40.7185 6.2C40.6332 6.24267 40.6012 6.34933 40.6225 6.52C40.7505 9.12267 40.7932 10.9573 40.7505 12.024C40.7505 12.1947 40.7398 12.472 40.7185 12.856C40.6972 13.24 40.6758 13.5173 40.6545 13.688C40.6545 13.8587 40.6652 14.136 40.6865 14.52ZM42.1585 18.808H41.3585C41.2732 18.808 41.1985 18.84 41.1345 18.904C41.0918 18.9467 41.0705 19.0107 41.0705 19.096C41.0705 19.288 41.1665 19.384 41.3585 19.384H42.1585C42.2225 19.384 42.2865 19.352 42.3505 19.288C42.4145 19.224 42.4465 19.16 42.4465 19.096C42.4252 18.904 42.3292 18.808 42.1585 18.808ZM41.3585 22.328C41.8492 22.2853 42.2865 22.1253 42.6705 21.848C42.8412 21.7413 42.8732 21.6133 42.7665 21.464C42.6598 21.2933 42.5318 21.2613 42.3825 21.368C42.2545 21.4533 42.1692 21.5067 42.1265 21.528C42.0838 21.5493 42.0305 21.5707 41.9665 21.592C41.9452 21.592 41.9238 21.6027 41.9025 21.624C41.8385 21.6453 41.7425 21.6773 41.6145 21.72C41.5932 21.72 41.5612 21.7307 41.5185 21.752C41.4972 21.752 41.4758 21.752 41.4545 21.752C41.4332 21.752 41.4118 21.752 41.3905 21.752H41.3585C41.2732 21.7733 41.2092 21.8053 41.1665 21.848C41.1025 21.8907 41.0705 21.9547 41.0705 22.04C41.0705 22.1253 41.0918 22.2 41.1345 22.264C41.1985 22.328 41.2732 22.3493 41.3585 22.328ZM42.7985 20.664C42.9905 20.5787 43.1718 20.472 43.3425 20.344C43.4065 20.3013 43.4385 20.2373 43.4385 20.152C43.4385 20.0453 43.4065 19.9707 43.3425 19.928C43.2785 19.864 43.2038 19.8427 43.1185 19.864C43.0758 19.864 43.0118 19.8853 42.9265 19.928H42.9585L42.9905 19.896C42.8838 19.9813 42.7558 20.056 42.6065 20.12C42.4785 20.1627 42.3505 20.1947 42.2225 20.216C42.1372 20.216 42.0625 20.248 41.9985 20.312C41.9558 20.376 41.9345 20.4507 41.9345 20.536C41.9345 20.6 41.9558 20.664 41.9985 20.728C42.0625 20.7707 42.1372 20.792 42.2225 20.792C42.4145 20.7707 42.6065 20.728 42.7985 20.664ZM43.2465 18.936C43.3318 18.9573 43.4065 18.9467 43.4705 18.904C43.7692 18.7333 44.0038 18.4987 44.1745 18.2C44.2172 18.136 44.2278 18.0613 44.2065 17.976C44.1852 17.8907 44.1425 17.8267 44.0785 17.784C43.9078 17.6987 43.7798 17.7413 43.6945 17.912C43.6732 17.912 43.6518 17.9333 43.6305 17.976C43.6092 17.9973 43.5985 18.0187 43.5985 18.04C43.5132 18.1467 43.4065 18.2427 43.2785 18.328C43.2785 18.3493 43.2465 18.3813 43.1825 18.424C43.1185 18.4667 43.0758 18.5307 43.0545 18.616C43.0332 18.68 43.0438 18.744 43.0865 18.808C43.1292 18.872 43.1825 18.9147 43.2465 18.936ZM45.3265 20.888C45.3905 20.824 45.4332 20.76 45.4545 20.696C45.4758 20.632 45.4652 20.5573 45.4225 20.472C45.3158 20.3013 45.1772 20.2693 45.0065 20.376C44.8998 20.4613 44.7825 20.5253 44.6545 20.568C44.4838 20.6533 44.3238 20.7067 44.1745 20.728C44.1105 20.728 44.0465 20.7707 43.9825 20.856C43.9398 20.92 43.9292 20.9947 43.9505 21.08C43.9932 21.1653 44.0465 21.2293 44.1105 21.272C44.1745 21.2933 44.2492 21.2933 44.3345 21.272C44.6972 21.2293 45.0278 21.1013 45.3265 20.888ZM45.7425 18.808C45.7852 18.7653 45.8065 18.6907 45.8065 18.584C45.8065 18.4987 45.7852 18.4347 45.7425 18.392C45.6785 18.328 45.6038 18.296 45.5185 18.296C45.4545 18.296 45.3905 18.328 45.3265 18.392C45.2838 18.4133 44.9532 18.68 44.3345 19.192C44.2918 19.2347 44.2705 19.2987 44.2705 19.384C44.2705 19.4693 44.2918 19.544 44.3345 19.608C44.3985 19.672 44.4732 19.6933 44.5585 19.672C44.6225 19.672 44.6865 19.6507 44.7505 19.608C44.8145 19.544 45.1452 19.2773 45.7425 18.808ZM60.1923 0.664C61.0243 0.834665 61.8029 1.16533 62.5283 1.656C63.2749 2.12533 63.8723 2.712 64.3203 3.416C64.9389 4.376 65.3336 5.66667 65.5043 7.288C65.6536 8.67467 65.7496 9.752 65.7923 10.52C65.8563 11.288 65.8669 12.248 65.8243 13.4C65.7816 14.552 65.6536 15.6293 65.4403 16.632C65.1203 18.04 64.5549 19.3093 63.7443 20.44C62.9549 21.5493 61.9416 22.2213 60.7043 22.456C59.7869 22.6267 58.9229 22.712 58.1123 22.712C57.3229 22.712 56.5336 22.6053 55.7443 22.392C54.9763 22.1787 54.2936 21.7947 53.6963 21.24C53.1203 20.664 52.6936 19.928 52.4163 19.032C52.0536 17.944 51.7976 16.792 51.6483 15.576C51.4989 14.3387 51.4349 13.176 51.4563 12.088C51.4776 11 51.4989 9.82667 51.5203 8.568C51.5629 7.224 51.7443 6.09333 52.0643 5.176C52.2989 4.45067 52.6509 3.75733 53.1203 3.096C53.8029 2.11467 54.8376 1.41067 56.2243 0.983999C57.6109 0.557333 58.9336 0.450666 60.1923 0.664ZM57.0243 8.376C56.9389 8.80267 56.8963 9.368 56.8963 10.072C56.8536 12.4827 56.9283 14.2533 57.1203 15.384C57.3763 16.984 58.0589 17.56 59.1683 17.112C59.7656 16.8773 60.1603 15.896 60.3523 14.168C60.4589 13.0587 60.4589 11.48 60.3523 9.432C60.3309 8.64267 60.2349 7.992 60.0642 7.48C59.8296 6.712 59.4883 6.25333 59.0403 6.104C58.7203 5.976 58.3896 6.02933 58.0483 6.264C57.7069 6.47733 57.4509 6.82933 57.2803 7.32C57.1523 7.66133 57.0669 8.01333 57.0243 8.376ZM57.2163 17.432C57.1949 17.3467 57.1416 17.2827 57.0563 17.24C56.9923 17.1973 56.9283 17.1867 56.8643 17.208C56.6936 17.272 56.6296 17.3893 56.6723 17.56C56.7789 18.0507 56.8536 18.4027 56.8963 18.616C56.9176 18.7013 56.9603 18.7653 57.0243 18.808C57.1096 18.8293 57.1843 18.8293 57.2483 18.808C57.4189 18.7653 57.4829 18.648 57.4403 18.456C57.4189 18.2853 57.3443 17.944 57.2163 17.432ZM53.5683 18.936C53.5896 19 53.6429 19.0427 53.7283 19.064C53.8136 19.0853 53.8883 19.0747 53.9523 19.032C54.0376 18.9893 54.0909 18.936 54.1123 18.872C54.1123 18.8293 54.1123 18.7973 54.1123 18.776C54.1123 18.7333 54.1016 18.6907 54.0803 18.648C54.0376 18.584 53.9843 18.488 53.9203 18.36C53.8776 18.232 53.8349 18.1467 53.7923 18.104C53.7709 18.04 53.7176 17.9867 53.6323 17.944C53.5469 17.9227 53.4723 17.9333 53.4083 17.976C53.3443 18.04 53.3016 18.0933 53.2803 18.136C53.2803 18.1573 53.2803 18.1787 53.2803 18.2C53.2803 18.2 53.2803 18.2107 53.2803 18.232C53.2803 18.2747 53.2909 18.3173 53.3123 18.36C53.3336 18.424 53.3549 18.488 53.3763 18.552C53.4189 18.616 53.4509 18.68 53.4723 18.744C53.5149 18.808 53.5469 18.872 53.5683 18.936ZM55.1683 21.496C55.2536 21.4533 55.3069 21.4 55.3283 21.336C55.4349 21.1653 55.4029 21.0373 55.2323 20.952C55.1469 20.9093 55.0509 20.856 54.9443 20.792C54.8376 20.7067 54.7523 20.6107 54.6883 20.504C54.6029 20.4187 54.5389 20.3333 54.4963 20.248C54.4749 20.1627 54.4216 20.1093 54.3363 20.088C54.2509 20.0667 54.1763 20.0773 54.1123 20.12C53.9629 20.2267 53.9309 20.3653 54.0163 20.536C54.2083 20.9413 54.5176 21.2507 54.9443 21.464C55.0296 21.4853 55.1043 21.496 55.1683 21.496ZM55.0083 17.88C55.2003 18.4987 55.3389 18.9467 55.4243 19.224C55.4883 19.416 55.6056 19.48 55.7763 19.416C55.9683 19.3733 56.0429 19.256 56.0003 19.064C55.9363 18.9147 55.8616 18.6907 55.7763 18.392C55.6909 18.072 55.6269 17.848 55.5843 17.72C55.5203 17.528 55.4029 17.464 55.2323 17.528C55.0403 17.5707 54.9656 17.688 55.0083 17.88ZM56.6403 21.432C56.7896 21.56 56.9283 21.56 57.0563 21.432C57.1843 21.2827 57.1843 21.144 57.0563 21.016C56.7149 20.7173 56.4589 20.4827 56.2883 20.312C56.1389 20.1627 56.0003 20.1627 55.8723 20.312C55.7443 20.4613 55.7443 20.5893 55.8723 20.696C55.9576 20.7813 56.0429 20.8667 56.1283 20.952C56.2136 21.0373 56.2989 21.1227 56.3843 21.208C56.4909 21.2933 56.5763 21.368 56.6403 21.432ZM57.9843 20.92C58.0696 20.92 58.1336 20.888 58.1763 20.824C58.2403 20.76 58.2723 20.696 58.2723 20.632C58.2723 20.5253 58.2403 20.4613 58.1763 20.44C58.1336 20.376 58.0483 20.3013 57.9203 20.216C57.7923 20.1093 57.6963 20.0347 57.6323 19.992C57.6109 19.9707 57.5789 19.9493 57.5363 19.928C57.4936 19.9067 57.4616 19.9067 57.4403 19.928C57.3549 19.928 57.2909 19.9493 57.2483 19.992C57.1843 20.056 57.1523 20.12 57.1523 20.184C57.1523 20.2907 57.1843 20.3653 57.2483 20.408C57.3123 20.4507 57.3976 20.5253 57.5043 20.632C57.6323 20.7173 57.7283 20.7813 57.7923 20.824C57.8136 20.8453 57.8456 20.8667 57.8883 20.888C57.9096 20.9093 57.9416 20.92 57.9843 20.92ZM58.4323 19.64C58.4323 19.7253 58.4643 19.8 58.5283 19.864C58.5923 19.9067 58.6563 19.928 58.7203 19.928C58.8056 19.928 58.8803 19.9067 58.9443 19.864C59.0083 19.7787 59.0296 19.704 59.0083 19.64C58.9869 19.2987 58.9656 19.032 58.9443 18.84C58.9443 18.7547 58.9229 18.6907 58.8802 18.648C58.8163 18.584 58.7416 18.552 58.6562 18.552C58.5709 18.5733 58.5069 18.6053 58.4643 18.648C58.4003 18.712 58.3683 18.776 58.3683 18.84C58.3896 19.032 58.4109 19.2987 58.4323 19.64ZM59.3923 22.072C59.4349 22.008 59.4669 21.944 59.4883 21.88C59.5309 21.816 59.5736 21.752 59.6163 21.688C59.6589 21.624 59.6909 21.5707 59.7123 21.528C59.7549 21.4427 59.7656 21.368 59.7443 21.304C59.7229 21.2187 59.6803 21.1547 59.6163 21.112C59.5309 21.0693 59.4563 21.0587 59.3923 21.08C59.3069 21.1227 59.2429 21.176 59.2003 21.24C59.1789 21.2827 59.1363 21.368 59.0723 21.496C59.0083 21.624 58.9549 21.72 58.9123 21.784C58.8696 21.848 58.8589 21.9227 58.8802 22.008C58.9016 22.072 58.9443 22.1253 59.0083 22.168C59.0936 22.2107 59.1683 22.2213 59.2323 22.2C59.3176 22.1573 59.3709 22.1147 59.3923 22.072ZM59.6803 18.744C59.7016 18.8293 59.7443 18.8827 59.8083 18.904C60.0003 19.0107 60.1283 18.9787 60.1923 18.808C60.2349 18.7013 60.2883 18.584 60.3523 18.456C60.4163 18.3067 60.4803 18.1573 60.5443 18.008C60.6083 17.8587 60.6616 17.7307 60.7043 17.624C60.7256 17.5387 60.7363 17.464 60.7363 17.4C60.7149 17.336 60.6723 17.2827 60.6083 17.24C60.3949 17.1333 60.2563 17.1653 60.1923 17.336C60.0856 17.6133 59.9256 18.008 59.7123 18.52C59.6696 18.584 59.6589 18.6587 59.6803 18.744ZM61.3443 21.784C61.3869 21.7627 61.4083 21.7307 61.4083 21.688C61.4083 21.6453 61.4083 21.6133 61.4083 21.592C61.4083 21.5493 61.3976 21.5067 61.3763 21.464C61.3336 21.4 61.2803 21.3573 61.2163 21.336C61.1309 21.3147 61.0563 21.3253 60.9923 21.368C60.8003 21.496 60.6509 21.6027 60.5443 21.688C60.5229 21.7093 60.5016 21.7307 60.4803 21.752C60.4376 21.7947 60.4163 21.8267 60.4163 21.848C60.4163 21.8907 60.4163 21.9333 60.4163 21.976C60.4163 22.0187 60.4269 22.0507 60.4483 22.072C60.4909 22.136 60.5443 22.1787 60.6083 22.2C60.7149 22.2213 60.7896 22.2107 60.8323 22.168C60.9389 22.104 61.0883 21.9973 61.2803 21.848C61.3016 21.848 61.3229 21.8267 61.3443 21.784ZM60.9603 20.472C61.0883 20.1947 61.2376 19.9387 61.4083 19.704C61.4083 19.704 61.4083 19.7147 61.4083 19.736C61.4509 19.672 61.4723 19.5973 61.4723 19.512C61.4723 19.4267 61.4509 19.3627 61.4083 19.32C61.3443 19.256 61.2696 19.224 61.1843 19.224C61.0989 19.224 61.0349 19.256 60.9923 19.32C60.7576 19.6187 60.5763 19.9067 60.4483 20.184C60.4056 20.2693 60.3949 20.344 60.4163 20.408C60.4376 20.472 60.4803 20.5253 60.5443 20.568C60.6296 20.6107 60.7043 20.6213 60.7683 20.6C60.8536 20.5787 60.9176 20.536 60.9603 20.472ZM61.5683 18.52C61.6109 18.584 61.6643 18.6267 61.7283 18.648C61.9416 18.6907 62.0696 18.616 62.1123 18.424C62.1336 18.3173 62.1549 18.1573 62.1763 17.944C62.2189 17.7093 62.2509 17.5387 62.2723 17.432C62.2723 17.3467 62.2616 17.2827 62.2403 17.24C62.1976 17.1547 62.1336 17.1013 62.0483 17.08C61.8563 17.0373 61.7389 17.112 61.6963 17.304C61.6963 17.4107 61.6749 17.5707 61.6323 17.784C61.5896 17.9973 61.5576 18.168 61.5363 18.296C61.5363 18.3813 61.5469 18.456 61.5683 18.52ZM62.2723 20.216C62.4429 20.3653 62.5816 20.3653 62.6883 20.216C63.0509 19.7893 63.2643 19.288 63.3283 18.712C63.3283 18.648 63.2963 18.584 63.2323 18.52C63.1683 18.456 63.1043 18.424 63.0403 18.424C62.8483 18.4453 62.7523 18.5413 62.7523 18.712C62.7523 18.7333 62.7416 18.7547 62.7203 18.776C62.7203 18.7973 62.7203 18.808 62.7203 18.808C62.7203 18.808 62.7203 18.8187 62.7203 18.84C62.7203 18.8827 62.7096 18.936 62.6883 19C62.6669 19.0853 62.6563 19.1387 62.6563 19.16C62.6349 19.2027 62.6243 19.2347 62.6243 19.256C62.6029 19.2773 62.5923 19.288 62.5923 19.288L62.5603 19.352C62.5603 19.352 62.5603 19.3627 62.5603 19.384C62.5603 19.4053 62.5496 19.416 62.5283 19.416C62.5283 19.4373 62.5176 19.4693 62.4963 19.512C62.4749 19.5333 62.4643 19.5547 62.4643 19.576C62.4216 19.64 62.3896 19.6933 62.3683 19.736C62.3469 19.7573 62.3256 19.768 62.3043 19.768L62.2723 19.8C62.1443 19.9707 62.1443 20.1093 62.2723 20.216ZM64.3523 17.912C64.3523 17.72 64.2563 17.624 64.0643 17.624C63.8936 17.624 63.8083 17.72 63.8083 17.912C63.8083 18.104 63.8936 18.2 64.0643 18.2C64.2563 18.2 64.3523 18.104 64.3523 17.912ZM74.113 5.944C73.0463 6.62667 73.921 7.68267 76.737 9.112C76.8223 9.13333 76.929 9.18667 77.057 9.272C77.3983 9.44267 77.601 9.54933 77.665 9.592C78.497 10.1253 79.2437 10.7547 79.905 11.48C80.7797 12.44 81.345 13.56 81.601 14.84C81.857 16.0987 81.761 17.3253 81.313 18.52C81.1637 18.9467 80.9717 19.3733 80.737 19.8C80.0757 20.8453 79.1583 21.6133 77.985 22.104C76.833 22.5947 75.5957 22.808 74.273 22.744C72.9077 22.68 71.5103 22.328 70.081 21.688C68.6517 21.0267 67.7023 20.1413 67.233 19.032C67.1263 18.84 67.0837 18.616 67.105 18.36C67.1263 18.104 67.233 17.9333 67.425 17.848C67.5317 17.7627 67.713 17.7413 67.969 17.784C68.2463 17.8053 68.449 17.7947 68.577 17.752V17.72C67.9157 16.8027 67.9263 16.28 68.609 16.152C68.6303 16.152 68.6623 16.152 68.705 16.152C68.9397 16.1093 69.281 16.1947 69.729 16.408C69.345 15.9387 69.185 15.416 69.249 14.84C69.3343 14.264 69.697 14.1573 70.337 14.52C70.6357 14.6693 71.0623 14.9787 71.617 15.448C72.1717 15.896 72.5877 16.2053 72.865 16.376C73.6117 16.824 74.2197 17.0267 74.689 16.984C75.009 16.9627 75.297 16.824 75.553 16.568C75.809 16.312 75.905 16.0347 75.841 15.736C75.8197 15.544 75.7023 15.3307 75.489 15.096C74.913 14.3707 73.8677 13.5813 72.353 12.728C70.8597 11.8533 69.8463 11.1493 69.313 10.616C68.353 9.67733 67.7663 8.55733 67.553 7.256C67.3397 5.93333 67.5743 4.68533 68.257 3.512C68.8757 2.46667 69.7397 1.69866 70.849 1.208C71.9797 0.717332 73.2063 0.493332 74.529 0.535999C75.745 0.578665 76.9717 0.845332 78.209 1.336C79.9797 2.01867 81.057 2.62667 81.441 3.16C81.5477 3.30933 81.601 3.448 81.601 3.576C81.6223 3.68266 81.5903 3.77866 81.505 3.864C81.4197 3.928 81.3237 3.98133 81.217 4.024C81.1317 4.06667 81.0037 4.09867 80.833 4.12C80.6623 4.14133 80.5237 4.16267 80.417 4.184C80.3317 4.184 80.225 4.184 80.097 4.184C80.3957 4.41867 80.5983 4.728 80.705 5.112C80.7477 5.32533 80.737 5.48533 80.673 5.592C80.609 5.69867 80.481 5.77333 80.289 5.816C79.9477 5.92267 79.585 5.96533 79.201 5.944C79.5423 6.15733 79.777 6.33867 79.905 6.488C80.1183 6.78667 80.1503 7.064 80.001 7.32C79.873 7.55467 79.6383 7.672 79.297 7.672C79.105 7.672 78.8383 7.59733 78.497 7.448C78.4117 7.40533 78.0063 7.192 77.281 6.808C76.577 6.40267 75.937 6.11467 75.361 5.944C74.8063 5.752 74.3903 5.752 74.113 5.944ZM72.865 18.488C72.801 18.4453 72.6943 18.3813 72.545 18.296C72.417 18.1893 72.321 18.1147 72.257 18.072C72.193 18.0293 72.1183 18.0187 72.033 18.04C71.9477 18.0613 71.8943 18.104 71.873 18.168C71.8303 18.232 71.8197 18.3067 71.841 18.392C71.841 18.392 71.841 18.4027 71.841 18.424C71.841 18.424 71.8517 18.4347 71.873 18.456C71.8943 18.4987 71.9263 18.5307 71.969 18.552C72.0117 18.5947 72.065 18.648 72.129 18.712C72.2143 18.7547 72.289 18.808 72.353 18.872C72.4383 18.9147 72.513 18.9573 72.577 19C72.641 19.0213 72.7157 19.032 72.801 19.032C72.8863 18.9893 72.9397 18.936 72.961 18.872C73.0037 18.808 73.0143 18.744 72.993 18.68C72.993 18.6373 72.9823 18.6053 72.961 18.584C72.9397 18.5627 72.9077 18.5307 72.865 18.488ZM71.329 15.928C71.2223 15.7573 71.0837 15.7253 70.913 15.832C70.7637 15.9387 70.7317 16.0773 70.817 16.248C70.881 16.3547 70.977 16.536 71.105 16.792C71.2543 17.0267 71.361 17.208 71.425 17.336C71.5317 17.528 71.6597 17.56 71.809 17.432C71.9797 17.3467 72.0223 17.2187 71.937 17.048C71.7877 16.8133 71.585 16.44 71.329 15.928ZM69.345 17.144C69.3023 17.144 69.2703 17.1547 69.249 17.176C69.185 17.24 69.153 17.3147 69.153 17.4C69.153 17.4 69.153 17.4107 69.153 17.432C69.1743 17.4533 69.185 17.464 69.185 17.464C69.185 17.5067 69.2063 17.5493 69.249 17.592C69.2703 17.6133 69.2917 17.6453 69.313 17.688C69.3557 17.7307 69.3877 17.7733 69.409 17.816C69.4517 17.8373 69.4837 17.8693 69.505 17.912C69.5263 17.9333 69.5583 17.944 69.601 17.944C69.6223 17.9653 69.6543 17.976 69.697 17.976C69.7397 17.976 69.7823 17.9653 69.825 17.944C69.8463 17.944 69.8783 17.9333 69.921 17.912C69.9637 17.848 69.985 17.7733 69.985 17.688C69.985 17.688 69.985 17.6773 69.985 17.656C69.985 17.6347 69.985 17.624 69.985 17.624C69.9637 17.56 69.9317 17.5173 69.889 17.496C69.8677 17.4533 69.825 17.4 69.761 17.336C69.7183 17.272 69.6863 17.2187 69.665 17.176C69.6223 17.1547 69.5903 17.144 69.569 17.144C69.5263 17.1227 69.4837 17.112 69.441 17.112C69.3983 17.112 69.3663 17.1227 69.345 17.144ZM69.601 20.664C69.793 20.7493 69.9317 20.7173 70.017 20.568C70.1023 20.376 70.0703 20.2373 69.921 20.152C69.665 20.024 69.4303 19.8747 69.217 19.704C69.1957 19.704 69.1743 19.704 69.153 19.704C69.153 19.6827 69.153 19.672 69.153 19.672C69.1317 19.672 69.121 19.6613 69.121 19.64C69.0997 19.64 69.089 19.6293 69.089 19.608C69.0463 19.5867 68.993 19.544 68.929 19.48C68.9077 19.4587 68.8757 19.4373 68.833 19.416C68.7903 19.3733 68.7477 19.3307 68.705 19.288C68.6837 19.2453 68.6517 19.2133 68.609 19.192C68.481 19.064 68.353 19.064 68.225 19.192C68.097 19.3413 68.097 19.48 68.225 19.608C68.6303 20.0347 69.089 20.3867 69.601 20.664ZM69.985 18.872C70.2623 19.1493 70.5717 19.3733 70.913 19.544C70.9983 19.5653 71.073 19.576 71.137 19.576C71.2223 19.5333 71.2757 19.48 71.297 19.416C71.3397 19.3307 71.3503 19.256 71.329 19.192C71.3077 19.1067 71.265 19.0533 71.201 19.032C71.009 18.9467 70.8277 18.84 70.657 18.712C70.593 18.6693 70.5077 18.5947 70.401 18.488C70.273 18.3387 70.1343 18.3387 69.985 18.488C69.857 18.616 69.857 18.744 69.985 18.872ZM72.577 21.592C72.769 21.6347 72.8863 21.5707 72.929 21.4C72.9717 21.208 72.9077 21.0907 72.737 21.048C72.3743 20.984 72.0117 20.8773 71.649 20.728C71.585 20.7067 71.5317 20.7067 71.489 20.728C71.4463 20.728 71.4037 20.7493 71.361 20.792C71.3183 20.8347 71.2863 20.8773 71.265 20.92C71.2437 21.0907 71.3183 21.208 71.489 21.272C71.8517 21.4213 72.2143 21.528 72.577 21.592ZM73.857 20.728C73.921 20.6853 73.9637 20.632 73.985 20.568C74.0063 20.4613 73.9957 20.3867 73.953 20.344C73.9103 20.28 73.8463 20.2267 73.761 20.184C73.505 20.0773 73.185 19.96 72.801 19.832C72.737 19.7893 72.6623 19.8 72.577 19.864C72.513 19.9067 72.4703 19.96 72.449 20.024C72.4277 20.1093 72.4383 20.184 72.481 20.248C72.5237 20.312 72.577 20.3547 72.641 20.376C72.8757 20.4613 73.2063 20.5893 73.633 20.76C73.697 20.7813 73.7717 20.7707 73.857 20.728ZM73.345 17.656C73.2597 17.8267 73.2917 17.9653 73.441 18.072C73.7823 18.2853 74.1557 18.4347 74.561 18.52C74.753 18.5627 74.8703 18.4987 74.913 18.328C74.9557 18.1147 74.881 17.9973 74.689 17.976C74.5823 17.9547 74.497 17.9333 74.433 17.912C74.369 17.8907 74.3263 17.8693 74.305 17.848C74.2837 17.848 74.2623 17.848 74.241 17.848C74.241 17.848 74.241 17.8373 74.241 17.816H74.177H74.209H74.145C74.145 17.7947 74.1343 17.784 74.113 17.784C74.113 17.784 74.1023 17.784 74.081 17.784C74.0597 17.7627 74.0277 17.7413 73.985 17.72C73.921 17.6773 73.8357 17.624 73.729 17.56C73.5583 17.4533 73.4303 17.4853 73.345 17.656ZM75.169 20.056C75.2117 20.056 75.2437 20.0347 75.265 19.992C75.329 19.928 75.361 19.864 75.361 19.8C75.3397 19.6933 75.3077 19.6187 75.265 19.576C75.2437 19.576 75.2223 19.5653 75.201 19.544C75.1583 19.5227 75.105 19.512 75.041 19.512C74.9343 19.4907 74.7743 19.4693 74.561 19.448C74.5183 19.448 74.4863 19.4587 74.465 19.48C74.4223 19.48 74.3903 19.4907 74.369 19.512C74.305 19.576 74.273 19.6507 74.273 19.736C74.273 19.8213 74.305 19.8853 74.369 19.928C74.3903 19.9493 74.4117 19.96 74.433 19.96C74.4757 20.0027 74.5183 20.024 74.561 20.024C74.7957 20.0453 74.9557 20.0667 75.041 20.088C75.105 20.088 75.1477 20.0773 75.169 20.056Z" fill="white"/>
</svg>
