<svg width="92" height="24" viewBox="0 0 92 24" fill="none" xmlns="http://www.w3.org/2000/svg">
<path d="M11.768 2.904C12.472 3.416 13.0053 3.93867 13.368 4.472C13.7307 5.00533 14.0187 5.688 14.232 6.52C14.3387 6.904 14.424 7.26667 14.488 7.608C14.7653 9.16533 14.8507 11.512 14.744 14.648C14.7013 15.48 14.6373 16.216 14.552 16.856C14.4667 17.4747 14.3173 18.136 14.104 18.84C13.8907 19.544 13.56 20.1733 13.112 20.728C12.6853 21.2613 12.1413 21.688 11.48 22.008C10.4133 22.584 9.41067 22.84 8.472 22.776C7.91733 22.7333 7.46933 22.6053 7.128 22.392C6.78667 22.1787 6.79733 21.848 7.16 21.4C7.33067 21.1867 7.65067 20.9627 8.12 20.728C7.672 20.7067 7.34133 20.632 7.128 20.504C6.95733 20.4187 6.82933 20.3013 6.744 20.152C6.68 19.9813 6.66933 19.8213 6.712 19.672C6.776 19.5013 6.91467 19.3413 7.128 19.192C7.34133 19.064 7.56533 18.968 7.8 18.904C7.50133 18.7973 7.27733 18.68 7.128 18.552C6.89333 18.36 6.808 18.1467 6.872 17.912C6.89333 17.8053 6.94667 17.7093 7.032 17.624C7.13867 17.5387 7.224 17.4853 7.288 17.464C7.37333 17.4213 7.50133 17.3787 7.672 17.336C7.84267 17.272 7.94933 17.2293 7.992 17.208C8.632 16.952 9.06933 16.4187 9.304 15.608C9.51733 14.8187 9.66667 13.9867 9.752 13.112C9.83733 12.216 9.816 11.288 9.688 10.328C9.56 9.368 9.304 8.55733 8.92 7.896C8.83467 7.74667 8.73867 7.61867 8.632 7.512C8.52533 7.40533 8.41867 7.32 8.312 7.256C8.22667 7.17067 8.09867 7.096 7.928 7.032C7.77867 6.968 7.66133 6.92533 7.576 6.904C7.512 6.86133 7.37333 6.82933 7.16 6.808C6.94667 6.78667 6.808 6.776 6.744 6.776C6.68 6.75467 6.52 6.73333 6.264 6.712C6.02933 6.69067 5.89067 6.68 5.848 6.68C5.74133 6.68 5.67733 6.70133 5.656 6.744C5.61333 6.78667 5.592 6.84 5.592 6.904C5.528 7.992 5.48533 9.12267 5.464 10.296C5.464 11.448 5.47467 12.8453 5.496 14.488C5.51733 16.1093 5.528 17.24 5.528 17.88C5.528 20.0133 5.50667 21.3787 5.464 21.976C5.44267 22.5307 5.29333 22.8293 5.016 22.872C4.76 22.936 4.51467 22.808 4.28 22.488C4.04533 22.1467 3.94933 21.848 3.992 21.592C3.94933 21.912 3.864 22.2107 3.736 22.488C3.65067 22.68 3.55467 22.808 3.448 22.872C3.27733 22.9787 3.096 22.9893 2.904 22.904C2.73333 22.8187 2.59467 22.6907 2.488 22.52C2.31733 22.264 2.22133 21.976 2.2 21.656C2.24267 22.0187 2.04 22.36 1.592 22.68C1.144 22.9787 0.792 22.9573 0.536 22.616C0.472 22.5307 0.418667 22.3707 0.376 22.136C0.248 21.0693 0.184 19.9493 0.184 18.776C0.184 17.5813 0.205333 16.2693 0.248 14.84C0.312 13.3893 0.344 12.2587 0.344 11.448C0.344 10.616 0.333333 9.528 0.312 8.184C0.290667 6.81867 0.269333 5.72 0.248 4.888C0.248 4.056 0.248 2.95733 0.248 1.592C0.248 1.22933 0.344 1.00533 0.536 0.919998C0.578667 0.877332 0.664 0.845332 0.792 0.823999C2.648 0.567999 4.6 0.557332 6.648 0.792C7.736 0.919999 8.6 1.112 9.24 1.368C9.83733 1.60267 10.68 2.11467 11.768 2.904ZM1.624 19.96C1.624 19.8533 1.64533 19.736 1.688 19.608C1.73067 19.416 1.66667 19.2987 1.496 19.256C1.304 19.2133 1.18667 19.2773 1.144 19.448C0.994667 19.9813 0.952 20.504 1.016 21.016C1.03733 21.208 1.13333 21.304 1.304 21.304C1.368 21.304 1.432 21.2827 1.496 21.24C1.56 21.176 1.592 21.1013 1.592 21.016C1.57067 20.76 1.56 20.5147 1.56 20.28C1.58133 20.216 1.592 20.1627 1.592 20.12V20.088V20.056C1.592 20.056 1.592 20.0453 1.592 20.024C1.592 20.0027 1.60267 19.9813 1.624 19.96ZM1.688 17.656C1.73067 17.592 1.752 17.528 1.752 17.464C1.77333 17.1653 1.752 16.8667 1.688 16.568C1.66667 16.504 1.61333 16.4507 1.528 16.408C1.464 16.3653 1.4 16.3547 1.336 16.376C1.16533 16.4187 1.10133 16.536 1.144 16.728C1.144 16.7493 1.144 16.7813 1.144 16.824C1.16533 16.8667 1.176 16.8987 1.176 16.92C1.19733 17.0907 1.19733 17.272 1.176 17.464C1.176 17.528 1.208 17.592 1.272 17.656C1.336 17.72 1.4 17.7413 1.464 17.72C1.54933 17.72 1.624 17.6987 1.688 17.656ZM2.84 19.32C2.904 19.256 2.936 19.1813 2.936 19.096V18.616C2.936 18.5307 2.904 18.4667 2.84 18.424C2.776 18.36 2.712 18.328 2.648 18.328C2.56267 18.328 2.49867 18.36 2.456 18.424C2.392 18.488 2.36 18.552 2.36 18.616V19.096C2.36 19.1813 2.392 19.256 2.456 19.32C2.49867 19.3627 2.56267 19.384 2.648 19.384C2.73333 19.384 2.79733 19.3627 2.84 19.32ZM2.648 17.08C2.648 17.144 2.68 17.208 2.744 17.272C2.78667 17.336 2.85067 17.368 2.936 17.368C3.02133 17.3467 3.08533 17.3147 3.128 17.272C3.17067 17.2293 3.20267 17.1653 3.224 17.08V17.048V16.984C3.224 16.984 3.224 16.9733 3.224 16.952C3.24533 16.9093 3.256 16.8773 3.256 16.856C3.27733 16.7493 3.288 16.6747 3.288 16.632C3.33067 16.44 3.37333 16.2693 3.416 16.12C3.48 15.928 3.416 15.8107 3.224 15.768C3.05333 15.7253 2.936 15.7893 2.872 15.96C2.76533 16.3013 2.69067 16.6747 2.648 17.08ZM3.256 21.912C3.448 21.912 3.544 21.816 3.544 21.624V20.632C3.544 20.568 3.512 20.504 3.448 20.44C3.40533 20.376 3.34133 20.344 3.256 20.344C3.064 20.3653 2.968 20.4613 2.968 20.632V21.624C2.968 21.7093 2.98933 21.784 3.032 21.848C3.096 21.8907 3.17067 21.912 3.256 21.912ZM4.504 19.992C4.58933 19.9707 4.64267 19.928 4.664 19.864C4.70667 19.8 4.71733 19.7253 4.696 19.64C4.67467 19.576 4.64267 19.512 4.6 19.448C4.57867 19.3627 4.55733 19.2773 4.536 19.192C4.51467 19.1067 4.49333 19.032 4.472 18.968C4.45067 18.904 4.408 18.8507 4.344 18.808C4.25867 18.7653 4.184 18.7547 4.12 18.776C4.03467 18.7973 3.97067 18.84 3.928 18.904C3.88533 18.9893 3.87467 19.064 3.896 19.128C3.91733 19.192 3.93867 19.2667 3.96 19.352C4.00267 19.416 4.03467 19.4907 4.056 19.576C4.09867 19.6613 4.13067 19.736 4.152 19.8C4.17333 19.8853 4.216 19.9387 4.28 19.96C4.344 20.0027 4.41867 20.0133 4.504 19.992ZM4.536 17.72C4.728 17.72 4.824 17.6347 4.824 17.464C4.86667 17.1227 4.84533 16.76 4.76 16.376C4.76 16.312 4.71733 16.2587 4.632 16.216C4.568 16.1733 4.49333 16.1627 4.408 16.184C4.23733 16.2267 4.17333 16.344 4.216 16.536C4.216 16.5787 4.22667 16.632 4.248 16.696C4.26933 16.952 4.26933 17.208 4.248 17.464C4.248 17.5067 4.25867 17.5493 4.28 17.592C4.32267 17.6347 4.36533 17.6667 4.408 17.688C4.45067 17.7093 4.49333 17.72 4.536 17.72ZM11.8 15.832C11.736 15.896 11.704 15.96 11.704 16.024C11.704 16.1733 11.704 16.28 11.704 16.344C11.704 16.3867 11.7147 16.4187 11.736 16.44C11.7573 16.4827 11.7787 16.5147 11.8 16.536C11.8213 16.5787 11.8533 16.6 11.896 16.6C11.9173 16.6213 11.9493 16.632 11.992 16.632C11.992 16.632 12.0027 16.632 12.024 16.632C12.0453 16.632 12.056 16.632 12.056 16.632C12.12 16.6107 12.1627 16.5787 12.184 16.536C12.248 16.4933 12.28 16.4293 12.28 16.344V16.024C12.28 15.9813 12.2693 15.9493 12.248 15.928C12.2267 15.8853 12.2053 15.8533 12.184 15.832C12.1627 15.7893 12.1413 15.768 12.12 15.768C12.0773 15.7467 12.0347 15.736 11.992 15.736H11.96L11.928 15.768C11.864 15.768 11.8213 15.7893 11.8 15.832ZM12.088 17.304C12.024 17.24 11.9493 17.2187 11.864 17.24C11.7787 17.24 11.7147 17.2613 11.672 17.304C11.416 17.6027 11.2347 17.8267 11.128 17.976C11.064 18.04 11.032 18.1147 11.032 18.2C11.032 18.2853 11.064 18.3493 11.128 18.392C11.1707 18.456 11.2347 18.4773 11.32 18.456C11.4053 18.456 11.4693 18.4347 11.512 18.392C11.5547 18.3493 11.5973 18.296 11.64 18.232C11.704 18.168 11.7573 18.1147 11.8 18.072C11.8427 18.008 11.8853 17.944 11.928 17.88C11.992 17.816 12.0453 17.7627 12.088 17.72C12.1307 17.6347 12.152 17.5707 12.152 17.528C12.152 17.4427 12.1307 17.368 12.088 17.304ZM7.928 18.2C7.992 18.2853 8.056 18.328 8.12 18.328C8.44 18.4133 8.73867 18.3707 9.016 18.2C9.08 18.136 9.12267 18.072 9.144 18.008C9.16533 17.9227 9.15467 17.848 9.112 17.784C9.06933 17.72 9.00533 17.6773 8.92 17.656C8.83467 17.6347 8.77067 17.6453 8.728 17.688C8.70667 17.688 8.68533 17.6987 8.664 17.72C8.64267 17.72 8.62133 17.7307 8.6 17.752C8.536 17.7733 8.49333 17.784 8.472 17.784C8.408 17.784 8.35467 17.784 8.312 17.784C8.29067 17.784 8.26933 17.784 8.248 17.784C8.184 17.7627 8.10933 17.7733 8.024 17.816C7.96 17.8587 7.91733 17.912 7.896 17.976C7.87467 18.0613 7.88533 18.136 7.928 18.2ZM8.44 21.752C9.12267 21.624 9.57067 21.528 9.784 21.464C9.86933 21.464 9.93333 21.432 9.976 21.368C10.0187 21.2827 10.0293 21.1973 10.008 21.112C9.944 20.9413 9.816 20.8773 9.624 20.92C9.496 20.9413 9.272 20.9947 8.952 21.08C8.65333 21.144 8.42933 21.1867 8.28 21.208C8.216 21.2293 8.16267 21.2827 8.12 21.368C8.07733 21.432 8.06667 21.496 8.088 21.56C8.152 21.7307 8.26933 21.7947 8.44 21.752ZM8.536 20.088C9.048 20.0453 9.528 19.9067 9.976 19.672C10.1467 19.5653 10.1787 19.4267 10.072 19.256C9.98667 19.1067 9.85867 19.0747 9.688 19.16C9.66667 19.16 9.63467 19.1707 9.592 19.192C9.57067 19.2133 9.56 19.224 9.56 19.224C9.496 19.2453 9.464 19.2667 9.464 19.288C9.464 19.288 9.45333 19.288 9.432 19.288C9.32533 19.3307 9.22933 19.3627 9.144 19.384C9.016 19.4267 8.90933 19.4587 8.824 19.48C8.80267 19.48 8.77067 19.48 8.728 19.48C8.70667 19.48 8.68533 19.48 8.664 19.48L8.632 19.512C8.632 19.512 8.62133 19.512 8.6 19.512C8.57867 19.512 8.55733 19.512 8.536 19.512C8.344 19.5333 8.25867 19.6293 8.28 19.8C8.28 19.864 8.30133 19.928 8.344 19.992C8.408 20.056 8.472 20.088 8.536 20.088ZM9.88 16.984C9.70933 17.0907 9.67733 17.2293 9.784 17.4C9.86933 17.5493 9.99733 17.5813 10.168 17.496C10.488 17.3253 10.776 17.112 11.032 16.856C11.1813 16.728 11.1813 16.5893 11.032 16.44C10.904 16.3333 10.7653 16.3333 10.616 16.44C10.5947 16.4827 10.5093 16.568 10.36 16.696C10.2107 16.8027 10.0507 16.8987 9.88 16.984ZM11.448 21.208C11.8747 20.696 12.248 20.152 12.568 19.576C12.6747 19.384 12.6427 19.256 12.472 19.192C12.3013 19.0853 12.1733 19.1173 12.088 19.288C11.9387 19.544 11.768 19.8107 11.576 20.088C11.4693 20.2373 11.384 20.3653 11.32 20.472C11.32 20.472 11.3093 20.4827 11.288 20.504C11.2667 20.5253 11.256 20.536 11.256 20.536L11.224 20.568C11.224 20.5893 11.2133 20.6 11.192 20.6C11.192 20.6213 11.1707 20.6533 11.128 20.696C11.0853 20.7387 11.0533 20.7707 11.032 20.792C10.904 20.9627 10.904 21.1013 11.032 21.208C11.2027 21.336 11.3413 21.336 11.448 21.208ZM13.336 18.84C13.5067 18.8827 13.624 18.808 13.688 18.616C13.8587 18.0613 13.944 17.4853 13.944 16.888C13.944 16.8027 13.912 16.7387 13.848 16.696C13.8053 16.632 13.7413 16.6 13.656 16.6C13.464 16.6213 13.368 16.7173 13.368 16.888C13.368 17.144 13.368 17.2827 13.368 17.304C13.3467 17.432 13.3253 17.56 13.304 17.688C13.2613 17.9227 13.1973 18.1893 13.112 18.488C13.0693 18.68 13.144 18.7973 13.336 18.84ZM31.2433 18.328C31.4993 18.456 31.5739 18.6267 31.4673 18.84C31.4246 18.904 31.3393 18.968 31.2113 19.032C30.7633 19.288 30.2726 19.48 29.7393 19.608C29.8246 19.6293 29.9526 19.64 30.1233 19.64C30.2939 19.64 30.4326 19.64 30.5393 19.64C30.6886 19.6613 30.8166 19.7147 30.9233 19.8C31.0513 19.8853 31.1259 19.9813 31.1473 20.088C31.1473 20.3227 30.9979 20.4933 30.6993 20.6C30.6566 20.6213 30.5499 20.6533 30.3793 20.696C30.2299 20.7387 30.1126 20.7813 30.0273 20.824C30.3259 20.76 30.6886 20.92 31.1153 21.304C31.3499 21.496 31.4673 21.6773 31.4673 21.848C31.4673 22.1467 31.1793 22.3493 30.6033 22.456C30.1766 22.52 29.6966 22.5733 29.1633 22.616C28.6299 22.6373 28.1926 22.6587 27.8513 22.68C27.5313 22.68 27.0406 22.6907 26.3793 22.712C25.7179 22.712 25.2699 22.712 25.0353 22.712C22.4753 22.776 20.5979 22.776 19.4033 22.712C19.3606 22.712 19.2219 22.712 18.9873 22.712C18.7526 22.6907 18.5606 22.68 18.4113 22.68C18.2833 22.6587 18.1126 22.6373 17.8993 22.616C17.7073 22.5733 17.5366 22.52 17.3873 22.456C17.2593 22.392 17.1633 22.3067 17.0993 22.2C16.9926 22.0507 16.9393 21.816 16.9393 21.496C16.8753 20.4933 16.8219 19.4373 16.7793 18.328C16.7579 17.2187 16.7473 16.248 16.7473 15.416C16.7473 14.584 16.7473 13.5067 16.7473 12.184C16.7686 10.84 16.7793 9.85867 16.7793 9.24C16.8006 8.62133 16.8326 7.544 16.8753 6.008C16.9179 4.45067 16.9393 3.43733 16.9393 2.968C16.9393 2.904 16.9286 2.744 16.9073 2.488C16.9073 2.232 16.9073 2.01867 16.9073 1.848C16.9073 1.67733 16.9286 1.496 16.9713 1.304C17.0353 1.112 17.1313 0.973332 17.2593 0.887999C17.4513 0.759999 17.7819 0.685333 18.2513 0.664C19.6166 0.621332 21.2273 0.621332 23.0833 0.664C25.4513 0.706666 27.0939 0.695999 28.0113 0.631998C29.1419 0.546666 29.8993 0.525333 30.2833 0.567999C30.8379 0.653332 31.1686 0.845332 31.2753 1.144C31.3606 1.4 31.2966 1.656 31.0833 1.912C30.9553 2.06133 30.7313 2.22133 30.4113 2.392C30.6246 2.264 30.8059 2.38133 30.9553 2.744C31.1686 3.21333 31.0939 3.544 30.7313 3.736C30.5606 3.8 30.3579 3.832 30.1233 3.832C30.5499 4.024 30.8486 4.28 31.0193 4.6C31.2326 5.02667 31.2006 5.38933 30.9233 5.688C30.7099 5.90133 30.3259 6.01867 29.7713 6.04C28.1926 6.104 25.7819 6.2 22.5393 6.328C22.5606 6.54133 22.5499 6.904 22.5073 7.416C22.4859 7.928 22.4859 8.29067 22.5073 8.504C22.5286 8.54667 22.5606 8.73867 22.6033 9.08C22.6673 9.4 22.7099 9.64533 22.7313 9.816C23.1153 9.816 23.6699 9.816 24.3953 9.816C25.1419 9.816 25.6326 9.816 25.8673 9.816C26.9126 9.79467 27.8726 9.86933 28.7473 10.04C29.1099 10.104 29.3233 10.2533 29.3873 10.488C29.4513 10.7653 29.3339 10.9893 29.0353 11.16C28.8859 11.2453 28.6299 11.3093 28.2673 11.352C28.3739 11.416 28.5873 11.48 28.9073 11.544C29.2486 11.608 29.4619 11.7147 29.5473 11.864C29.6326 11.992 29.6433 12.1413 29.5793 12.312C29.5153 12.4827 29.3979 12.6107 29.2273 12.696C29.0353 12.8027 28.7046 12.8453 28.2353 12.824C28.6193 12.9947 28.8753 13.1547 29.0033 13.304C29.2593 13.5813 29.3233 13.8587 29.1953 14.136C29.0673 14.4347 28.6939 14.5947 28.0753 14.616C25.6859 14.744 23.8726 14.84 22.6353 14.904C22.6353 14.9253 22.6353 14.9787 22.6353 15.064C22.6353 15.128 22.6353 15.256 22.6353 15.448C22.6566 15.6187 22.6779 15.8 22.6993 15.992C22.7206 16.1627 22.7419 16.3547 22.7633 16.568C22.7846 16.7813 22.8059 16.9733 22.8273 17.144C22.8486 17.2933 22.8699 17.4427 22.8913 17.592C22.9126 17.72 22.9233 17.7947 22.9233 17.816C22.9233 17.9013 22.9446 17.9547 22.9873 17.976C23.0299 18.0187 23.1473 18.0507 23.3393 18.072C23.5526 18.072 23.7446 18.072 23.9153 18.072C24.1073 18.0507 24.2673 18.0507 24.3953 18.072C24.6939 18.0933 25.3766 18.1147 26.4433 18.136C29.2379 18.1787 30.6459 18.2 30.6673 18.2C30.9446 18.2 31.1366 18.2427 31.2433 18.328ZM28.4913 18.68C28.3633 18.68 28.1713 18.68 27.9153 18.68C27.6593 18.68 27.4673 18.68 27.3393 18.68C27.2539 18.68 27.1793 18.712 27.1153 18.776C27.0513 18.8187 27.0299 18.8827 27.0513 18.968C27.0513 19.16 27.1473 19.256 27.3393 19.256H28.4913C28.5766 19.256 28.6406 19.2347 28.6833 19.192C28.7473 19.128 28.7793 19.0533 28.7793 18.968C28.7793 18.776 28.6833 18.68 28.4913 18.68ZM22.9873 21.624C23.0086 21.6027 23.0299 21.5707 23.0513 21.528C23.0726 21.4853 23.0726 21.4533 23.0513 21.432C23.0513 21.432 23.0513 21.4213 23.0513 21.4C23.0513 21.3787 23.0513 21.368 23.0513 21.368C23.0299 21.304 23.0086 21.2613 22.9873 21.24C22.9233 21.176 22.8486 21.144 22.7633 21.144H22.4753C22.4539 21.144 22.4113 21.1547 22.3473 21.176C22.3046 21.176 22.2726 21.1973 22.2513 21.24C22.2299 21.2613 22.2193 21.2827 22.2193 21.304C22.1979 21.3467 22.1873 21.3893 22.1873 21.432C22.1873 21.432 22.1873 21.4427 22.1873 21.464C22.1873 21.4853 22.1873 21.496 22.1873 21.496C22.2086 21.56 22.2299 21.6027 22.2513 21.624C22.3153 21.688 22.3899 21.72 22.4753 21.72H22.7633C22.8059 21.72 22.8379 21.72 22.8593 21.72C22.9019 21.6987 22.9446 21.6667 22.9873 21.624ZM23.3073 19.992C23.2433 20.0347 23.2006 20.0987 23.1793 20.184C23.1366 20.376 23.2006 20.4933 23.3713 20.536C23.4779 20.5573 23.5953 20.5787 23.7233 20.6C23.8726 20.6213 24.0219 20.6427 24.1713 20.664C24.3206 20.6853 24.4486 20.7067 24.5553 20.728C24.6406 20.7493 24.7153 20.7387 24.7793 20.696C24.8433 20.6747 24.8859 20.6213 24.9073 20.536C24.9499 20.3227 24.8753 20.2053 24.6833 20.184C24.5553 20.1627 24.3633 20.1307 24.1073 20.088C23.8513 20.0453 23.6593 20.0027 23.5312 19.96C23.4459 19.96 23.3713 19.9707 23.3073 19.992ZM24.3633 21.848H25.4833C25.5259 21.848 25.5686 21.8373 25.6113 21.816C25.6753 21.7733 25.7179 21.7307 25.7393 21.688C25.7606 21.6453 25.7713 21.6027 25.7713 21.56C25.7713 21.368 25.6753 21.272 25.4833 21.272H24.3633C24.2993 21.272 24.2353 21.304 24.1713 21.368C24.1073 21.4107 24.0753 21.4747 24.0753 21.56C24.0966 21.752 24.1926 21.848 24.3633 21.848ZM25.6753 19.224C25.7606 19.1813 25.8033 19.128 25.8033 19.064C25.8673 18.8507 25.8033 18.7333 25.6113 18.712C25.1846 18.6267 24.7473 18.616 24.2993 18.68C24.2139 18.68 24.1499 18.7013 24.1073 18.744C24.0433 18.808 24.0113 18.8827 24.0113 18.968C24.0326 19.032 24.0646 19.096 24.1073 19.16C24.1713 19.224 24.2353 19.256 24.2993 19.256C24.5339 19.2133 24.7366 19.2027 24.9073 19.224C24.9926 19.224 25.0886 19.224 25.1953 19.224C25.2806 19.2453 25.3339 19.256 25.3553 19.256C25.3979 19.256 25.4299 19.256 25.4513 19.256C25.5579 19.2773 25.6326 19.2667 25.6753 19.224ZM26.2513 20.44C26.2513 20.6107 26.3473 20.7067 26.5393 20.728C26.8806 20.7493 27.2326 20.6747 27.5953 20.504C27.7659 20.4187 27.7979 20.2907 27.6913 20.12C27.6059 19.9707 27.4779 19.9387 27.3073 20.024C27.3073 20.024 27.2966 20.024 27.2753 20.024C27.2539 20.0453 27.2433 20.056 27.2433 20.056C27.0939 20.0987 26.9659 20.1307 26.8593 20.152C26.7099 20.1733 26.5926 20.184 26.5073 20.184C26.4433 20.1627 26.3793 20.184 26.3153 20.248C26.2726 20.312 26.2513 20.376 26.2513 20.44ZM29.0033 21.464C29.0673 21.4427 29.1099 21.3893 29.1313 21.304C29.1526 21.2187 29.1419 21.144 29.0993 21.08C29.0566 20.9947 29.0033 20.952 28.9393 20.952C28.8539 20.9307 28.7793 20.9413 28.7153 20.984C28.7153 20.984 28.7046 20.984 28.6833 20.984C28.6619 21.0053 28.6406 21.016 28.6193 21.016C28.6193 21.016 28.5979 21.0267 28.5553 21.048C28.5339 21.048 28.5126 21.048 28.4913 21.048C28.3846 21.0907 28.2886 21.112 28.2033 21.112C28.2033 21.112 28.1926 21.1227 28.1713 21.144C28.1713 21.144 28.1606 21.144 28.1393 21.144C28.1179 21.144 28.0859 21.144 28.0433 21.144C28.0219 21.144 28.0113 21.144 28.0113 21.144C27.9046 21.144 27.7979 21.144 27.6913 21.144C27.6273 21.144 27.5633 21.176 27.4993 21.24C27.4353 21.304 27.4033 21.368 27.4033 21.432C27.4246 21.6027 27.5206 21.6987 27.6913 21.72C28.1393 21.7413 28.5766 21.656 29.0033 21.464ZM39.5193 5.944C38.4526 6.62667 39.3273 7.68267 42.1433 9.112C42.2286 9.13333 42.3353 9.18667 42.4633 9.272C42.8046 9.44267 43.0073 9.54933 43.0713 9.592C43.9033 10.1253 44.6499 10.7547 45.3113 11.48C46.1859 12.44 46.7513 13.56 47.0073 14.84C47.2633 16.0987 47.1673 17.3253 46.7193 18.52C46.5699 18.9467 46.3779 19.3733 46.1433 19.8C45.4819 20.8453 44.5646 21.6133 43.3913 22.104C42.2393 22.5947 41.0019 22.808 39.6793 22.744C38.3139 22.68 36.9166 22.328 35.4873 21.688C34.0579 21.0267 33.1086 20.1413 32.6393 19.032C32.5326 18.84 32.4899 18.616 32.5113 18.36C32.5326 18.104 32.6393 17.9333 32.8313 17.848C32.9379 17.7627 33.1193 17.7413 33.3753 17.784C33.6526 17.8053 33.8553 17.7947 33.9833 17.752V17.72C33.3219 16.8027 33.3326 16.28 34.0153 16.152C34.0366 16.152 34.0686 16.152 34.1113 16.152C34.3459 16.1093 34.6873 16.1947 35.1353 16.408C34.7513 15.9387 34.5913 15.416 34.6553 14.84C34.7406 14.264 35.1033 14.1573 35.7433 14.52C36.0419 14.6693 36.4686 14.9787 37.0233 15.448C37.5779 15.896 37.9939 16.2053 38.2713 16.376C39.0179 16.824 39.6259 17.0267 40.0953 16.984C40.4153 16.9627 40.7033 16.824 40.9593 16.568C41.2153 16.312 41.3113 16.0347 41.2473 15.736C41.2259 15.544 41.1086 15.3307 40.8953 15.096C40.3193 14.3707 39.2739 13.5813 37.7593 12.728C36.2659 11.8533 35.2526 11.1493 34.7193 10.616C33.7593 9.67733 33.1726 8.55733 32.9593 7.256C32.7459 5.93333 32.9806 4.68533 33.6633 3.512C34.2819 2.46667 35.1459 1.69866 36.2552 1.208C37.3859 0.717332 38.6126 0.493332 39.9353 0.535999C41.1513 0.578665 42.3779 0.845332 43.6153 1.336C45.3859 2.01867 46.4633 2.62667 46.8473 3.16C46.9539 3.30933 47.0073 3.448 47.0073 3.576C47.0286 3.68266 46.9966 3.77866 46.9113 3.864C46.8259 3.928 46.7299 3.98133 46.6233 4.024C46.5379 4.06667 46.4099 4.09867 46.2393 4.12C46.0686 4.14133 45.9299 4.16267 45.8233 4.184C45.7379 4.184 45.6313 4.184 45.5033 4.184C45.8019 4.41867 46.0046 4.728 46.1113 5.112C46.1539 5.32533 46.1433 5.48533 46.0793 5.592C46.0153 5.69867 45.8873 5.77333 45.6953 5.816C45.3539 5.92267 44.9913 5.96533 44.6073 5.944C44.9486 6.15733 45.1833 6.33867 45.3113 6.488C45.5246 6.78667 45.5566 7.064 45.4073 7.32C45.2793 7.55467 45.0446 7.672 44.7033 7.672C44.5113 7.672 44.2446 7.59733 43.9033 7.448C43.8179 7.40533 43.4126 7.192 42.6873 6.808C41.9833 6.40267 41.3433 6.11467 40.7673 5.944C40.2126 5.752 39.7966 5.752 39.5193 5.944ZM38.2713 18.488C38.2073 18.4453 38.1006 18.3813 37.9513 18.296C37.8233 18.1893 37.7273 18.1147 37.6633 18.072C37.5993 18.0293 37.5246 18.0187 37.4393 18.04C37.3539 18.0613 37.3006 18.104 37.2793 18.168C37.2366 18.232 37.2259 18.3067 37.2473 18.392C37.2473 18.392 37.2473 18.4027 37.2473 18.424C37.2473 18.424 37.2579 18.4347 37.2793 18.456C37.3006 18.4987 37.3326 18.5307 37.3753 18.552C37.4179 18.5947 37.4713 18.648 37.5353 18.712C37.6206 18.7547 37.6953 18.808 37.7593 18.872C37.8446 18.9147 37.9193 18.9573 37.9833 19C38.0473 19.0213 38.1219 19.032 38.2073 19.032C38.2926 18.9893 38.3459 18.936 38.3673 18.872C38.4099 18.808 38.4206 18.744 38.3993 18.68C38.3993 18.6373 38.3886 18.6053 38.3673 18.584C38.3459 18.5627 38.3139 18.5307 38.2713 18.488ZM36.7352 15.928C36.6286 15.7573 36.4899 15.7253 36.3193 15.832C36.1699 15.9387 36.1379 16.0773 36.2233 16.248C36.2873 16.3547 36.3833 16.536 36.5113 16.792C36.6606 17.0267 36.7673 17.208 36.8313 17.336C36.9379 17.528 37.0659 17.56 37.2153 17.432C37.3859 17.3467 37.4286 17.2187 37.3433 17.048C37.1939 16.8133 36.9913 16.44 36.7352 15.928ZM34.7513 17.144C34.7086 17.144 34.6766 17.1547 34.6553 17.176C34.5913 17.24 34.5593 17.3147 34.5593 17.4C34.5593 17.4 34.5593 17.4107 34.5593 17.432C34.5806 17.4533 34.5913 17.464 34.5913 17.464C34.5913 17.5067 34.6126 17.5493 34.6553 17.592C34.6766 17.6133 34.6979 17.6453 34.7193 17.688C34.7619 17.7307 34.7939 17.7733 34.8153 17.816C34.8579 17.8373 34.8899 17.8693 34.9113 17.912C34.9326 17.9333 34.9646 17.944 35.0073 17.944C35.0286 17.9653 35.0606 17.976 35.1033 17.976C35.1459 17.976 35.1886 17.9653 35.2313 17.944C35.2526 17.944 35.2846 17.9333 35.3273 17.912C35.3699 17.848 35.3913 17.7733 35.3913 17.688C35.3913 17.688 35.3913 17.6773 35.3913 17.656C35.3913 17.6347 35.3913 17.624 35.3913 17.624C35.3699 17.56 35.3379 17.5173 35.2953 17.496C35.2739 17.4533 35.2313 17.4 35.1673 17.336C35.1246 17.272 35.0926 17.2187 35.0713 17.176C35.0286 17.1547 34.9966 17.144 34.9753 17.144C34.9326 17.1227 34.8899 17.112 34.8473 17.112C34.8046 17.112 34.7726 17.1227 34.7513 17.144ZM35.0073 20.664C35.1993 20.7493 35.3379 20.7173 35.4233 20.568C35.5086 20.376 35.4766 20.2373 35.3273 20.152C35.0713 20.024 34.8366 19.8747 34.6233 19.704C34.6019 19.704 34.5806 19.704 34.5593 19.704C34.5593 19.6827 34.5593 19.672 34.5593 19.672C34.5379 19.672 34.5273 19.6613 34.5273 19.64C34.5059 19.64 34.4953 19.6293 34.4953 19.608C34.4526 19.5867 34.3993 19.544 34.3353 19.48C34.3139 19.4587 34.2819 19.4373 34.2393 19.416C34.1966 19.3733 34.1539 19.3307 34.1113 19.288C34.0899 19.2453 34.0579 19.2133 34.0153 19.192C33.8873 19.064 33.7593 19.064 33.6313 19.192C33.5033 19.3413 33.5033 19.48 33.6313 19.608C34.0366 20.0347 34.4953 20.3867 35.0073 20.664ZM35.3913 18.872C35.6686 19.1493 35.9779 19.3733 36.3193 19.544C36.4046 19.5653 36.4793 19.576 36.5433 19.576C36.6286 19.5333 36.6819 19.48 36.7033 19.416C36.7459 19.3307 36.7566 19.256 36.7352 19.192C36.7139 19.1067 36.6713 19.0533 36.6073 19.032C36.4153 18.9467 36.2339 18.84 36.0633 18.712C35.9993 18.6693 35.9139 18.5947 35.8073 18.488C35.6793 18.3387 35.5406 18.3387 35.3913 18.488C35.2633 18.616 35.2633 18.744 35.3913 18.872ZM37.9833 21.592C38.1753 21.6347 38.2926 21.5707 38.3353 21.4C38.3779 21.208 38.3139 21.0907 38.1433 21.048C37.7806 20.984 37.4179 20.8773 37.0553 20.728C36.9913 20.7067 36.9379 20.7067 36.8953 20.728C36.8526 20.728 36.8099 20.7493 36.7673 20.792C36.7246 20.8347 36.6926 20.8773 36.6713 20.92C36.6499 21.0907 36.7246 21.208 36.8953 21.272C37.2579 21.4213 37.6206 21.528 37.9833 21.592ZM39.2633 20.728C39.3273 20.6853 39.3699 20.632 39.3913 20.568C39.4126 20.4613 39.4019 20.3867 39.3593 20.344C39.3166 20.28 39.2526 20.2267 39.1673 20.184C38.9113 20.0773 38.5913 19.96 38.2073 19.832C38.1433 19.7893 38.0686 19.8 37.9833 19.864C37.9193 19.9067 37.8766 19.96 37.8553 20.024C37.8339 20.1093 37.8446 20.184 37.8873 20.248C37.9299 20.312 37.9833 20.3547 38.0473 20.376C38.2819 20.4613 38.6126 20.5893 39.0393 20.76C39.1033 20.7813 39.1779 20.7707 39.2633 20.728ZM38.7513 17.656C38.6659 17.8267 38.6979 17.9653 38.8473 18.072C39.1886 18.2853 39.5619 18.4347 39.9673 18.52C40.1593 18.5627 40.2766 18.4987 40.3193 18.328C40.3619 18.1147 40.2873 17.9973 40.0953 17.976C39.9886 17.9547 39.9033 17.9333 39.8393 17.912C39.7753 17.8907 39.7326 17.8693 39.7113 17.848C39.6899 17.848 39.6686 17.848 39.6473 17.848C39.6473 17.848 39.6473 17.8373 39.6473 17.816H39.5833H39.6153H39.5513C39.5513 17.7947 39.5406 17.784 39.5193 17.784C39.5193 17.784 39.5086 17.784 39.4873 17.784C39.4659 17.7627 39.4339 17.7413 39.3913 17.72C39.3273 17.6773 39.2419 17.624 39.1353 17.56C38.9646 17.4533 38.8366 17.4853 38.7513 17.656ZM40.5753 20.056C40.6179 20.056 40.6499 20.0347 40.6713 19.992C40.7353 19.928 40.7673 19.864 40.7673 19.8C40.7459 19.6933 40.7139 19.6187 40.6713 19.576C40.6499 19.576 40.6286 19.5653 40.6073 19.544C40.5646 19.5227 40.5113 19.512 40.4473 19.512C40.3406 19.4907 40.1806 19.4693 39.9673 19.448C39.9246 19.448 39.8926 19.4587 39.8713 19.48C39.8286 19.48 39.7966 19.4907 39.7753 19.512C39.7113 19.576 39.6793 19.6507 39.6793 19.736C39.6793 19.8213 39.7113 19.8853 39.7753 19.928C39.7966 19.9493 39.8179 19.96 39.8393 19.96C39.8819 20.0027 39.9246 20.024 39.9673 20.024C40.2019 20.0453 40.3619 20.0667 40.4473 20.088C40.5113 20.088 40.5539 20.0773 40.5753 20.056ZM53.318 0.695999C53.6593 0.461333 53.99 0.439999 54.31 0.631998C54.502 0.738666 54.6193 0.962666 54.662 1.304C54.7047 1.64533 54.7153 2.104 54.694 2.68C54.6727 3.23467 54.662 3.52267 54.662 3.544C54.662 4.41867 54.662 5.16533 54.662 5.784V5.944C54.6407 7.05333 54.6407 8.80267 54.662 11.192C54.6833 13.56 54.6833 15.2987 54.662 16.408C54.6407 17.88 54.5873 19.128 54.502 20.152C54.502 20.2587 54.4913 20.4507 54.47 20.728C54.47 20.984 54.4593 21.208 54.438 21.4C54.438 21.5707 54.4167 21.7733 54.374 22.008C54.3313 22.2213 54.2567 22.4027 54.15 22.552C54.0433 22.7227 53.8727 22.8187 53.638 22.84C53.4247 22.84 53.2327 22.776 53.062 22.648C52.7847 22.456 52.5927 22.104 52.486 21.592C52.4433 21.8907 52.3047 22.1467 52.07 22.36C51.8567 22.5733 51.6113 22.6693 51.334 22.648C51.0567 22.648 50.822 22.52 50.63 22.264C50.438 22.008 50.3847 21.752 50.47 21.496C50.3633 21.7733 50.2887 22.008 50.246 22.2C50.1607 22.4347 50.0647 22.5947 49.958 22.68C49.83 22.7653 49.6807 22.776 49.51 22.712C49.3607 22.648 49.2433 22.552 49.158 22.424C49.0513 22.232 48.998 21.9227 48.998 21.496C49.0193 20.8347 49.0193 19.6293 48.998 17.88C48.9767 16.1093 48.9873 14.8827 49.03 14.2C49.0727 13.6453 49.0727 12.2053 49.03 9.88C48.9873 7.55467 48.966 6.11467 48.966 5.56C48.966 4.74933 49.0513 3.39467 49.222 1.496C49.2647 1.19733 49.318 0.973332 49.382 0.823999C49.5313 0.567999 49.7233 0.450665 49.958 0.471998C50.1927 0.471998 50.4167 0.685332 50.63 1.112C50.7793 1.368 50.8967 1.57067 50.982 1.72C50.9607 1.272 51.1313 0.930665 51.494 0.695999C51.6647 0.589333 51.8247 0.557332 51.974 0.599998C52.038 0.599998 52.1127 0.631999 52.198 0.695999C52.4753 0.930665 52.646 1.21867 52.71 1.56C52.8167 1.176 53.0193 0.887999 53.318 0.695999ZM50.15 20.024C50.1927 19.832 50.2353 19.6507 50.278 19.48C50.2993 19.416 50.2887 19.352 50.246 19.288C50.2033 19.2027 50.15 19.1493 50.086 19.128C49.9153 19.0853 49.798 19.1493 49.734 19.32C49.606 19.7253 49.542 20.1413 49.542 20.568C49.542 20.6533 49.5633 20.728 49.606 20.792C49.67 20.8347 49.7447 20.856 49.83 20.856C50.022 20.856 50.118 20.76 50.118 20.568C50.118 20.44 50.118 20.344 50.118 20.28C50.118 20.2587 50.1287 20.2053 50.15 20.12C50.15 20.0987 50.15 20.0667 50.15 20.024ZM49.862 18.36C49.8833 18.4453 49.926 18.5093 49.99 18.552C50.0753 18.5947 50.15 18.6053 50.214 18.584C50.3633 18.52 50.4273 18.392 50.406 18.2C50.3847 18.0507 50.3527 17.8267 50.31 17.528C50.2673 17.208 50.2353 16.9627 50.214 16.792C50.214 16.7493 50.1927 16.7173 50.15 16.696C50.1073 16.6533 50.054 16.632 49.99 16.632C49.9473 16.6107 49.9047 16.6 49.862 16.6C49.7127 16.6427 49.6487 16.76 49.67 16.952C49.6913 17.0373 49.702 17.1333 49.702 17.24C49.7233 17.3467 49.734 17.4427 49.734 17.528C49.7553 17.6133 49.766 17.7093 49.766 17.816C49.7873 17.9013 49.798 17.9973 49.798 18.104C49.8193 18.1893 49.8407 18.2747 49.862 18.36ZM51.014 15.64C50.9927 15.6613 50.982 15.704 50.982 15.768C50.9393 16.024 50.918 16.2267 50.918 16.376C50.8967 16.4613 50.918 16.536 50.982 16.6C51.046 16.6427 51.1207 16.664 51.206 16.664C51.2913 16.664 51.3553 16.6427 51.398 16.6C51.398 16.5787 51.4087 16.5573 51.43 16.536C51.4727 16.4933 51.494 16.44 51.494 16.376C51.494 16.3333 51.494 16.28 51.494 16.216C51.5153 16.1307 51.526 16.056 51.526 15.992C51.526 15.9067 51.5367 15.832 51.558 15.768C51.558 15.704 51.526 15.64 51.462 15.576C51.398 15.512 51.3233 15.48 51.238 15.48C51.1527 15.48 51.0887 15.512 51.046 15.576C51.046 15.576 51.0353 15.5867 51.014 15.608C51.014 15.608 51.014 15.6187 51.014 15.64ZM51.238 21.24C51.43 21.2187 51.526 21.112 51.526 20.92V20.024C51.526 19.96 51.5153 19.9067 51.494 19.864C51.4727 19.8213 51.4407 19.7893 51.398 19.768C51.3553 19.7467 51.302 19.736 51.238 19.736C51.046 19.736 50.95 19.832 50.95 20.024V20.92C50.95 21.0053 50.982 21.08 51.046 21.144C51.11 21.208 51.174 21.24 51.238 21.24ZM51.43 17.56C51.4513 18.0293 51.5047 18.4773 51.59 18.904C51.6113 18.9893 51.654 19.0533 51.718 19.096C51.8033 19.1387 51.878 19.1493 51.942 19.128C52.1127 19.064 52.1873 18.9467 52.166 18.776C52.1447 18.7333 52.134 18.7013 52.134 18.68C52.134 18.6373 52.1233 18.5947 52.102 18.552C52.102 18.5093 52.102 18.4773 52.102 18.456C52.0807 18.392 52.07 18.3387 52.07 18.296V18.264C52.07 18.264 52.07 18.2533 52.07 18.232C52.07 18.2107 52.07 18.2 52.07 18.2C52.0487 17.9867 52.0273 17.7733 52.006 17.56C52.006 17.4747 51.974 17.4107 51.91 17.368C51.8673 17.304 51.8033 17.272 51.718 17.272C51.526 17.272 51.43 17.368 51.43 17.56ZM52.07 21.24C52.07 21.3253 52.0913 21.4 52.134 21.464C52.198 21.5067 52.2727 21.528 52.358 21.528C52.5287 21.528 52.6247 21.432 52.646 21.24C52.646 20.984 52.614 20.7387 52.55 20.504C52.5287 20.4187 52.486 20.3547 52.422 20.312C52.358 20.2693 52.2833 20.2587 52.198 20.28C52.0273 20.344 51.9633 20.4613 52.006 20.632C52.0273 20.8027 52.038 20.888 52.038 20.888C52.0593 21.016 52.07 21.1333 52.07 21.24ZM53.35 16.664C53.158 16.664 53.062 16.76 53.062 16.952C53.0407 17.0587 53.0193 17.2293 52.998 17.464C52.998 17.6987 52.9873 17.8693 52.966 17.976C52.966 18.0613 52.998 18.136 53.062 18.2C53.126 18.2427 53.19 18.264 53.254 18.264C53.446 18.264 53.542 18.168 53.542 17.976C53.542 17.912 53.542 17.8373 53.542 17.752C53.5633 17.6453 53.574 17.5493 53.574 17.464C53.5953 17.3787 53.606 17.2933 53.606 17.208C53.606 17.1013 53.6167 17.016 53.638 16.952C53.638 16.888 53.6167 16.8347 53.574 16.792C53.5527 16.7493 53.5207 16.7173 53.478 16.696C53.4353 16.6747 53.3927 16.664 53.35 16.664ZM53.286 20.952C53.3073 21.016 53.3607 21.0587 53.446 21.08C53.5313 21.1013 53.606 21.1013 53.67 21.08C53.8193 20.9733 53.8513 20.8347 53.766 20.664C53.7447 20.6427 53.734 20.6213 53.734 20.6C53.734 20.6 53.7233 20.5893 53.702 20.568C53.702 20.5467 53.702 20.536 53.702 20.536C53.702 20.5147 53.6807 20.4507 53.638 20.344C53.6167 20.28 53.5953 20.1627 53.574 19.992V19.96C53.574 19.9387 53.5633 19.9173 53.542 19.896C53.542 19.8747 53.542 19.864 53.542 19.864C53.542 19.8213 53.542 19.7467 53.542 19.64C53.542 19.512 53.5527 19.3947 53.574 19.288C53.574 19.2027 53.542 19.128 53.478 19.064C53.414 19 53.35 18.9787 53.286 19C53.1153 19 53.0193 19.096 52.998 19.288C52.9127 19.8427 53.0087 20.3973 53.286 20.952ZM70.3375 2.424C70.5935 2.424 70.8175 2.52 71.0095 2.712C71.2228 2.904 71.3402 3.128 71.3615 3.384C71.3615 3.53333 71.3295 3.672 71.2655 3.8C71.2228 3.90667 71.1482 4.01333 71.0415 4.12C70.9562 4.20533 70.8495 4.28 70.7215 4.344C70.6148 4.408 70.4975 4.44 70.3695 4.44C70.9028 4.67467 71.1375 4.952 71.0735 5.272C71.0095 5.592 70.6788 5.752 70.0815 5.752C69.6975 5.77333 69.1215 5.76267 68.3535 5.72C67.6068 5.67733 66.9242 5.66667 66.3055 5.688C65.6868 5.688 65.1215 5.74133 64.6095 5.848C63.6282 6.04 62.9242 6.47733 62.4975 7.16C62.2628 7.56533 62.0815 8.12 61.9535 8.824C61.8468 9.50667 61.7828 10.0507 61.7615 10.456C61.7402 10.84 61.7295 11.416 61.7295 12.184C61.6868 14.4453 61.9108 16.152 62.4015 17.304C62.5508 17.6453 62.7642 17.9227 63.0415 18.136C63.3188 18.3493 63.6175 18.4347 63.9375 18.392C64.4068 18.3067 64.7482 17.9867 64.9615 17.432C65.1322 16.9627 65.1855 16.4827 65.1215 15.992C65.0575 15.992 64.9508 15.992 64.8015 15.992C64.6735 15.992 64.5668 15.992 64.4815 15.992C64.4175 15.9707 64.3322 15.9493 64.2255 15.928C64.1402 15.9067 64.0548 15.864 63.9695 15.8C63.9055 15.736 63.8415 15.6613 63.7775 15.576C63.4788 15.0427 63.7348 14.52 64.5455 14.008C64.2895 13.9867 64.0548 13.88 63.8415 13.688C63.6495 13.496 63.5535 13.2827 63.5535 13.048C63.5322 12.8773 63.5642 12.7173 63.6495 12.568C63.7562 12.3973 63.8842 12.28 64.0335 12.216C64.2042 12.1307 64.3642 12.1093 64.5135 12.152C64.1508 11.896 63.9268 11.6613 63.8415 11.448C63.7562 11.2987 63.7348 11.1387 63.7775 10.968C63.8202 10.776 63.9162 10.648 64.0655 10.584C64.1508 10.5413 64.2788 10.52 64.4495 10.52C66.4122 10.5627 68.3855 10.712 70.3695 10.968C70.6468 11.0107 70.8282 11.0853 70.9135 11.192C70.9775 11.2987 71.0202 11.4587 71.0415 11.672C71.1055 12.5893 71.1375 13.6667 71.1375 14.904C71.1375 16.1413 71.0308 17.208 70.8175 18.104C70.6255 18.9147 70.1988 19.864 69.5375 20.952C69.4308 21.144 69.3135 21.3147 69.1855 21.464C69.0575 21.592 68.8975 21.7093 68.7055 21.816C68.5135 21.9227 68.3642 21.9973 68.2575 22.04C68.1722 22.0827 67.9802 22.1573 67.6815 22.264C67.3828 22.3707 67.2015 22.4347 67.1375 22.456C66.4122 22.7333 65.6015 22.8827 64.7055 22.904C62.4868 22.968 60.6842 22.3387 59.2975 21.016C58.2095 19.992 57.4095 18.4773 56.8975 16.472C56.7908 16.024 56.7162 15.5333 56.6735 15C56.6522 14.4453 56.6522 13.944 56.6735 13.496C56.6948 13.048 56.6948 12.5467 56.6735 11.992C56.4815 7.87467 57.3668 4.792 59.3295 2.744C59.8628 2.18933 60.4815 1.74133 61.1855 1.4C61.8895 1.03733 62.5508 0.781332 63.1695 0.631998C63.8095 0.482665 64.5668 0.407999 65.4415 0.407999C66.3162 0.386666 67.0522 0.397333 67.6495 0.439999C68.2468 0.482666 68.9935 0.557333 69.8895 0.664C70.3375 0.727999 70.6575 0.845332 70.8495 1.016C71.1268 1.272 71.1908 1.57067 71.0415 1.912C70.9135 2.232 70.6788 2.40267 70.3375 2.424ZM66.0495 18.296C66.2842 17.8693 66.4442 17.4213 66.5295 16.952C66.5295 16.8667 66.5188 16.792 66.4975 16.728C66.4548 16.664 66.4015 16.6213 66.3375 16.6C66.1242 16.5573 65.9962 16.6213 65.9535 16.792C65.9322 17.0267 65.8788 17.2507 65.7935 17.464C65.7935 17.4853 65.7828 17.5173 65.7615 17.56C65.7615 17.5813 65.7508 17.6027 65.7295 17.624C65.7295 17.624 65.7295 17.6453 65.7295 17.688L65.6975 17.72C65.6548 17.8053 65.6122 17.9013 65.5695 18.008C65.4628 18.2 65.4948 18.3387 65.6655 18.424C65.8362 18.5093 65.9642 18.4667 66.0495 18.296ZM67.0735 19.864C67.2868 19.6507 67.5002 19.3947 67.7135 19.096C67.7562 19.032 67.7668 18.968 67.7455 18.904C67.7242 18.7973 67.6815 18.7333 67.6175 18.712C67.5322 18.6693 67.4468 18.6587 67.3615 18.68C67.2975 18.7013 67.2442 18.744 67.2015 18.808C67.2015 18.8293 67.1802 18.8613 67.1375 18.904C67.1162 18.9467 67.0948 18.9787 67.0735 19C66.9455 19.1707 66.8068 19.32 66.6575 19.448C66.6148 19.512 66.5935 19.5867 66.5935 19.672C66.5935 19.7573 66.6148 19.8213 66.6575 19.864C66.8068 19.992 66.9455 19.992 67.0735 19.864ZM67.6815 17.752C67.7242 17.7093 67.7668 17.6453 67.8095 17.56C67.9375 17.2187 68.0015 16.8667 68.0015 16.504C68.0015 16.44 67.9695 16.376 67.9055 16.312C67.8628 16.248 67.7988 16.216 67.7135 16.216C67.5428 16.216 67.4468 16.312 67.4255 16.504C67.4255 16.6107 67.4255 16.7067 67.4255 16.792C67.3828 17.0053 67.3188 17.208 67.2335 17.4C67.2122 17.4853 67.2228 17.56 67.2655 17.624C67.3082 17.7093 67.3722 17.752 67.4575 17.752C67.5428 17.7733 67.6175 17.7733 67.6815 17.752ZM69.0255 19.064C69.3242 18.744 69.6122 18.392 69.8895 18.008C69.9108 17.944 69.9108 17.8693 69.8895 17.784C69.8682 17.6987 69.8255 17.6453 69.7615 17.624C69.6122 17.5173 69.4842 17.5493 69.3775 17.72C69.2922 17.8267 69.2282 17.912 69.1855 17.976C69.1855 17.9973 69.1642 18.0293 69.1215 18.072V18.104C69.1002 18.104 69.0895 18.104 69.0895 18.104C69.0682 18.1253 69.0575 18.1467 69.0575 18.168C68.9082 18.3387 68.7588 18.4987 68.6095 18.648C68.4815 18.7973 68.4815 18.936 68.6095 19.064C68.7588 19.192 68.8975 19.192 69.0255 19.064ZM68.7055 15C68.5135 15 68.4175 15.096 68.4175 15.288C68.4175 15.7147 68.4602 16.1307 68.5455 16.536C68.5882 16.728 68.7055 16.792 68.8975 16.728C69.0895 16.664 69.1535 16.5467 69.0895 16.376C69.0682 16.248 69.0575 16.152 69.0575 16.088C69.0362 16.024 69.0255 15.9813 69.0255 15.96C69.0255 15.9173 69.0255 15.8853 69.0255 15.864C69.0042 15.6933 68.9935 15.5013 68.9935 15.288C68.9935 15.2027 68.9615 15.128 68.8975 15.064C68.8335 15 68.7695 14.9787 68.7055 15ZM70.5615 13.848C70.5615 13.784 70.5188 13.7307 70.4335 13.688C70.3482 13.6453 70.2735 13.6347 70.2095 13.656C70.0602 13.6987 69.9962 13.816 70.0175 14.008C70.0388 14.136 70.0602 14.296 70.0815 14.488C70.1028 14.6587 70.1242 14.8293 70.1455 15C70.1668 15.1707 70.1882 15.3307 70.2095 15.48C70.2308 15.544 70.2735 15.5973 70.3375 15.64C70.4228 15.6827 70.4975 15.6933 70.5615 15.672C70.7322 15.6293 70.8068 15.512 70.7855 15.32C70.7642 15.1707 70.7215 14.936 70.6575 14.616C70.6148 14.2747 70.5828 14.0187 70.5615 13.848ZM69.6975 11.768C69.5482 11.7893 69.3242 11.8107 69.0255 11.832C68.7482 11.832 68.5348 11.832 68.3855 11.832C68.1935 11.8533 68.0975 11.9493 68.0975 12.12C68.1188 12.3333 68.2148 12.4293 68.3855 12.408C68.5348 12.408 68.7482 12.3973 69.0255 12.376C69.3242 12.3547 69.5482 12.344 69.6975 12.344C69.8895 12.344 69.9855 12.248 69.9855 12.056C69.9642 11.864 69.8682 11.768 69.6975 11.768ZM67.7775 13.528C67.6922 13.5067 67.5962 13.4747 67.4895 13.432C67.4255 13.3893 67.3508 13.3787 67.2655 13.4C67.2015 13.4213 67.1482 13.464 67.1055 13.528C67.0628 13.6133 67.0522 13.688 67.0735 13.752C67.0948 13.8373 67.1375 13.8907 67.2015 13.912C67.3508 13.9973 67.5108 14.0507 67.6815 14.072C67.7668 14.0933 67.8522 14.104 67.9375 14.104C67.9588 14.104 67.9802 14.104 68.0015 14.104C68.0442 14.104 68.0868 14.104 68.1295 14.104C68.1722 14.0827 68.2042 14.072 68.2255 14.072C68.2895 14.0507 68.3428 14.008 68.3855 13.944C68.4282 13.88 68.4388 13.8053 68.4175 13.72C68.3962 13.6347 68.3535 13.5813 68.2895 13.56C68.2895 13.56 68.2788 13.56 68.2575 13.56C68.2362 13.5387 68.2255 13.528 68.2255 13.528C68.2042 13.528 68.1722 13.528 68.1295 13.528C68.0228 13.528 67.9055 13.528 67.7775 13.528ZM65.9855 11.512C65.9002 11.5547 65.8468 11.6187 65.8255 11.704C65.8042 11.896 65.8788 12.0133 66.0495 12.056C66.3695 12.12 66.6788 12.1413 66.9775 12.12C67.0628 12.12 67.1268 12.088 67.1695 12.024C67.2335 11.9813 67.2655 11.9173 67.2655 11.832C67.2655 11.7467 67.2335 11.6827 67.1695 11.64C67.1268 11.576 67.0628 11.544 66.9775 11.544C66.7855 11.5653 66.5828 11.5547 66.3695 11.512C66.2842 11.512 66.2202 11.5013 66.1775 11.48C66.0922 11.48 66.0282 11.4907 65.9855 11.512ZM64.6095 13.176C64.5882 13.24 64.5988 13.304 64.6415 13.368C64.6842 13.4533 64.7375 13.5067 64.8015 13.528C65.2708 13.592 65.6228 13.6347 65.8575 13.656C65.9428 13.6773 66.0175 13.6667 66.0815 13.624C66.1455 13.5813 66.1882 13.528 66.2095 13.464C66.2308 13.3787 66.2202 13.304 66.1775 13.24C66.1348 13.1547 66.0815 13.112 66.0175 13.112C65.8895 13.0907 65.7082 13.0693 65.4735 13.048C65.2388 13.0053 65.0682 12.9733 64.9615 12.952C64.8762 12.952 64.8015 12.9627 64.7375 12.984C64.6735 13.0267 64.6308 13.0907 64.6095 13.176ZM65.4415 14.616C65.2708 14.5947 65.1535 14.6693 65.0895 14.84C65.0468 15.032 65.1215 15.1493 65.3135 15.192C65.5268 15.2347 65.7082 15.2773 65.8575 15.32C65.9215 15.3413 65.9642 15.3627 65.9855 15.384C65.9855 15.384 65.9962 15.384 66.0175 15.384C66.0388 15.384 66.0495 15.3947 66.0495 15.416C66.0495 15.416 66.0602 15.416 66.0815 15.416C66.1028 15.416 66.1242 15.4267 66.1455 15.448C66.1882 15.4693 66.2202 15.4907 66.2415 15.512C66.2842 15.512 66.3162 15.5227 66.3375 15.544C66.5082 15.6293 66.6362 15.5867 66.7215 15.416C66.8282 15.2453 66.7962 15.1173 66.6255 15.032C66.2628 14.84 65.8682 14.7013 65.4415 14.616ZM91.6458 1.144C91.7098 1.4 91.7418 1.688 91.7418 2.008C91.7418 2.30667 91.7311 2.65867 91.7098 3.064C91.6884 3.448 91.6778 3.736 91.6778 3.928C91.6778 4.248 91.6458 5.19733 91.5818 6.776C91.5818 7.33067 91.5924 8.12 91.6138 9.144C91.6564 10.168 91.6778 10.8933 91.6778 11.32C91.6778 12.4293 91.6458 14.3387 91.5818 17.048C91.5818 17.5387 91.5498 18.2427 91.4858 19.16C91.4431 20.0773 91.4218 20.6747 91.4218 20.952C91.4004 21.6133 91.2404 22.04 90.9418 22.232C90.7924 22.3173 90.5578 22.36 90.2378 22.36C89.9818 22.3387 89.5978 22.328 89.0858 22.328C88.5738 22.328 88.1898 22.328 87.9338 22.328C87.4644 22.3067 87.1871 22.296 87.1018 22.296C86.7178 22.2747 86.3764 22.2213 86.0778 22.136C85.7364 22.0507 85.4271 21.8907 85.1498 21.656C84.8724 21.4213 84.6164 21.112 84.3818 20.728C84.1684 20.344 83.9871 20.0027 83.8378 19.704C83.6884 19.4053 83.5178 19.0107 83.3258 18.52C83.1338 18.0293 83.0058 17.6987 82.9418 17.528C82.2378 15.992 81.7898 15.032 81.5978 14.648C81.5338 14.52 81.4164 14.3387 81.2458 14.104C81.0751 13.848 80.9044 13.6133 80.7338 13.4C80.5844 13.1653 80.4351 12.9307 80.2858 12.696C80.1578 12.4613 80.0938 12.28 80.0938 12.152C80.0938 12.9627 80.1258 14.328 80.1898 16.248C80.2751 18.1467 80.3071 19.6187 80.2858 20.664C80.2644 21.432 80.1684 21.9973 79.9978 22.36C79.9338 22.5307 79.8484 22.648 79.7418 22.712C79.5711 22.7973 79.3471 22.8187 79.0698 22.776C78.7711 22.712 78.5151 22.584 78.3018 22.392C78.0884 22.2 77.9498 21.9867 77.8858 21.752C77.8004 21.8373 77.6831 21.9973 77.5338 22.232C77.4058 22.4667 77.2778 22.6267 77.1498 22.712C76.7658 22.968 76.3498 22.9573 75.9018 22.68C75.5604 22.488 75.3471 22.1893 75.2618 21.784C75.1338 22.168 74.9844 22.4347 74.8138 22.584C74.5151 22.8613 74.1844 22.936 73.8218 22.808C73.5658 22.7013 73.3951 22.456 73.3098 22.072C73.2031 21.4107 73.1604 20.8667 73.1818 20.44C73.2031 20.0133 73.2458 19.448 73.3098 18.744C73.3738 18.04 73.4058 17.4853 73.4058 17.08C73.3631 15.3947 73.3631 13.56 73.4058 11.576C73.4058 7.20267 73.4378 4.22667 73.5018 2.648C73.5444 1.624 73.7898 0.973333 74.2378 0.695999C74.4938 0.525332 74.9311 0.439999 75.5498 0.439999C75.6351 0.439999 75.8164 0.439999 76.0938 0.439999C76.3924 0.418666 76.5951 0.418666 76.7018 0.439999C76.8298 0.439999 77.0218 0.450665 77.2778 0.471998C77.5338 0.471998 77.7364 0.482665 77.8858 0.504C78.0351 0.525333 78.2058 0.567999 78.3978 0.631998C78.6111 0.674665 78.8031 0.738666 78.9738 0.823999C79.1444 0.909333 79.3044 1.00533 79.4538 1.112C80.2644 1.66667 80.9791 2.60533 81.5978 3.928C81.6831 4.09867 81.7791 4.30133 81.8858 4.536C81.9924 4.77067 82.0884 4.984 82.1738 5.176C82.2591 5.368 82.3444 5.57067 82.4298 5.784C82.5151 5.976 82.6111 6.17867 82.7178 6.392C82.8458 6.60533 82.9631 6.808 83.0698 7C83.1764 7.17067 83.3364 7.45867 83.5498 7.864C83.7844 8.248 83.9658 8.55733 84.0938 8.792C84.2431 9.00533 84.4244 9.272 84.6378 9.592C84.8724 9.89067 85.1071 10.1467 85.3418 10.36C85.4271 10.296 85.4378 9.99733 85.3738 9.464C85.3098 8.93067 85.2778 8.62133 85.2778 8.536C85.2778 8.344 85.2778 8.07733 85.2778 7.736C85.2778 7.39467 85.2778 7.08533 85.2778 6.808C85.2778 6.53067 85.2778 6.264 85.2778 6.008C85.2778 5.66667 85.2671 5.18667 85.2458 4.568C85.2458 3.94933 85.2458 3.39467 85.2458 2.904C85.2671 2.392 85.2884 1.90133 85.3098 1.432C85.3098 1.09067 85.4164 0.877332 85.6298 0.792C85.9284 0.642666 86.2271 0.706666 86.5258 0.983999C86.5898 1.06933 86.6751 1.19733 86.7818 1.368C86.8884 1.53867 86.9631 1.64533 87.0058 1.688C87.1551 1.368 87.4324 1.08 87.8378 0.823999C88.2431 0.546666 88.6164 0.535999 88.9578 0.792C89.0431 0.855999 89.1284 0.994665 89.2138 1.208C89.3204 1.42133 89.4378 1.56 89.5658 1.624C89.6724 1.26133 89.9071 0.962665 90.2698 0.727999C90.5258 0.578666 90.7604 0.514666 90.9738 0.535999C91.3578 0.599998 91.5818 0.802665 91.6458 1.144ZM74.6538 16.056C74.4618 16.0133 74.3444 16.0773 74.3018 16.248C74.1738 16.7173 74.1311 17.2187 74.1738 17.752C74.1738 17.944 74.2698 18.04 74.4618 18.04C74.5258 18.0187 74.5898 17.9867 74.6538 17.944C74.7178 17.88 74.7498 17.816 74.7498 17.752C74.7284 17.5173 74.7284 17.2827 74.7498 17.048C74.7498 16.9627 74.7498 16.9093 74.7498 16.888V16.856C74.7498 16.856 74.7604 16.8453 74.7818 16.824C74.7818 16.824 74.7818 16.792 74.7818 16.728C74.7818 16.7067 74.7818 16.6747 74.7818 16.632C74.8031 16.5893 74.8138 16.5467 74.8138 16.504C74.8351 16.4613 74.8458 16.4293 74.8458 16.408C74.8884 16.216 74.8244 16.0987 74.6538 16.056ZM74.5578 20.92C74.7498 20.8987 74.8458 20.8027 74.8458 20.632C74.8671 20.2267 74.8458 19.832 74.7818 19.448C74.7604 19.384 74.7071 19.3307 74.6218 19.288C74.5578 19.2453 74.4938 19.2347 74.4298 19.256C74.2591 19.2987 74.1951 19.416 74.2378 19.608C74.2378 19.6293 74.2378 19.672 74.2378 19.736V19.768C74.2378 19.768 74.2378 19.7893 74.2378 19.832C74.2591 19.896 74.2698 19.9813 74.2698 20.088C74.2911 20.28 74.2911 20.4613 74.2698 20.632C74.2698 20.7173 74.3018 20.792 74.3658 20.856C74.4298 20.8987 74.4938 20.92 74.5578 20.92ZM75.9978 21.304C76.1898 21.2827 76.2858 21.1867 76.2858 21.016V19.96C76.2858 19.8747 76.2538 19.8107 76.1898 19.768C76.1258 19.704 76.0618 19.672 75.9978 19.672C75.8058 19.672 75.7098 19.768 75.7098 19.96V21.016C75.7098 21.208 75.8058 21.304 75.9978 21.304ZM75.9978 18.648C76.1898 18.6267 76.2858 18.5307 76.2858 18.36V17.368C76.2858 17.3253 76.2644 17.2827 76.2218 17.24C76.2004 17.176 76.1684 17.1333 76.1258 17.112C76.0831 17.0907 76.0404 17.08 75.9978 17.08C75.8058 17.08 75.7098 17.176 75.7098 17.368V18.36C75.7098 18.424 75.7311 18.488 75.7738 18.552C75.8378 18.616 75.9124 18.648 75.9978 18.648ZM76.2218 16.344C76.2644 16.3013 76.2858 16.248 76.2858 16.184C76.2858 16.0773 76.2858 16.0027 76.2858 15.96C76.2858 15.9173 76.2751 15.8747 76.2538 15.832C76.2324 15.7893 76.2111 15.7573 76.1898 15.736C76.1471 15.7147 76.1151 15.704 76.0938 15.704C76.0511 15.6827 76.0191 15.672 75.9978 15.672C75.9764 15.672 75.9551 15.672 75.9338 15.672C75.9338 15.672 75.9231 15.672 75.9018 15.672C75.8591 15.6933 75.8164 15.7147 75.7738 15.736C75.7738 15.7573 75.7631 15.7787 75.7418 15.8C75.7204 15.864 75.7098 15.9173 75.7098 15.96V16.184C75.7098 16.2267 75.7098 16.2693 75.7098 16.312C75.7311 16.3333 75.7524 16.3653 75.7738 16.408C75.8164 16.4293 75.8484 16.4507 75.8698 16.472C75.9124 16.472 75.9551 16.472 75.9978 16.472C75.9978 16.472 76.0084 16.472 76.0298 16.472C76.0511 16.472 76.0618 16.472 76.0618 16.472C76.1044 16.472 76.1471 16.4507 76.1898 16.408C76.1898 16.408 76.1898 16.3973 76.1898 16.376C76.2111 16.3547 76.2218 16.344 76.2218 16.344ZM77.4058 15.672C77.2138 15.672 77.1178 15.768 77.1178 15.96V17.016C77.1178 17.08 77.1391 17.144 77.1818 17.208C77.2458 17.272 77.3204 17.304 77.4058 17.304C77.5978 17.2827 77.6938 17.1867 77.6938 17.016V15.96C77.6938 15.8747 77.6618 15.8107 77.5978 15.768C77.5338 15.704 77.4698 15.672 77.4058 15.672ZM77.2778 21.912C77.4484 21.8907 77.5444 21.7947 77.5658 21.624C77.5871 21.2187 77.5658 20.8027 77.5018 20.376C77.4804 20.2907 77.4378 20.2267 77.3738 20.184C77.2884 20.1413 77.2138 20.1413 77.1498 20.184C76.9791 20.2267 76.9151 20.344 76.9578 20.536C76.9578 20.536 76.9578 20.5467 76.9578 20.568C76.9578 20.5893 76.9578 20.6 76.9578 20.6V20.632C76.9578 20.6533 76.9578 20.696 76.9578 20.76C76.9791 20.7813 76.9898 20.824 76.9898 20.888C76.9898 20.952 76.9898 21.0053 76.9898 21.048C77.0111 21.2613 77.0111 21.4533 76.9898 21.624C76.9898 21.688 77.0111 21.752 77.0538 21.816C77.1178 21.88 77.1924 21.912 77.2778 21.912ZM77.7898 18.968C77.8324 18.6053 77.8538 18.3387 77.8538 18.168C77.8538 18.104 77.8324 18.04 77.7898 17.976C77.7044 17.912 77.6298 17.88 77.5658 17.88C77.4804 17.88 77.4164 17.912 77.3738 17.976C77.3311 18.0187 77.2991 18.0827 77.2778 18.168C77.2778 18.2533 77.2671 18.392 77.2458 18.584C77.2458 18.7547 77.2351 18.8827 77.2138 18.968C77.2138 19.032 77.2458 19.096 77.3098 19.16C77.3738 19.224 77.4378 19.256 77.5018 19.256C77.5871 19.256 77.6511 19.2347 77.6938 19.192C77.7578 19.128 77.7898 19.0533 77.7898 18.968ZM79.0698 21.464C79.0911 21.4213 79.1018 21.3573 79.1018 21.272C79.1231 21.208 79.1231 21.112 79.1018 20.984C79.0804 20.9413 79.0591 20.9093 79.0378 20.888C79.0164 20.8667 78.9844 20.8453 78.9418 20.824C78.9418 20.8027 78.9098 20.792 78.8458 20.792C78.8031 20.7707 78.7711 20.7707 78.7498 20.792C78.6644 20.8133 78.6004 20.856 78.5578 20.92C78.5578 20.9413 78.5471 20.9627 78.5258 20.984C78.5258 21.0267 78.5258 21.08 78.5258 21.144C78.5471 21.1653 78.5471 21.1973 78.5258 21.24C78.5258 21.304 78.5151 21.3467 78.4938 21.368C78.4938 21.4107 78.4938 21.4427 78.4938 21.464C78.4724 21.5067 78.4724 21.5387 78.4938 21.56C78.5151 21.6453 78.5578 21.7093 78.6218 21.752C78.7071 21.7947 78.7818 21.7947 78.8458 21.752C78.9311 21.7307 78.9844 21.6987 79.0058 21.656C79.0271 21.592 79.0484 21.528 79.0698 21.464ZM79.1338 19.992C79.2191 19.9707 79.2724 19.928 79.2938 19.864C79.3364 19.7787 79.3471 19.704 79.3258 19.64C79.2404 19.4053 79.1658 19.192 79.1018 19C79.0591 18.9147 79.0164 18.8613 78.9738 18.84C78.8884 18.7973 78.8138 18.7867 78.7498 18.808C78.6644 18.8293 78.6004 18.872 78.5578 18.936C78.5151 19.0213 78.5151 19.096 78.5578 19.16C78.6431 19.3947 78.7178 19.608 78.7818 19.8C78.8031 19.864 78.8458 19.9173 78.9098 19.96C78.9738 20.0027 79.0484 20.0133 79.1338 19.992ZM79.0378 18.104C79.1018 18.1467 79.1764 18.1573 79.2618 18.136C79.4324 18.0933 79.4964 17.976 79.4538 17.784C79.4324 17.72 79.4111 17.6453 79.3898 17.56C79.3898 17.4747 79.3791 17.4 79.3578 17.336C79.3578 17.272 79.3471 17.1973 79.3258 17.112C79.3044 17.0053 79.2831 16.92 79.2618 16.856C79.2618 16.792 79.2191 16.7387 79.1338 16.696C79.0698 16.6533 79.0058 16.6427 78.9418 16.664C78.7711 16.7067 78.6964 16.824 78.7178 17.016C78.7391 17.08 78.7498 17.144 78.7498 17.208C78.7711 17.272 78.7818 17.336 78.7818 17.4C78.8031 17.4427 78.8138 17.496 78.8138 17.56C78.8351 17.624 78.8458 17.688 78.8458 17.752C78.8671 17.816 78.8884 17.88 78.9098 17.944C78.9098 18.008 78.9524 18.0613 79.0378 18.104ZM84.4138 18.936C84.5204 19.1067 84.6484 19.1387 84.7978 19.032C84.9684 18.9253 85.0004 18.7973 84.8938 18.648C84.8084 18.4773 84.7338 18.3173 84.6698 18.168C84.6484 18.1467 84.6271 18.1253 84.6058 18.104C84.6058 18.0613 84.6058 18.0187 84.6058 17.976C84.5631 17.8693 84.5311 17.784 84.5098 17.72C84.4458 17.528 84.3284 17.464 84.1578 17.528C83.9658 17.592 83.9018 17.7093 83.9658 17.88C84.0724 18.264 84.2218 18.616 84.4138 18.936ZM85.6938 21.592C85.8004 21.7627 85.9284 21.7947 86.0778 21.688C86.2484 21.5813 86.2911 21.4533 86.2058 21.304C86.1418 21.1973 86.0458 21.0373 85.9178 20.824C85.7898 20.6107 85.6938 20.4613 85.6298 20.376C85.5231 20.2053 85.3951 20.1627 85.2458 20.248C85.0751 20.376 85.0431 20.5147 85.1498 20.664C85.2138 20.7707 85.2991 20.9307 85.4058 21.144C85.5338 21.336 85.6298 21.4853 85.6938 21.592ZM85.7898 19.608C85.8538 19.8 85.9711 19.864 86.1418 19.8C86.3338 19.736 86.4084 19.6187 86.3658 19.448C86.3018 19.256 86.2164 18.968 86.1098 18.584C86.0458 18.392 85.9284 18.328 85.7578 18.392C85.5658 18.456 85.4911 18.5733 85.5338 18.744C85.5764 18.8507 85.6618 19.1387 85.7898 19.608ZM86.5258 18.808C86.6111 18.9787 86.7391 19.0107 86.9098 18.904C87.0591 18.8187 87.0911 18.6907 87.0058 18.52C86.9631 18.4133 86.9204 18.3067 86.8778 18.2C86.8564 18.1787 86.8351 18.1573 86.8138 18.136C86.8138 18.0933 86.8138 18.0613 86.8138 18.04C86.8138 18.04 86.8031 18.04 86.7818 18.04C86.7818 18.0187 86.7818 18.008 86.7818 18.008C86.7818 18.008 86.7818 17.9973 86.7818 17.976C86.7604 17.9547 86.7498 17.944 86.7498 17.944C86.6431 17.6453 86.5684 17.432 86.5258 17.304C86.4618 17.112 86.3444 17.0373 86.1738 17.08C85.9818 17.1653 85.9178 17.2933 85.9818 17.464C86.1311 17.912 86.3124 18.36 86.5258 18.808ZM88.7018 16.504C88.7018 16.44 88.6698 16.376 88.6058 16.312C88.5418 16.248 88.4778 16.216 88.4138 16.216C88.2218 16.216 88.1258 16.312 88.1258 16.504C88.1258 16.9093 88.1791 17.304 88.2858 17.688C88.3284 17.88 88.4458 17.944 88.6378 17.88C88.8298 17.816 88.8938 17.6987 88.8298 17.528C88.8298 17.5067 88.8191 17.464 88.7978 17.4C88.7764 17.336 88.7658 17.2933 88.7658 17.272C88.7658 17.2507 88.7551 17.2293 88.7338 17.208C88.7338 17.1653 88.7338 17.144 88.7338 17.144C88.7338 17.1227 88.7338 17.112 88.7338 17.112C88.7338 17.0907 88.7338 17.0693 88.7338 17.048C88.7338 17.048 88.7338 17.0373 88.7338 17.016V17.048C88.7338 17.048 88.7231 16.9627 88.7018 16.792C88.7018 16.6853 88.7018 16.5893 88.7018 16.504ZM87.3898 21.304C87.4538 21.496 87.5711 21.5707 87.7418 21.528C87.9338 21.464 88.0084 21.3467 87.9658 21.176C87.9018 20.984 87.8484 20.8133 87.8058 20.664C87.8058 20.6213 87.7951 20.536 87.7738 20.408C87.7524 20.3653 87.7418 20.3227 87.7418 20.28C87.7418 20.28 87.7418 20.2693 87.7418 20.248C87.7418 20.2267 87.7311 20.216 87.7098 20.216V20.184C87.7098 20.0987 87.6884 20.0347 87.6458 19.992C87.5818 19.928 87.5071 19.896 87.4218 19.896C87.3364 19.9173 87.2724 19.9493 87.2298 19.992C87.1658 20.0773 87.1338 20.1413 87.1338 20.184C87.1978 20.6107 87.2831 20.984 87.3898 21.304ZM88.1898 19.192C88.2751 19.1707 88.3284 19.1173 88.3498 19.032C88.3924 18.968 88.4031 18.904 88.3818 18.84C88.3604 18.7547 88.3284 18.648 88.2858 18.52C88.2431 18.3707 88.2218 18.264 88.2218 18.2C88.1791 18.136 88.1364 18.0827 88.0938 18.04C88.0084 17.9973 87.9338 17.9867 87.8698 18.008C87.7844 18.0293 87.7204 18.072 87.6778 18.136C87.6564 18.2213 87.6458 18.296 87.6458 18.36C87.6671 18.424 87.6991 18.5307 87.7418 18.68C87.7844 18.808 87.8164 18.904 87.8378 18.968C87.8591 19.0533 87.9018 19.1173 87.9658 19.16C88.0298 19.2027 88.1044 19.2133 88.1898 19.192ZM89.1498 21.816C89.1498 21.7947 89.1604 21.7733 89.1818 21.752C89.1818 21.7093 89.1711 21.6667 89.1498 21.624C89.1498 21.56 89.1391 21.496 89.1178 21.432C89.1178 21.3893 89.0964 21.3467 89.0538 21.304C89.0538 21.304 89.0324 21.2827 88.9897 21.24C88.9684 21.24 88.9258 21.2293 88.8618 21.208C88.8191 21.208 88.7871 21.208 88.7658 21.208C88.7444 21.208 88.7231 21.2187 88.7018 21.24C88.6378 21.2827 88.6058 21.3147 88.6058 21.336C88.5844 21.3573 88.5738 21.3893 88.5738 21.432C88.5524 21.4747 88.5417 21.528 88.5417 21.592C88.5631 21.6347 88.5951 21.688 88.6378 21.752C88.6378 21.7947 88.6484 21.8267 88.6698 21.848C88.6911 21.8907 88.7231 21.912 88.7658 21.912C88.7871 21.9547 88.8191 21.976 88.8618 21.976C88.9044 21.976 88.9471 21.9653 88.9897 21.944C89.0111 21.944 89.0324 21.9333 89.0538 21.912C89.0964 21.8907 89.1284 21.8587 89.1498 21.816ZM89.0218 20.472C89.2138 20.5147 89.3311 20.4507 89.3738 20.28C89.4804 19.896 89.5338 19.5013 89.5338 19.096C89.5338 19.0533 89.5231 19.0107 89.5018 18.968C89.4804 18.904 89.4484 18.8613 89.4058 18.84C89.3631 18.8187 89.3098 18.808 89.2458 18.808C89.0751 18.808 88.9791 18.904 88.9578 19.096C88.9578 19.224 88.9578 19.3093 88.9578 19.352C88.9578 19.3733 88.9578 19.4053 88.9578 19.448C88.9578 19.4693 88.9578 19.4907 88.9578 19.512C88.9578 19.512 88.9471 19.5227 88.9258 19.544C88.9258 19.5653 88.9258 19.576 88.9258 19.576C88.9258 19.576 88.9258 19.5867 88.9258 19.608V19.576C88.9258 19.6187 88.9151 19.672 88.8938 19.736C88.8938 19.8 88.8938 19.8427 88.8938 19.864C88.8724 19.928 88.8511 20.0133 88.8298 20.12C88.7658 20.312 88.8298 20.4293 89.0218 20.472ZM90.5898 16.728C90.3978 16.6853 90.2698 16.7493 90.2058 16.92C90.0778 17.3467 89.9818 17.8053 89.9178 18.296C89.9178 18.36 89.9498 18.424 90.0138 18.488C90.0778 18.552 90.1418 18.584 90.2058 18.584C90.3764 18.5627 90.4724 18.4667 90.4938 18.296C90.4938 18.296 90.4938 18.2853 90.4938 18.264C90.4938 18.2427 90.4938 18.232 90.4938 18.232C90.5151 18.2107 90.5258 18.1893 90.5258 18.168C90.5258 18.168 90.5258 18.1467 90.5258 18.104C90.5258 18.0613 90.5258 18.04 90.5258 18.04C90.5471 17.9333 90.5684 17.816 90.5898 17.688C90.6324 17.496 90.6964 17.2933 90.7818 17.08C90.8458 16.888 90.7818 16.7707 90.5898 16.728ZM90.3978 21.432C90.5471 20.8133 90.6751 20.2907 90.7818 19.864C90.8244 19.6507 90.7604 19.5333 90.5898 19.512C90.3978 19.448 90.2804 19.512 90.2378 19.704C90.1951 19.8747 90.1311 20.1413 90.0458 20.504C89.9604 20.8453 89.8964 21.112 89.8538 21.304C89.8111 21.496 89.8751 21.6133 90.0458 21.656C90.2378 21.6987 90.3551 21.624 90.3978 21.432Z" fill="white"/>
</svg>
